<svg id="ARROW" xmlns="http://www.w3.org/2000/svg" width="36" height="36" viewBox="0 0 36 36">
  <circle id="Ellipse_7" data-name="Ellipse 7" cx="18" cy="18" r="18" fill="#19324d"/>
  <path id="iconfinder_arrow-right_227601" d="M8.978,24.585H24.216l-5.244,5.244a.978.978,0,1,0,1.383,1.382L27.267,24.3h0a.987.987,0,0,0,.122-.149c.016-.025.028-.051.042-.077a.979.979,0,0,0,.048-.091.87.87,0,0,0,.032-.1c.008-.027.019-.053.024-.081a.977.977,0,0,0,.019-.192h0v0a.985.985,0,0,0-.019-.189c-.006-.029-.017-.056-.025-.085a.908.908,0,0,0-.03-.1,1.012,1.012,0,0,0-.051-.1c-.013-.024-.024-.048-.039-.071a.963.963,0,0,0-.122-.15L20.354,16a.978.978,0,1,0-1.383,1.383l5.244,5.244H8.978a.978.978,0,1,0,0,1.955Z" transform="translate(0.667 -6.107)" fill="#fff"/>
</svg>
