<svg xmlns="http://www.w3.org/2000/svg" width="914.538" height="914.538" viewBox="0 0 914.538 914.538">
  <g id="Layer_2" data-name="Layer 2" transform="translate(0 0)" opacity="0.298">
    <g id="starburts" transform="translate(0 0)">
      <g id="starburst">
        <path id="Path_434" data-name="Path 434" d="M253.539,238.837a11.373,11.373,0,0,1,11.373-11.392h0a11.386,11.386,0,0,1,11.373,11.392h0a11.367,11.367,0,0,1-11.373,11.355h0a11.355,11.355,0,0,1-11.373-11.355Zm0-56.885A11.353,11.353,0,0,1,264.912,170.6h0a11.366,11.366,0,0,1,11.373,11.355h0a11.372,11.372,0,0,1-11.375,11.373h0a11.358,11.358,0,0,1-11.373-11.373Zm0-56.866a11.353,11.353,0,0,1,11.373-11.355h0a11.366,11.366,0,0,1,11.373,11.355h0a11.387,11.387,0,0,1-11.373,11.392h0a11.374,11.374,0,0,1-11.373-11.392Zm0-56.848a11.373,11.373,0,0,1,11.373-11.392h0a11.386,11.386,0,0,1,11.373,11.391h0a11.383,11.383,0,0,1-11.373,11.373h0a11.37,11.37,0,0,1-11.373-11.373Zm0-56.866A11.357,11.357,0,0,1,264.912,0h0a11.37,11.37,0,0,1,11.373,11.373h0a11.367,11.367,0,0,1-11.373,11.355h0a11.354,11.354,0,0,1-11.373-11.355Z" transform="translate(192.367 0)" fill="#c3d1da"/>
        <path id="Path_435" data-name="Path 435" d="M249.186,241.189a11.34,11.34,0,0,1,9.211-13.155h0a11.376,11.376,0,0,1,13.193,9.213h0a11.373,11.373,0,0,1-9.231,13.173h0a10.05,10.05,0,0,1-1.99.191h0a11.365,11.365,0,0,1-11.182-9.421ZM239.31,185.2a11.38,11.38,0,0,1,9.23-13.174h0a11.381,11.381,0,0,1,13.174,9.231h0a11.4,11.4,0,0,1-9.232,13.174h0a11.818,11.818,0,0,1-1.99.17h0a11.368,11.368,0,0,1-11.183-9.4ZM229.434,129.2a11.371,11.371,0,0,1,9.23-13.174h0a11.368,11.368,0,0,1,13.174,9.213h0a11.4,11.4,0,0,1-9.232,13.193h0a11.821,11.821,0,0,1-1.99.17h0A11.381,11.381,0,0,1,229.434,129.2Zm-9.878-56.015a11.369,11.369,0,0,1,9.232-13.173h0a11.394,11.394,0,0,1,13.174,9.231h0a11.383,11.383,0,0,1-9.231,13.173h0a11.644,11.644,0,0,1-1.99.172h0a11.37,11.37,0,0,1-11.184-9.4Zm-9.876-55.992A11.4,11.4,0,0,1,218.913,4.02h0a11.367,11.367,0,0,1,13.174,9.231h0a11.366,11.366,0,0,1-9.231,13.173h0a11.6,11.6,0,0,1-1.972.172h0a11.39,11.39,0,0,1-11.2-9.4Z" transform="translate(158.961 2.918)" fill="#c3d1da"/>
        <path id="Path_436" data-name="Path 436" d="M245.308,244.284a11.345,11.345,0,0,1,6.786-14.559h0a11.358,11.358,0,0,1,14.577,6.786h0a11.364,11.364,0,0,1-6.786,14.577h0a11.194,11.194,0,0,1-3.885.681h0a11.365,11.365,0,0,1-10.692-7.486Zm-19.448-53.417a11.383,11.383,0,0,1,6.786-14.594h0a11.379,11.379,0,0,1,14.578,6.8h0a11.356,11.356,0,0,1-6.786,14.576h0a11.2,11.2,0,0,1-3.885.683h0A11.353,11.353,0,0,1,225.861,190.866Zm-19.448-53.453a11.371,11.371,0,0,1,6.786-14.578h0a11.364,11.364,0,0,1,14.576,6.8h0a11.37,11.37,0,0,1-6.784,14.578h0a11.21,11.21,0,0,1-3.887.681h0a11.343,11.343,0,0,1-10.691-7.486ZM186.947,83.978a11.4,11.4,0,0,1,6.8-14.578h0a11.38,11.38,0,0,1,14.576,6.806h0a11.361,11.361,0,0,1-6.786,14.576h0a11.229,11.229,0,0,1-3.9.683h0a11.377,11.377,0,0,1-10.689-7.485ZM167.517,30.542A11.368,11.368,0,0,1,174.3,15.966h0a11.388,11.388,0,0,1,14.578,6.8h0a11.365,11.365,0,0,1-6.8,14.577h0a11.611,11.611,0,0,1-3.885.681h0A11.336,11.336,0,0,1,167.517,30.542Z" transform="translate(126.575 11.595)" fill="#c3d1da"/>
        <path id="Path_437" data-name="Path 437" d="M242.019,248.006a11.368,11.368,0,0,1,4.171-15.523h0a11.374,11.374,0,0,1,15.544,4.151h0a11.4,11.4,0,0,1-4.17,15.544h0a11.457,11.457,0,0,1-5.668,1.516h0A11.352,11.352,0,0,1,242.019,248.006Zm-28.433-49.244a11.37,11.37,0,0,1,4.17-15.525h0a11.346,11.346,0,0,1,15.523,4.152h0a11.371,11.371,0,0,1-4.151,15.542h0a11.411,11.411,0,0,1-5.668,1.518h0a11.355,11.355,0,0,1-9.875-5.687Zm-28.433-49.248a11.367,11.367,0,0,1,4.171-15.523h0a11.373,11.373,0,0,1,15.544,4.151h0a11.4,11.4,0,0,1-4.171,15.544h0a11.424,11.424,0,0,1-5.687,1.516h0a11.348,11.348,0,0,1-9.857-5.687ZM156.72,100.269a11.4,11.4,0,0,1,4.17-15.544h0a11.368,11.368,0,0,1,15.523,4.17h0a11.371,11.371,0,0,1-4.151,15.542h0a11.41,11.41,0,0,1-5.668,1.518h0a11.4,11.4,0,0,1-9.875-5.687ZM128.287,51.022a11.4,11.4,0,0,1,4.171-15.544h0A11.4,11.4,0,0,1,148,39.648h0a11.372,11.372,0,0,1-4.17,15.525h0a11.307,11.307,0,0,1-5.687,1.534h0a11.387,11.387,0,0,1-9.857-5.686Z" transform="translate(96.182 25.766)" fill="#c3d1da"/>
        <path id="Path_438" data-name="Path 438" d="M239.44,252.241a11.36,11.36,0,0,1,1.4-16.016h0a11.362,11.362,0,0,1,16.018,1.4h0a11.365,11.365,0,0,1-1.4,16.018h0a11.335,11.335,0,0,1-7.3,2.673h0a11.344,11.344,0,0,1-8.719-4.077Zm-36.546-43.558a11.381,11.381,0,0,1,1.383-16.018h0a11.387,11.387,0,0,1,16.036,1.4h0a11.362,11.362,0,0,1-1.4,16.018h0a11.367,11.367,0,0,1-7.3,2.653h0a11.327,11.327,0,0,1-8.719-4.056Zm-36.565-43.56a11.386,11.386,0,0,1,1.4-16.036h0a11.394,11.394,0,0,1,16.016,1.4h0a11.385,11.385,0,0,1-1.4,16.036h0a11.322,11.322,0,0,1-7.3,2.654h0a11.385,11.385,0,0,1-8.719-4.058Zm-36.546-43.559a11.387,11.387,0,0,1,1.4-16.036h0a11.383,11.383,0,0,1,16.018,1.4h0a11.389,11.389,0,0,1-1.4,16.038h0a11.329,11.329,0,0,1-7.3,2.653h0a11.361,11.361,0,0,1-8.721-4.056ZM93.218,78a11.42,11.42,0,0,1,1.4-16.036h0a11.386,11.386,0,0,1,16.036,1.4h0a11.363,11.363,0,0,1-1.4,16.018h0a11.325,11.325,0,0,1-7.316,2.673h0A11.391,11.391,0,0,1,93.217,78Z" transform="translate(68.718 44.997)" fill="#c3d1da"/>
        <path id="Path_439" data-name="Path 439" d="M237.639,256.847a11.363,11.363,0,0,1-1.4-16.018h0a11.364,11.364,0,0,1,16.018-1.4h0a11.366,11.366,0,0,1,1.4,16.018h0a11.344,11.344,0,0,1-8.719,4.076h0A11.234,11.234,0,0,1,237.639,256.847ZM194.06,220.3a11.361,11.361,0,0,1-1.385-16.018h0a11.362,11.362,0,0,1,16.018-1.4h0a11.361,11.361,0,0,1,1.4,16.016h0a11.392,11.392,0,0,1-8.721,4.058h0a11.406,11.406,0,0,1-7.316-2.655ZM150.5,183.754a11.385,11.385,0,0,1-1.4-16.036h0a11.386,11.386,0,0,1,16.036-1.4h0a11.4,11.4,0,0,1,1.4,16.036h0a11.383,11.383,0,0,1-8.719,4.056h0a11.408,11.408,0,0,1-7.319-2.656Zm-43.558-36.565a11.361,11.361,0,0,1-1.4-16.016h0a11.366,11.366,0,0,1,16.018-1.4h0a11.347,11.347,0,0,1,1.4,16.018h0a11.283,11.283,0,0,1-8.7,4.074h0a11.289,11.289,0,0,1-7.316-2.673Zm-43.56-36.545a11.364,11.364,0,0,1-1.4-16.018h0A11.365,11.365,0,0,1,78,93.223h0a11.364,11.364,0,0,1,1.4,16.018h0A11.328,11.328,0,0,1,70.68,113.3h0a11.33,11.33,0,0,1-7.3-2.653Z" transform="translate(45.005 68.711)" fill="#c3d1da"/>
        <path id="Path_440" data-name="Path 440" d="M236.642,261.718a11.373,11.373,0,0,1-4.151-15.542h0a11.346,11.346,0,0,1,15.523-4.152h0a11.37,11.37,0,0,1,4.17,15.525h0a11.377,11.377,0,0,1-9.876,5.686h0a11.462,11.462,0,0,1-5.668-1.518ZM187.4,233.285a11.4,11.4,0,0,1-4.171-15.542h0a11.374,11.374,0,0,1,15.544-4.152h0a11.371,11.371,0,0,1,4.171,15.525h0a11.348,11.348,0,0,1-9.857,5.687h0a11.47,11.47,0,0,1-5.687-1.518ZM138.15,204.852a11.4,11.4,0,0,1-4.168-15.542h0a11.372,11.372,0,0,1,15.542-4.152h0a11.348,11.348,0,0,1,4.152,15.525h0a11.326,11.326,0,0,1-9.857,5.687h0A11.409,11.409,0,0,1,138.15,204.852ZM88.906,176.419a11.379,11.379,0,0,1-4.17-15.542h0a11.374,11.374,0,0,1,15.544-4.152h0a11.347,11.347,0,0,1,4.151,15.525h0a11.321,11.321,0,0,1-9.855,5.687h0a11.4,11.4,0,0,1-5.669-1.518ZM39.658,147.986a11.4,11.4,0,0,1-4.168-15.542h0a11.372,11.372,0,0,1,15.542-4.152h0a11.348,11.348,0,0,1,4.152,15.525h0a11.326,11.326,0,0,1-9.857,5.687h0a11.41,11.41,0,0,1-5.669-1.518Z" transform="translate(25.775 96.177)" fill="#c3d1da"/>
        <path id="Path_441" data-name="Path 441" d="M236.525,266.663a11.354,11.354,0,0,1-6.806-14.559h0a11.365,11.365,0,0,1,14.577-6.8h0a11.358,11.358,0,0,1,6.8,14.577h0a11.406,11.406,0,0,1-10.69,7.488h0A11.224,11.224,0,0,1,236.525,266.663Zm-53.435-19.45a11.379,11.379,0,0,1-6.8-14.576h0a11.369,11.369,0,0,1,14.576-6.786h0a11.374,11.374,0,0,1,6.806,14.578h0a11.408,11.408,0,0,1-10.692,7.486h0a11.232,11.232,0,0,1-3.885-.7Zm-53.437-19.448a11.365,11.365,0,0,1-6.8-14.576h0a11.361,11.361,0,0,1,14.578-6.786h0a11.381,11.381,0,0,1,6.8,14.576h0a11.406,11.406,0,0,1-10.69,7.488h0A11.151,11.151,0,0,1,129.653,227.766ZM76.219,208.318a11.366,11.366,0,0,1-6.8-14.578h0a11.371,11.371,0,0,1,14.576-6.786h0a11.38,11.38,0,0,1,6.8,14.577h0a11.406,11.406,0,0,1-10.69,7.488h0A11.229,11.229,0,0,1,76.219,208.318ZM22.783,188.87a11.366,11.366,0,0,1-6.8-14.577h0a11.365,11.365,0,0,1,14.577-6.786h0a11.382,11.382,0,0,1,6.8,14.578h0a11.41,11.41,0,0,1-10.692,7.488h0a11.148,11.148,0,0,1-3.885-.7Z" transform="translate(11.602 126.566)" fill="#c3d1da"/>
        <path id="Path_442" data-name="Path 442" d="M237.258,271.58a11.4,11.4,0,0,1-9.231-13.174h0a11.384,11.384,0,0,1,13.174-9.232h0a11.369,11.369,0,0,1,9.232,13.174h0a11.366,11.366,0,0,1-11.184,9.4h0A11.84,11.84,0,0,1,237.258,271.58ZM181.263,261.7a11.369,11.369,0,0,1-9.231-13.174h0a11.4,11.4,0,0,1,13.174-9.232h0a11.4,11.4,0,0,1,9.232,13.174h0a11.4,11.4,0,0,1-11.184,9.4h0a11.838,11.838,0,0,1-1.99-.17Zm-56.013-9.876a11.37,11.37,0,0,1-9.213-13.174h0a11.378,11.378,0,0,1,13.174-9.231h0a11.37,11.37,0,0,1,9.213,13.174h0a11.368,11.368,0,0,1-11.184,9.4h0a12.184,12.184,0,0,1-1.99-.17Zm-55.994-9.876a11.381,11.381,0,0,1-9.231-13.174h0A11.4,11.4,0,0,1,73.2,219.548h0a11.4,11.4,0,0,1,9.232,13.174h0a11.4,11.4,0,0,1-11.184,9.4h0a11.842,11.842,0,0,1-1.99-.17Zm-56.012-9.876A11.359,11.359,0,0,1,4.031,218.9h0a11.377,11.377,0,0,1,13.174-9.232h0a11.369,11.369,0,0,1,9.211,13.174h0a11.366,11.366,0,0,1-11.183,9.4h0a12.171,12.171,0,0,1-1.99-.17Z" transform="translate(2.925 158.952)" fill="#c3d1da"/>
        <path id="Path_443" data-name="Path 443" d="M227.464,264.9a11.382,11.382,0,0,1,11.373-11.373h0A11.383,11.383,0,0,1,250.211,264.9h0a11.382,11.382,0,0,1-11.373,11.373h0A11.381,11.381,0,0,1,227.464,264.9Zm-56.866,0a11.382,11.382,0,0,1,11.373-11.373h0A11.37,11.37,0,0,1,193.344,264.9h0a11.369,11.369,0,0,1-11.373,11.373h0A11.381,11.381,0,0,1,170.6,264.9Zm-56.866,0a11.382,11.382,0,0,1,11.373-11.373h0A11.37,11.37,0,0,1,136.478,264.9h0a11.369,11.369,0,0,1-11.373,11.373h0A11.381,11.381,0,0,1,113.732,264.9Zm-56.866,0a11.382,11.382,0,0,1,11.373-11.373h0A11.37,11.37,0,0,1,79.612,264.9h0a11.369,11.369,0,0,1-11.373,11.373h0A11.381,11.381,0,0,1,56.866,264.9ZM0,264.9a11.382,11.382,0,0,1,11.373-11.373h0A11.37,11.37,0,0,1,22.746,264.9h0a11.369,11.369,0,0,1-11.373,11.373h0A11.381,11.381,0,0,1,0,264.9Z" transform="translate(0 192.358)" fill="#c3d1da"/>
        <path id="Path_444" data-name="Path 444" d="M4.031,327.943a11.359,11.359,0,0,1,9.213-13.174h0A11.346,11.346,0,0,1,26.417,324h0a11.369,11.369,0,0,1-9.211,13.175h0a11.854,11.854,0,0,1-1.99.17h0a11.366,11.366,0,0,1-11.185-9.4Zm55.994-9.876a11.371,11.371,0,0,1,9.231-13.174h0a11.368,11.368,0,0,1,13.174,9.232h0A11.4,11.4,0,0,1,73.2,327.3h0a11.873,11.873,0,0,1-1.99.17h0A11.381,11.381,0,0,1,60.025,318.067Zm56.013-9.876a11.36,11.36,0,0,1,9.213-13.174h0a11.349,11.349,0,0,1,13.174,9.232h0a11.37,11.37,0,0,1-9.213,13.174h0a12.192,12.192,0,0,1-1.99.17h0A11.366,11.366,0,0,1,116.038,308.192Zm55.995-9.876a11.368,11.368,0,0,1,9.231-13.174h0a11.382,11.382,0,0,1,13.174,9.231h0a11.4,11.4,0,0,1-9.232,13.174h0a11.838,11.838,0,0,1-1.99.17h0a11.368,11.368,0,0,1-11.184-9.4Zm55.994-9.876a11.4,11.4,0,0,1,9.231-13.174h0a11.386,11.386,0,0,1,13.174,9.231h0A11.367,11.367,0,0,1,241.2,297.67h0a11.675,11.675,0,0,1-1.99.172h0a11.4,11.4,0,0,1-11.185-9.4Z" transform="translate(2.925 208.721)" fill="#c3d1da"/>
        <path id="Path_445" data-name="Path 445" d="M15.978,389.076a11.366,11.366,0,0,1,6.8-14.578h0a11.371,11.371,0,0,1,14.577,6.786h0a11.366,11.366,0,0,1-6.8,14.577h0a11.232,11.232,0,0,1-3.887.7h0a11.406,11.406,0,0,1-10.691-7.486Zm53.436-19.45a11.365,11.365,0,0,1,6.8-14.576h0a11.368,11.368,0,0,1,14.576,6.786h0a11.377,11.377,0,0,1-6.8,14.576h0a11.227,11.227,0,0,1-3.886.7h0a11.4,11.4,0,0,1-10.69-7.488Zm53.434-19.448a11.4,11.4,0,0,1,6.8-14.6h0a11.4,11.4,0,0,1,14.578,6.806h0a11.365,11.365,0,0,1-6.8,14.576h0a11.153,11.153,0,0,1-3.886.7h0a11.41,11.41,0,0,1-10.692-7.488Zm53.435-19.466a11.4,11.4,0,0,1,6.806-14.577h0a11.39,11.39,0,0,1,14.578,6.8h0a11.374,11.374,0,0,1-6.806,14.577h0a11.121,11.121,0,0,1-3.885.681h0a11.379,11.379,0,0,1-10.692-7.486Zm53.434-19.45a11.379,11.379,0,0,1,6.806-14.576h0a11.379,11.379,0,0,1,14.576,6.8h0a11.373,11.373,0,0,1-6.8,14.578h0a11.124,11.124,0,0,1-3.885.681h0a11.382,11.382,0,0,1-10.691-7.488Z" transform="translate(11.602 224.584)" fill="#c3d1da"/>
        <path id="Path_446" data-name="Path 446" d="M35.492,446.425a11.381,11.381,0,0,1,4.168-15.544h0a11.356,11.356,0,0,1,15.525,4.171h0a11.348,11.348,0,0,1-4.152,15.525h0a11.3,11.3,0,0,1-5.686,1.535h0a11.384,11.384,0,0,1-9.854-5.686Zm49.244-28.433a11.4,11.4,0,0,1,4.171-15.544h0a11.353,11.353,0,0,1,15.523,4.171h0a11.347,11.347,0,0,1-4.151,15.525h0a11.289,11.289,0,0,1-5.668,1.535h0a11.4,11.4,0,0,1-9.874-5.687Zm49.247-28.433a11.4,11.4,0,0,1,4.168-15.544h0a11.4,11.4,0,0,1,15.544,4.17h0a11.37,11.37,0,0,1-4.17,15.525h0a11.3,11.3,0,0,1-5.687,1.535h0a11.384,11.384,0,0,1-9.853-5.685Zm49.264-28.433a11.376,11.376,0,0,1,4.152-15.544h0a11.381,11.381,0,0,1,15.544,4.17h0a11.372,11.372,0,0,1-4.17,15.525h0a11.242,11.242,0,0,1-5.668,1.534h0a11.366,11.366,0,0,1-9.857-5.686Zm49.229-28.433a11.4,11.4,0,0,1,4.168-15.544h0a11.381,11.381,0,0,1,15.544,4.171h0a11.37,11.37,0,0,1-4.171,15.525h0a11.3,11.3,0,0,1-5.687,1.534h0a11.383,11.383,0,0,1-9.853-5.685Z" transform="translate(25.772 239.473)" fill="#c3d1da"/>
        <path id="Path_447" data-name="Path 447" d="M61.978,498.249a11.364,11.364,0,0,1,1.4-16.018h0a11.364,11.364,0,0,1,16.018,1.4h0A11.365,11.365,0,0,1,78,499.653h0a11.245,11.245,0,0,1-7.3,2.671h0a11.348,11.348,0,0,1-8.721-4.074Zm43.56-36.546a11.364,11.364,0,0,1,1.4-16.018h0a11.4,11.4,0,0,1,16.036,1.385h0a11.419,11.419,0,0,1-1.4,16.036h0a11.416,11.416,0,0,1-7.318,2.653h0a11.385,11.385,0,0,1-8.719-4.056Zm43.56-36.546a11.385,11.385,0,0,1,1.4-16.036h0a11.386,11.386,0,0,1,16.036,1.4h0a11.365,11.365,0,0,1-1.422,16.018h0a11.236,11.236,0,0,1-7.3,2.673h0a11.385,11.385,0,0,1-8.719-4.058Zm43.577-36.565a11.36,11.36,0,0,1,1.385-16.016h0a11.386,11.386,0,0,1,16.036,1.4h0a11.364,11.364,0,0,1-1.4,16.018h0a11.289,11.289,0,0,1-7.317,2.673h0a11.275,11.275,0,0,1-8.7-4.077Zm43.56-36.545a11.386,11.386,0,0,1,1.4-16.036h0a11.4,11.4,0,0,1,16.016,1.4h0a11.386,11.386,0,0,1-1.4,16.036h0a11.374,11.374,0,0,1-7.317,2.654h0a11.318,11.318,0,0,1-8.7-4.056Z" transform="translate(45.005 252.932)" fill="#c3d1da"/>
        <path id="Path_448" data-name="Path 448" d="M94.626,543.009a11.386,11.386,0,0,1-1.4-16.036h0a11.4,11.4,0,0,1,16.036-1.4h0a11.386,11.386,0,0,1,1.4,16.036h0a11.385,11.385,0,0,1-8.719,4.056h0a11.415,11.415,0,0,1-7.319-2.654ZM131.19,499.43a11.364,11.364,0,0,1-1.4-16.018h0a11.364,11.364,0,0,1,16.018-1.4h0a11.386,11.386,0,0,1,1.4,16.036h0a11.392,11.392,0,0,1-8.721,4.057h0a11.24,11.24,0,0,1-7.3-2.673Zm36.546-43.56a11.361,11.361,0,0,1-1.4-16.016h0a11.366,11.366,0,0,1,16.018-1.4h0a11.364,11.364,0,0,1,1.4,16.018h0a11.285,11.285,0,0,1-8.719,4.074h0a11.274,11.274,0,0,1-7.3-2.673Zm36.545-43.558a11.381,11.381,0,0,1-1.383-16.018h0a11.365,11.365,0,0,1,16.018-1.4h0a11.362,11.362,0,0,1,1.4,16.018h0a11.343,11.343,0,0,1-8.719,4.076h0a11.441,11.441,0,0,1-7.316-2.673Zm36.565-43.56a11.361,11.361,0,0,1-1.4-16.018h0a11.364,11.364,0,0,1,16.016-1.4h0a11.364,11.364,0,0,1,1.4,16.018h0a11.389,11.389,0,0,1-8.719,4.056h0a11.322,11.322,0,0,1-7.3-2.654Z" transform="translate(68.712 264.546)" fill="#c3d1da"/>
        <path id="Path_449" data-name="Path 449" d="M132.457,579.308a11.394,11.394,0,0,1-4.171-15.542h0a11.4,11.4,0,0,1,15.544-4.171h0A11.4,11.4,0,0,1,148,575.139h0a11.4,11.4,0,0,1-9.876,5.687h0a11.4,11.4,0,0,1-5.668-1.518Zm28.434-49.264a11.37,11.37,0,0,1-4.17-15.525h0a11.4,11.4,0,0,1,15.544-4.17h0a11.4,11.4,0,0,1,4.171,15.544h0a11.39,11.39,0,0,1-9.857,5.687h0a11.247,11.247,0,0,1-5.687-1.534Zm28.433-49.229a11.371,11.371,0,0,1-4.152-15.542h0A11.354,11.354,0,0,1,200.7,461.1h0a11.4,11.4,0,0,1,4.171,15.544h0a11.39,11.39,0,0,1-9.857,5.687h0a11.472,11.472,0,0,1-5.687-1.518Zm28.433-49.264a11.348,11.348,0,0,1-4.152-15.525h0a11.354,11.354,0,0,1,15.525-4.171h0A11.4,11.4,0,0,1,233.3,427.4h0a11.412,11.412,0,0,1-9.857,5.687h0a11.3,11.3,0,0,1-5.688-1.535Zm28.432-49.247a11.368,11.368,0,0,1-4.17-15.523h0a11.379,11.379,0,0,1,15.544-4.171h0a11.4,11.4,0,0,1,4.17,15.544h0a11.4,11.4,0,0,1-9.876,5.687h0a11.231,11.231,0,0,1-5.666-1.535Z" transform="translate(96.182 273.966)" fill="#c3d1da"/>
        <path id="Path_450" data-name="Path 450" d="M174.3,606.05a11.37,11.37,0,0,1-6.784-14.578h0a11.352,11.352,0,0,1,14.557-6.8h0a11.358,11.358,0,0,1,6.8,14.577h0a11.382,11.382,0,0,1-10.69,7.488h0a11.661,11.661,0,0,1-3.887-.683Zm19.45-53.436a11.368,11.368,0,0,1-6.786-14.576h0a11.364,11.364,0,0,1,14.576-6.8h0a11.353,11.353,0,0,1,6.786,14.576h0a11.377,11.377,0,0,1-10.69,7.488h0A11.647,11.647,0,0,1,193.751,552.614ZM213.2,499.18a11.371,11.371,0,0,1-6.786-14.577h0a11.366,11.366,0,0,1,14.577-6.8h0a11.363,11.363,0,0,1,6.784,14.578h0a11.379,11.379,0,0,1-10.69,7.486h0a11.642,11.642,0,0,1-3.885-.681Zm19.448-53.435a11.385,11.385,0,0,1-6.786-14.6h0a11.355,11.355,0,0,1,14.578-6.784h0a11.356,11.356,0,0,1,6.786,14.576h0a11.364,11.364,0,0,1-10.692,7.488h0A11.646,11.646,0,0,1,232.647,445.745Zm19.448-53.454a11.356,11.356,0,0,1-6.786-14.576h0a11.357,11.357,0,0,1,14.577-6.786h0a11.356,11.356,0,0,1,6.786,14.577h0a11.343,11.343,0,0,1-10.69,7.486h0a11.237,11.237,0,0,1-3.887-.7Z" transform="translate(126.575 280.909)" fill="#c3d1da"/>
        <path id="Path_451" data-name="Path 451" d="M218.913,622.419a11.4,11.4,0,0,1-9.232-13.174h0a11.4,11.4,0,0,1,13.174-9.232h0a11.381,11.381,0,0,1,9.231,13.174h0a11.38,11.38,0,0,1-11.183,9.4h0A11.674,11.674,0,0,1,218.913,622.419Zm9.876-55.994a11.37,11.37,0,0,1-9.232-13.174h0a11.361,11.361,0,0,1,13.174-9.232h0a11.386,11.386,0,0,1,9.231,13.175h0a11.4,11.4,0,0,1-11.183,9.4h0a11.655,11.655,0,0,1-1.992-.17Zm9.876-56.013a11.372,11.372,0,0,1-9.23-13.174h0a11.4,11.4,0,0,1,13.173-9.231h0a11.382,11.382,0,0,1,9.232,13.174h0a11.363,11.363,0,0,1-11.183,9.4h0a11.852,11.852,0,0,1-1.992-.17Zm9.876-55.994a11.368,11.368,0,0,1-9.23-13.174h0a11.357,11.357,0,0,1,13.173-9.232h0a11.4,11.4,0,0,1,9.232,13.174h0a11.4,11.4,0,0,1-11.183,9.4h0a11.853,11.853,0,0,1-1.992-.171Zm9.876-56.013a11.349,11.349,0,0,1-9.23-13.175h0a11.357,11.357,0,0,1,13.173-9.213h0a11.376,11.376,0,0,1,9.231,13.174h0a11.383,11.383,0,0,1-11.2,9.383h0a11.8,11.8,0,0,1-1.972-.17Z" transform="translate(158.961 285.162)" fill="#c3d1da"/>
        <path id="Path_452" data-name="Path 452" d="M253.539,616.551a11.381,11.381,0,0,1,11.373-11.373h0a11.382,11.382,0,0,1,11.373,11.373h0a11.386,11.386,0,0,1-11.373,11.392h0A11.385,11.385,0,0,1,253.539,616.551Zm0-56.866a11.365,11.365,0,0,1,11.373-11.355h0a11.366,11.366,0,0,1,11.373,11.355h0a11.37,11.37,0,0,1-11.373,11.373h0a11.369,11.369,0,0,1-11.373-11.373Zm0-56.848a11.369,11.369,0,0,1,11.373-11.373h0a11.37,11.37,0,0,1,11.373,11.373h0a11.366,11.366,0,0,1-11.373,11.355h0a11.365,11.365,0,0,1-11.373-11.355Zm0-56.885a11.381,11.381,0,0,1,11.373-11.373h0a11.382,11.382,0,0,1,11.373,11.373h0a11.386,11.386,0,0,1-11.373,11.392h0A11.385,11.385,0,0,1,253.539,445.953Zm0-56.866a11.365,11.365,0,0,1,11.373-11.355h0a11.366,11.366,0,0,1,11.373,11.355h0a11.37,11.37,0,0,1-11.373,11.373h0a11.369,11.369,0,0,1-11.373-11.373Z" transform="translate(192.367 286.595)" fill="#c3d1da"/>
        <path id="Path_453" data-name="Path 453" d="M314.78,613.188a11.37,11.37,0,0,1,9.213-13.174h0a11.379,11.379,0,0,1,13.174,9.232h0a11.369,11.369,0,0,1-9.213,13.174h0a11.992,11.992,0,0,1-1.99.17h0a11.366,11.366,0,0,1-11.184-9.4ZM304.9,557.194a11.36,11.36,0,0,1,9.231-13.174h0a11.371,11.371,0,0,1,13.174,9.232h0a11.4,11.4,0,0,1-9.231,13.174h0a11.641,11.641,0,0,1-1.99.17h0a11.366,11.366,0,0,1-11.184-9.4Zm-9.876-56.013a11.369,11.369,0,0,1,9.232-13.174h0a11.4,11.4,0,0,1,13.174,9.232h0a11.387,11.387,0,0,1-9.231,13.174h0a11.843,11.843,0,0,1-1.99.17h0a11.366,11.366,0,0,1-11.184-9.4Zm-9.876-55.994a11.369,11.369,0,0,1,9.231-13.174h0a11.37,11.37,0,0,1,13.175,9.232h0a11.4,11.4,0,0,1-9.232,13.174h0a11.842,11.842,0,0,1-1.99.17h0a11.366,11.366,0,0,1-11.184-9.4Zm-9.876-55.994a11.362,11.362,0,0,1,9.231-13.174h0a11.37,11.37,0,0,1,13.174,9.213h0a11.365,11.365,0,0,1-9.232,13.174h0a11.853,11.853,0,0,1-1.99.17h0A11.364,11.364,0,0,1,275.277,389.193Z" transform="translate(208.728 285.162)" fill="#c3d1da"/>
        <path id="Path_454" data-name="Path 454" d="M374.51,599.245a11.365,11.365,0,0,1,6.786-14.577h0a11.368,11.368,0,0,1,14.578,6.8h0a11.37,11.37,0,0,1-6.786,14.578h0a11.674,11.674,0,0,1-3.906.683h0A11.341,11.341,0,0,1,374.51,599.245Zm-19.466-53.436a11.379,11.379,0,0,1,6.8-14.576h0a11.367,11.367,0,0,1,14.577,6.8h0a11.365,11.365,0,0,1-6.806,14.576h0a11.563,11.563,0,0,1-3.886.683h0a11.377,11.377,0,0,1-10.69-7.487ZM335.6,492.375a11.388,11.388,0,0,1,6.8-14.578h0a11.372,11.372,0,0,1,14.576,6.8h0a11.38,11.38,0,0,1-6.8,14.577h0a11.564,11.564,0,0,1-3.885.681h0a11.378,11.378,0,0,1-10.69-7.484Zm-19.45-53.436a11.38,11.38,0,0,1,6.806-14.576h0a11.361,11.361,0,0,1,14.576,6.784h0a11.393,11.393,0,0,1-6.8,14.6h0a11.567,11.567,0,0,1-3.885.683h0a11.381,11.381,0,0,1-10.692-7.488ZM296.7,385.5a11.366,11.366,0,0,1,6.8-14.577h0a11.363,11.363,0,0,1,14.577,6.786h0a11.38,11.38,0,0,1-6.8,14.576h0a11.232,11.232,0,0,1-3.885.7h0A11.409,11.409,0,0,1,296.7,385.5Z" transform="translate(224.592 280.909)" fill="#c3d1da"/>
        <path id="Path_455" data-name="Path 455" d="M430.9,575.138a11.38,11.38,0,0,1,4.17-15.544h0a11.368,11.368,0,0,1,15.523,4.171h0a11.373,11.373,0,0,1-4.151,15.542h0a11.478,11.478,0,0,1-5.687,1.518h0a11.385,11.385,0,0,1-9.857-5.687Zm-28.433-49.247a11.391,11.391,0,0,1,4.151-15.544h0a11.393,11.393,0,0,1,15.544,4.17h0a11.349,11.349,0,0,1-4.151,15.525h0a11.307,11.307,0,0,1-5.687,1.535h0a11.385,11.385,0,0,1-9.857-5.687Zm-28.433-49.244A11.391,11.391,0,0,1,378.18,461.1h0a11.376,11.376,0,0,1,15.544,4.171h0a11.335,11.335,0,0,1-4.17,15.523h0a11.182,11.182,0,0,1-5.666,1.536h0a11.386,11.386,0,0,1-9.858-5.688ZM345.6,427.4a11.379,11.379,0,0,1,4.171-15.544h0a11.352,11.352,0,0,1,15.523,4.171h0a11.349,11.349,0,0,1-4.151,15.525h0a11.305,11.305,0,0,1-5.687,1.535h0A11.385,11.385,0,0,1,345.6,427.4Zm-28.433-49.244a11.361,11.361,0,0,1,4.171-15.544h0a11.356,11.356,0,0,1,15.523,4.171h0a11.347,11.347,0,0,1-4.151,15.523h0a11.308,11.308,0,0,1-5.687,1.536h0a11.385,11.385,0,0,1-9.857-5.687Z" transform="translate(239.48 273.967)" fill="#c3d1da"/>
        <path id="Path_456" data-name="Path 456" d="M482.243,541.606a11.386,11.386,0,0,1,1.4-16.036h0a11.381,11.381,0,0,1,16.018,1.4h0a11.387,11.387,0,0,1-1.4,16.036h0a11.328,11.328,0,0,1-7.3,2.653h0a11.361,11.361,0,0,1-8.72-4.056Zm-36.565-43.56a11.4,11.4,0,0,1,1.4-16.036h0a11.387,11.387,0,0,1,16.036,1.4h0a11.364,11.364,0,0,1-1.4,16.018h0A11.324,11.324,0,0,1,454.4,502.1h0a11.391,11.391,0,0,1-8.721-4.058Zm-36.545-43.577a11.365,11.365,0,0,1,1.4-16.018h0a11.364,11.364,0,0,1,16.018,1.4h0a11.361,11.361,0,0,1-1.4,16.016h0a11.234,11.234,0,0,1-7.3,2.673h0a11.341,11.341,0,0,1-8.719-4.075Zm-36.546-43.56a11.364,11.364,0,0,1,1.4-16.018h0a11.361,11.361,0,0,1,16.016,1.4h0a11.362,11.362,0,0,1-1.4,16.018h0a11.389,11.389,0,0,1-7.3,2.673h0a11.288,11.288,0,0,1-8.719-4.077ZM336.022,367.35a11.4,11.4,0,0,1,1.4-16.018h0a11.388,11.388,0,0,1,16.036,1.4h0a11.364,11.364,0,0,1-1.4,16.018h0a11.37,11.37,0,0,1-7.317,2.654h0a11.392,11.392,0,0,1-8.719-4.056Z" transform="translate(252.94 264.546)" fill="#c3d1da"/>
        <path id="Path_457" data-name="Path 457" d="M526.983,499.653a11.364,11.364,0,0,1-1.4-16.018h0a11.366,11.366,0,0,1,16.018-1.4h0a11.366,11.366,0,0,1,1.422,16.018h0a11.345,11.345,0,0,1-8.721,4.074h0a11.332,11.332,0,0,1-7.316-2.671Zm-43.56-36.546a11.383,11.383,0,0,1-1.4-16.036h0a11.379,11.379,0,0,1,16.016-1.385h0a11.364,11.364,0,0,1,1.4,16.018h0a11.327,11.327,0,0,1-8.719,4.056h0A11.331,11.331,0,0,1,483.423,463.107Zm-43.558-36.565a11.363,11.363,0,0,1-1.4-16.018h0a11.364,11.364,0,0,1,16.018-1.4h0a11.386,11.386,0,0,1,1.4,16.036h0a11.326,11.326,0,0,1-8.7,4.058h0a11.253,11.253,0,0,1-7.316-2.673ZM396.3,390a11.361,11.361,0,0,1-1.4-16.018h0a11.361,11.361,0,0,1,16.016-1.4h0a11.361,11.361,0,0,1,1.4,16.016h0a11.337,11.337,0,0,1-8.719,4.076h0a11.242,11.242,0,0,1-7.3-2.673Zm-43.559-36.546a11.387,11.387,0,0,1-1.4-16.036h0a11.4,11.4,0,0,1,16.018-1.4h0a11.386,11.386,0,0,1,1.4,16.036h0a11.39,11.39,0,0,1-8.721,4.056h0a11.321,11.321,0,0,1-7.3-2.655Z" transform="translate(264.554 252.932)" fill="#c3d1da"/>
        <path id="Path_458" data-name="Path 458" d="M563.776,450.575A11.354,11.354,0,0,1,559.6,435.05h0a11.381,11.381,0,0,1,15.544-4.171h0a11.376,11.376,0,0,1,4.152,15.544h0a11.365,11.365,0,0,1-9.857,5.687h0a11.187,11.187,0,0,1-5.668-1.535Zm-49.247-28.433a11.355,11.355,0,0,1-4.168-15.525h0a11.4,11.4,0,0,1,15.542-4.171h0a11.374,11.374,0,0,1,4.152,15.544h0a11.365,11.365,0,0,1-9.857,5.687h0a11.191,11.191,0,0,1-5.669-1.535Zm-49.244-28.433a11.354,11.354,0,0,1-4.17-15.525h0a11.4,11.4,0,0,1,15.544-4.17h0a11.374,11.374,0,0,1,4.151,15.544h0a11.384,11.384,0,0,1-9.855,5.686h0a11.181,11.181,0,0,1-5.669-1.534Zm-49.247-28.433a11.355,11.355,0,0,1-4.168-15.525h0a11.379,11.379,0,0,1,15.542-4.17h0a11.374,11.374,0,0,1,4.152,15.544h0a11.388,11.388,0,0,1-9.857,5.686h0a11.192,11.192,0,0,1-5.669-1.534Zm-49.244-28.433a11.354,11.354,0,0,1-4.171-15.525h0a11.393,11.393,0,0,1,15.544-4.171h0a11.39,11.39,0,0,1,4.151,15.544h0a11.384,11.384,0,0,1-9.855,5.687h0a11.183,11.183,0,0,1-5.67-1.534Z" transform="translate(273.975 239.475)" fill="#c3d1da"/>
        <path id="Path_459" data-name="Path 459" d="M591.485,395.862a11.35,11.35,0,0,1-6.8-14.577h0a11.361,11.361,0,0,1,14.576-6.786h0a11.381,11.381,0,0,1,6.8,14.578h0a11.4,11.4,0,0,1-10.69,7.486h0a11.143,11.143,0,0,1-3.884-.7Zm-53.454-19.45a11.361,11.361,0,0,1-6.786-14.576h0a11.355,11.355,0,0,1,14.578-6.786h0a11.354,11.354,0,0,1,6.784,14.576h0a11.361,11.361,0,0,1-10.672,7.488h0A11.252,11.252,0,0,1,538.031,376.413ZM484.6,356.965a11.357,11.357,0,0,1-6.786-14.576h0a11.356,11.356,0,0,1,14.578-6.786h0a11.354,11.354,0,0,1,6.786,14.576h0a11.39,11.39,0,0,1-10.69,7.488h0A11.241,11.241,0,0,1,484.6,356.965Zm-53.434-19.448a11.387,11.387,0,0,1-6.8-14.577h0a11.409,11.409,0,0,1,14.594-6.8h0a11.369,11.369,0,0,1,6.786,14.578h0a11.379,11.379,0,0,1-10.69,7.486h0a11.2,11.2,0,0,1-3.885-.681ZM377.725,318.07a11.366,11.366,0,0,1-6.786-14.578h0a11.381,11.381,0,0,1,14.577-6.8h0a11.371,11.371,0,0,1,6.786,14.576h0a11.382,11.382,0,0,1-10.692,7.488h0A11.206,11.206,0,0,1,377.725,318.07Z" transform="translate(280.916 224.585)" fill="#c3d1da"/>
        <path id="Path_460" data-name="Path 460" d="M609.263,337.175A11.382,11.382,0,0,1,600.032,324h0a11.366,11.366,0,0,1,13.173-9.231h0a11.372,11.372,0,0,1,9.231,13.174h0a11.38,11.38,0,0,1-11.182,9.4h0A11.83,11.83,0,0,1,609.263,337.175ZM553.249,327.3a11.369,11.369,0,0,1-9.211-13.174h0a11.37,11.37,0,0,1,13.174-9.232h0a11.358,11.358,0,0,1,9.211,13.174h0a11.366,11.366,0,0,1-11.182,9.4h0a12.2,12.2,0,0,1-1.992-.17Zm-55.994-9.876a11.4,11.4,0,0,1-9.23-13.174h0a11.365,11.365,0,0,1,13.173-9.232h0a11.381,11.381,0,0,1,9.232,13.174h0a11.366,11.366,0,0,1-11.183,9.4h0a11.864,11.864,0,0,1-1.992-.17Zm-55.994-9.876a11.368,11.368,0,0,1-9.23-13.174h0a11.369,11.369,0,0,1,13.173-9.231h0a11.394,11.394,0,0,1,9.231,13.174h0a11.4,11.4,0,0,1-11.2,9.4h0A11.8,11.8,0,0,1,441.26,307.548Zm-56.013-9.878a11.4,11.4,0,0,1-9.231-13.173h0a11.381,11.381,0,0,1,13.174-9.231h0a11.367,11.367,0,0,1,9.231,13.174h0a11.368,11.368,0,0,1-11.184,9.4h0A11.686,11.686,0,0,1,385.248,297.67Z" transform="translate(285.164 208.72)" fill="#c3d1da"/>
        <path id="Path_461" data-name="Path 461" d="M605.188,264.9a11.383,11.383,0,0,1,11.373-11.373h0A11.37,11.37,0,0,1,627.935,264.9h0a11.369,11.369,0,0,1-11.373,11.373h0A11.382,11.382,0,0,1,605.188,264.9Zm-56.866,0A11.383,11.383,0,0,1,559.7,253.527h0A11.37,11.37,0,0,1,571.069,264.9h0A11.369,11.369,0,0,1,559.7,276.274h0A11.382,11.382,0,0,1,548.322,264.9Zm-56.866,0a11.383,11.383,0,0,1,11.373-11.373h0A11.37,11.37,0,0,1,514.2,264.9h0a11.369,11.369,0,0,1-11.373,11.373h0A11.382,11.382,0,0,1,491.456,264.9Zm-56.866,0a11.383,11.383,0,0,1,11.373-11.373h0A11.37,11.37,0,0,1,457.336,264.9h0a11.369,11.369,0,0,1-11.373,11.373h0A11.382,11.382,0,0,1,434.59,264.9Zm-56.847,0A11.368,11.368,0,0,1,389.1,253.528h0A11.37,11.37,0,0,1,400.47,264.9h0A11.369,11.369,0,0,1,389.1,276.274h0A11.366,11.366,0,0,1,377.742,264.9Z" transform="translate(286.603 192.358)" fill="#c3d1da"/>
        <path id="Path_462" data-name="Path 462" d="M376.016,262.348a11.4,11.4,0,0,1,9.231-13.174h0a11.375,11.375,0,0,1,13.174,9.232h0a11.368,11.368,0,0,1-9.232,13.174h0a11.774,11.774,0,0,1-1.971.17h0A11.4,11.4,0,0,1,376.016,262.348Zm56.015-9.876a11.368,11.368,0,0,1,9.23-13.174h0a11.382,11.382,0,0,1,13.174,9.232h0A11.4,11.4,0,0,1,445.2,261.7h0a12,12,0,0,1-1.99.17h0a11.366,11.366,0,0,1-11.183-9.4Zm55.994-9.876a11.4,11.4,0,0,1,9.23-13.174h0a11.383,11.383,0,0,1,13.174,9.231h0a11.382,11.382,0,0,1-9.232,13.174h0a11.822,11.822,0,0,1-1.99.17h0a11.4,11.4,0,0,1-11.183-9.4Zm56.013-9.876a11.369,11.369,0,0,1,9.211-13.174h0a11.363,11.363,0,0,1,13.174,9.232h0a11.369,11.369,0,0,1-9.211,13.174h0a11.863,11.863,0,0,1-1.992.17h0a11.366,11.366,0,0,1-11.183-9.4Zm55.994-9.876a11.382,11.382,0,0,1,9.231-13.174h0a11.4,11.4,0,0,1,13.173,9.232h0a11.372,11.372,0,0,1-9.231,13.174h0a11.814,11.814,0,0,1-1.99.17h0a11.38,11.38,0,0,1-11.183-9.4Z" transform="translate(285.164 158.953)" fill="#c3d1da"/>
        <path id="Path_463" data-name="Path 463" d="M370.939,259.876a11.365,11.365,0,0,1,6.786-14.577h0a11.372,11.372,0,0,1,14.578,6.786h0a11.385,11.385,0,0,1-6.786,14.6h0a11.677,11.677,0,0,1-3.906.683h0a11.34,11.34,0,0,1-10.672-7.488Zm53.417-19.448a11.379,11.379,0,0,1,6.8-14.578h0a11.355,11.355,0,0,1,14.576,6.786h0a11.353,11.353,0,0,1-6.786,14.576h0a11.246,11.246,0,0,1-3.9.7h0a11.4,11.4,0,0,1-10.69-7.486Zm53.453-19.45A11.356,11.356,0,0,1,484.6,206.4h0a11.355,11.355,0,0,1,14.577,6.786h0a11.354,11.354,0,0,1-6.786,14.576h0a11.228,11.228,0,0,1-3.886.7h0a11.39,11.39,0,0,1-10.692-7.488Zm53.436-19.448a11.357,11.357,0,0,1,6.786-14.577h0a11.356,11.356,0,0,1,14.576,6.786h0a11.356,11.356,0,0,1-6.784,14.578h0a11.239,11.239,0,0,1-3.887.7h0a11.37,11.37,0,0,1-10.691-7.488Zm53.436-19.448a11.349,11.349,0,0,1,6.8-14.578h0a11.371,11.371,0,0,1,14.576,6.786h0a11.381,11.381,0,0,1-6.8,14.577h0a11.226,11.226,0,0,1-3.885.7h0a11.406,11.406,0,0,1-10.69-7.488Z" transform="translate(280.916 126.567)" fill="#c3d1da"/>
        <path id="Path_464" data-name="Path 464" d="M362.622,257.549a11.379,11.379,0,0,1,4.171-15.544h0a11.372,11.372,0,0,1,15.523,4.17h0a11.388,11.388,0,0,1-4.151,15.542h0a11.478,11.478,0,0,1-5.687,1.518h0a11.387,11.387,0,0,1-9.856-5.686Zm49.247-28.432a11.355,11.355,0,0,1,4.168-15.525h0a11.352,11.352,0,0,1,15.525,4.152h0a11.373,11.373,0,0,1-4.152,15.542h0a11.466,11.466,0,0,1-5.687,1.518h0a11.345,11.345,0,0,1-9.855-5.687Zm49.244-28.433a11.354,11.354,0,0,1,4.17-15.525h0a11.346,11.346,0,0,1,15.523,4.152h0a11.372,11.372,0,0,1-4.151,15.542h0a11.476,11.476,0,0,1-5.687,1.518h0a11.348,11.348,0,0,1-9.856-5.688Zm49.247-28.433a11.381,11.381,0,0,1,4.168-15.544h0a11.37,11.37,0,0,1,15.525,4.171h0a11.372,11.372,0,0,1-4.152,15.542h0a11.465,11.465,0,0,1-5.687,1.518h0a11.384,11.384,0,0,1-9.853-5.686ZM559.6,143.818a11.354,11.354,0,0,1,4.171-15.525h0a11.348,11.348,0,0,1,15.525,4.152h0a11.374,11.374,0,0,1-4.152,15.542h0a11.477,11.477,0,0,1-5.687,1.518h0a11.348,11.348,0,0,1-9.856-5.688Z" transform="translate(273.974 96.177)" fill="#c3d1da"/>
        <path id="Path_465" data-name="Path 465" d="M351.343,255.462a11.387,11.387,0,0,1,1.4-16.036h0a11.366,11.366,0,0,1,16.018,1.4h0a11.364,11.364,0,0,1-1.4,16.018h0a11.241,11.241,0,0,1-7.3,2.673h0a11.33,11.33,0,0,1-8.719-4.058ZM394.9,218.9a11.36,11.36,0,0,1,1.4-16.016h0a11.363,11.363,0,0,1,16.018,1.4h0a11.364,11.364,0,0,1-1.4,16.018h0a11.317,11.317,0,0,1-7.3,2.654h0A11.385,11.385,0,0,1,394.9,218.9Zm43.558-36.545a11.386,11.386,0,0,1,1.4-16.036h0a11.381,11.381,0,0,1,16.018,1.4h0a11.386,11.386,0,0,1-1.4,16.036h0a11.322,11.322,0,0,1-7.3,2.654h0a11.385,11.385,0,0,1-8.719-4.056Zm43.56-36.565a11.362,11.362,0,0,1,1.4-16.018h0a11.364,11.364,0,0,1,16.018,1.4h0a11.361,11.361,0,0,1-1.4,16.016h0a11.236,11.236,0,0,1-7.3,2.673h0A11.341,11.341,0,0,1,482.022,145.787Zm43.558-36.546a11.364,11.364,0,0,1,1.4-16.018h0A11.363,11.363,0,0,1,543,94.627h0a11.361,11.361,0,0,1-1.385,16.018h0A11.415,11.415,0,0,1,534.3,113.3h0a11.385,11.385,0,0,1-8.719-4.056Z" transform="translate(264.554 68.711)" fill="#c3d1da"/>
        <path id="Path_466" data-name="Path 466" d="M337.425,253.644a11.4,11.4,0,0,1-1.4-16.018h0a11.385,11.385,0,0,1,16.036-1.4h0a11.379,11.379,0,0,1,1.4,16.016h0a11.331,11.331,0,0,1-8.721,4.058h0a11.407,11.407,0,0,1-7.316-2.655Zm36.545-43.559a11.382,11.382,0,0,1-1.383-16.018h0a11.364,11.364,0,0,1,16.018-1.4h0a11.361,11.361,0,0,1,1.4,16.018h0a11.382,11.382,0,0,1-8.719,4.056h0a11.418,11.418,0,0,1-7.318-2.653Zm36.565-43.56a11.385,11.385,0,0,1-1.4-16.036h0a11.4,11.4,0,0,1,16.016-1.4h0a11.407,11.407,0,0,1,1.422,16.036h0a11.394,11.394,0,0,1-8.737,4.058h0a11.322,11.322,0,0,1-7.3-2.655Zm36.546-43.558a11.406,11.406,0,0,1-1.4-16.038h0a11.388,11.388,0,0,1,16.036-1.4h0a11.386,11.386,0,0,1,1.4,16.036h0a11.383,11.383,0,0,1-8.719,4.056h0a11.417,11.417,0,0,1-7.319-2.653Zm36.565-43.579a11.363,11.363,0,0,1-1.4-16.018h0a11.364,11.364,0,0,1,16.018-1.4h0A11.387,11.387,0,0,1,499.663,78h0a11.388,11.388,0,0,1-8.72,4.058h0a11.24,11.24,0,0,1-7.3-2.673Z" transform="translate(252.94 44.997)" fill="#c3d1da"/>
        <path id="Path_467" data-name="Path 467" d="M321.312,252.176a11.391,11.391,0,0,1-4.151-15.544h0a11.374,11.374,0,0,1,15.544-4.151h0A11.347,11.347,0,0,1,336.856,248h0A11.345,11.345,0,0,1,327,253.691h0a11.474,11.474,0,0,1-5.687-1.516Zm28.453-49.247a11.377,11.377,0,0,1-4.171-15.542h0a11.391,11.391,0,0,1,15.544-4.171h0a11.375,11.375,0,0,1,4.151,15.544h0a11.348,11.348,0,0,1-9.857,5.687h0a11.348,11.348,0,0,1-5.667-1.518ZM378.2,153.685a11.379,11.379,0,0,1-4.17-15.544h0a11.4,11.4,0,0,1,15.544-4.17h0a11.375,11.375,0,0,1,4.151,15.544h0a11.348,11.348,0,0,1-9.857,5.687h0a11.346,11.346,0,0,1-5.666-1.516Zm28.433-49.247a11.377,11.377,0,0,1-4.17-15.542h0A11.4,11.4,0,0,1,418,84.725h0a11.375,11.375,0,0,1,4.151,15.544h0a11.348,11.348,0,0,1-9.857,5.686h0a11.349,11.349,0,0,1-5.667-1.518Zm28.412-49.264a11.365,11.365,0,0,1-4.151-15.525h0a11.4,11.4,0,0,1,15.544-4.17h0a11.375,11.375,0,0,1,4.151,15.544h0a11.387,11.387,0,0,1-9.857,5.687h0a11.307,11.307,0,0,1-5.686-1.534Z" transform="translate(239.481 25.766)" fill="#c3d1da"/>
        <path id="Path_468" data-name="Path 468" d="M303.5,251.09a11.373,11.373,0,0,1-6.8-14.577h0a11.373,11.373,0,0,1,14.577-6.786h0a11.366,11.366,0,0,1,6.8,14.578h0a11.389,11.389,0,0,1-10.69,7.467h0a11.123,11.123,0,0,1-3.887-.681Zm19.449-53.436a11.38,11.38,0,0,1-6.806-14.576h0a11.4,11.4,0,0,1,14.578-6.8h0a11.379,11.379,0,0,1,6.8,14.576h0a11.378,11.378,0,0,1-10.69,7.488h0A11.189,11.189,0,0,1,322.953,197.654ZM342.4,144.22a11.4,11.4,0,0,1-6.8-14.578h0a11.392,11.392,0,0,1,14.594-6.8h0a11.386,11.386,0,0,1,6.786,14.578h0a11.379,11.379,0,0,1-10.69,7.486h0A11.2,11.2,0,0,1,342.4,144.22Zm19.448-53.436a11.361,11.361,0,0,1-6.786-14.576h0A11.368,11.368,0,0,1,369.62,69.4h0a11.382,11.382,0,0,1,6.806,14.578h0a11.382,11.382,0,0,1-10.692,7.488h0a11.649,11.649,0,0,1-3.885-.684ZM381.3,37.35a11.373,11.373,0,0,1-6.786-14.577h0a11.366,11.366,0,0,1,14.578-6.8h0a11.369,11.369,0,0,1,6.786,14.576h0a11.382,11.382,0,0,1-10.692,7.488h0a11.2,11.2,0,0,1-3.886-.681Z" transform="translate(224.591 11.594)" fill="#c3d1da"/>
        <path id="Path_469" data-name="Path 469" d="M284.51,250.42a11.346,11.346,0,0,1-9.231-13.173h0a11.359,11.359,0,0,1,13.174-9.213h0a11.378,11.378,0,0,1,9.232,13.174h0a11.38,11.38,0,0,1-11.184,9.383h0a11.643,11.643,0,0,1-1.99-.172Zm9.876-55.992a11.374,11.374,0,0,1-9.231-13.174h0a11.386,11.386,0,0,1,13.174-9.231h0A11.4,11.4,0,0,1,307.56,185.2h0a11.4,11.4,0,0,1-11.185,9.4h0A11.839,11.839,0,0,1,294.385,194.428Zm9.876-56.015a11.339,11.339,0,0,1-9.232-13.154h0a11.358,11.358,0,0,1,13.174-9.231h0a11.386,11.386,0,0,1,9.231,13.174h0a11.4,11.4,0,0,1-11.185,9.4h0a10.062,10.062,0,0,1-1.99-.19Zm9.876-55.994a11.357,11.357,0,0,1-9.231-13.173h0a11.385,11.385,0,0,1,13.174-9.231h0a11.4,11.4,0,0,1,9.231,13.173h0a11.4,11.4,0,0,1-11.2,9.4h0a11.593,11.593,0,0,1-1.971-.171Zm9.857-55.994a11.368,11.368,0,0,1-9.213-13.173h0A11.358,11.358,0,0,1,327.955,4.02h0a11.385,11.385,0,0,1,9.232,13.174h0a11.4,11.4,0,0,1-11.2,9.4h0a11.991,11.991,0,0,1-1.99-.171Z" transform="translate(208.727 2.917)" fill="#c3d1da"/>
      </g>
    </g>
  </g>
</svg>
