<?xml version="1.0" encoding="utf-8"?>
<!-- Generator: Adobe Illustrator 23.0.1, SVG Export Plug-In . SVG Version: 6.00 Build 0)  -->
<svg version="1.1" id="Layer_1" xmlns="http://www.w3.org/2000/svg" xmlns:xlink="http://www.w3.org/1999/xlink" x="0px" y="0px"
	 viewBox="0 0 284 86" style="enable-background:new 0 0 284 86;" xml:space="preserve">
<style type="text/css">
	.st0{fill:#575B6D;}
	.st1{fill:#EEEFEE;}
	.st2{fill:#414451;}
	.st3{fill:#FFFFFF;}
	.st4{fill:#EF5261;}
	.st5{fill:#F9BD55;}
	.st6{fill:#F4DBCE;}
	.st7{fill:#52565B;}
	.st8{fill:#FD605B;}
	.st9{fill:#F98080;}
	.st10{fill:#F9E63A;}
	.st11{fill:#039BE6;}
	.st12{fill:#9CF2F2;}
	.st13{fill:#7F1C39;}
	.st14{fill:#510823;}
</style>
<g>
	<path d="M81.8,83.9c-1.5,0.3-2.8,0.4-3.9,0.3s-2.1-0.3-3.1-0.6l-0.7-3.4h0.2c1.1,0.7,2.2,1.1,3.4,1.4c1.2,0.2,2.4,0.3,3.4,0.1
		c1.5-0.3,2.6-0.8,3.2-1.6c0.6-0.8,0.9-1.7,0.7-2.7c-0.2-0.8-0.5-1.4-1-1.9c-0.5-0.4-1.2-0.7-2.1-0.8c-0.7-0.1-1.3-0.1-1.8-0.1
		s-1.2-0.1-2.1-0.1c-0.7,0-1.4-0.2-2-0.3c-0.6-0.2-1.2-0.5-1.7-0.8C73.8,73,73.4,72.6,73,72s-0.6-1.2-0.8-2
		c-0.3-1.7,0.1-3.2,1.1-4.5s2.6-2.2,4.6-2.6c1.1-0.2,2.2-0.3,3.3-0.3s2.1,0.2,3,0.4l0.6,3.3h-0.2c-0.8-0.5-1.7-0.8-2.8-1.1
		c-1.1-0.2-2.2-0.3-3.3,0c-1.3,0.2-2.2,0.7-2.9,1.5s-0.9,1.6-0.7,2.6c0.2,0.9,0.5,1.5,1.1,1.9s1.3,0.7,2.2,0.7
		c0.6,0,1.3,0.1,2.2,0.1c0.9,0,1.6,0.1,2.2,0.1c1.5,0.2,2.6,0.6,3.5,1.4s1.3,1.8,1.6,3c0.2,0.8,0.1,1.6,0,2.5
		c-0.2,0.8-0.5,1.6-1,2.2c-0.5,0.7-1.2,1.3-2,1.8S83.1,83.7,81.8,83.9z"/>
	<g>
		<path d="M125.8,84.2c-1.3-0.2-2.5-0.7-3.6-1.3c-1-0.7-1.9-1.5-2.5-2.5c-0.7-1-1.1-2.3-1.3-3.7c-0.2-1.4-0.2-3,0.1-4.7
			c0.3-1.7,0.8-3.2,1.5-4.4c0.7-1.2,1.5-2.2,2.5-3c1-0.8,2.1-1.3,3.3-1.6s2.5-0.3,3.9,0c0.7,0.1,1.3,0.3,1.9,0.5
			c0.6,0.2,1.1,0.4,1.6,0.7c0.4,0.2,0.8,0.5,1.3,0.8s0.8,0.6,1.2,0.9l-0.6,3.3h-0.2c-0.2-0.3-0.5-0.6-0.8-1s-0.7-0.8-1.2-1.2
			c-0.5-0.4-1-0.7-1.6-1s-1.3-0.5-2.1-0.7c-0.9-0.2-1.7-0.1-2.6,0.1c-0.8,0.2-1.6,0.6-2.3,1.2c-0.7,0.6-1.3,1.4-1.8,2.4
			s-0.9,2.2-1.1,3.5c-0.3,1.4-0.3,2.6-0.1,3.7s0.5,2,0.9,2.8s1,1.4,1.7,1.9s1.5,0.8,2.4,1c0.8,0.1,1.5,0.2,2.2,0.1
			c0.7-0.1,1.3-0.2,1.9-0.4c0.6-0.2,1-0.4,1.5-0.6c0.4-0.2,0.8-0.4,1-0.6h0.2l-0.6,3.2c-0.5,0.1-0.9,0.3-1.4,0.4s-1,0.2-1.6,0.3
			c-0.6,0.1-1.2,0.1-1.7,0.1C127.2,84.4,126.6,84.3,125.8,84.2z"/>
	</g>
	<path d="M145.7,84.1l-8.1,0.6l-0.2-2.1l2.6-0.2l-1.2-16.5l-2.6,0.2L136,64l8.1-0.6l0.2,2.1l-2.6,0.2l1.2,16.5l2.6-0.2L145.7,84.1z"
		/>
	<path d="M148,84.5l1.1-20.8l13,0.7l-0.1,2.5l-10.2-0.6l-0.3,5.7l9.5,0.5l-0.1,2.5l-9.5-0.5l-0.4,7.7l10.2,0.6l-0.1,2.5L148,84.5z"
		/>
	<path d="M171.9,84.9V66.5h-7V64h16.7v2.5h-7v18.4H171.9z"/>
	<path d="M200.6,65l-8.1,10.9l-0.9,9.2l-2.8-0.3l0.9-8.9l-5.8-12.5l3.1,0.3l4.4,9.7l6.3-8.6L200.6,65z"/>
	<g id="icon">
		<path class="st0" d="M115.9,67.6c0,0,2.8,5.5,1.6,11c-0.7,3.2-3.7,5.1-6.8,6.3c-5,1.8-10.5,1.8-15.5,0c-3.1-1.1-6.1-3.1-6.8-6.3
			c-1.2-5.6,1.6-11,1.6-11c-1.2-3.4-3.2-10-1.2-11.4c2.8-1.9,7.9,4.7,7.9,4.7c2.6-1.7,6.3-1.4,6.3-1.4s3.6-0.4,6.3,1.4
			c0,0,5.2-6.6,7.9-4.7C119.1,57.6,117.1,64.3,115.9,67.6z"/>
		<path class="st1" d="M111.3,68c0,0,0,2.6-1.3,3.4c-1.4,0.8-3.6-0.5-3.6-0.5s0-2.6,1.3-3.4C109.1,66.7,111.3,68,111.3,68L111.3,68z
			"/>
		<path class="st2" d="M109.9,69.5c0,0.7-0.4,1.3-1.1,1.7c-0.6-0.4-1-1-1.1-1.7c0-0.7,0.4-1.4,1.1-1.7
			C109.5,68.1,109.9,68.7,109.9,69.5z"/>
		<path class="st2" d="M113.9,65.7c-0.8-1.7-3-2.7-3.7-3c-0.1,0-0.1-0.1-0.1-0.2l0,0c0.6-0.8,3.1-4,4.9-4.2c0.1,0,0.2,0,0.3,0.2
			c0.3,0.5,0.9,2.3-1.2,7.3C114.2,65.8,114.1,65.8,113.9,65.7C114,65.7,113.9,65.7,113.9,65.7z"/>
		<path class="st1" d="M94.4,68c0,0,0,2.6,1.3,3.4c1.4,0.8,3.6-0.5,3.6-0.5s0-2.6-1.3-3.4S94.4,68,94.4,68L94.4,68z"/>
		<path class="st2" d="M95.9,69.5c0,0.7,0.4,1.3,1.1,1.7c0.6-0.4,1-1,1.1-1.7c0-0.7-0.4-1.4-1.1-1.7C96.3,68.1,95.9,68.7,95.9,69.5z
			"/>
		<path class="st2" d="M91.8,65.7c0.8-1.7,3-2.7,3.7-3c0.1,0,0.1-0.1,0.1-0.2l0,0c-0.6-0.8-3.1-4-4.9-4.2c-0.1,0-0.2,0-0.3,0.2
			c-0.3,0.5-0.9,2.3,1.2,7.3C91.6,65.8,91.7,65.8,91.8,65.7L91.8,65.7z"/>
		<path class="st1" d="M117.5,78.7c-0.7,3.2-3.7,5.1-6.8,6.3c-5,1.8-10.5,1.8-15.5,0c-3.1-1.1-6.1-3.1-6.8-6.3l3.9-1
			c3.6-0.9,6.5-3.5,7.9-7v-0.1c0.3-0.8,0.9-1.5,1.5-2.1c0.7-0.6,1.6-0.6,2.3,0c0.7,0.6,1.2,1.3,1.5,2.1v0.1c1.4,3.4,4.3,6,7.9,7
			L117.5,78.7z"/>
		<g>
			<path class="st3" d="M121.4,77.1C121.3,77.1,121.3,77.1,121.4,77.1c-4.9-3.3-12.2-0.2-12.3-0.2H109v-0.1l0,0
				C109.1,76.8,116.5,73.7,121.4,77.1C121.4,77,121.4,77,121.4,77.1L121.4,77.1L121.4,77.1z"/>
			<path class="st3" d="M121.1,80.2L121.1,80.2c-3.6-4.8-11.2-2.5-11.3-2.5h-0.1v-0.1C109.8,77.6,117.5,75.3,121.1,80.2
				C121.2,80.2,121.2,80.2,121.1,80.2L121.1,80.2L121.1,80.2z"/>
			<path class="st3" d="M120.1,81.9C120,81.9,120,81.9,120.1,81.9c-3.6-4.7-11.2-2.9-11.3-2.8h-0.1V79
				C108.8,79,116.5,77.1,120.1,81.9C120.1,81.8,120.1,81.9,120.1,81.9L120.1,81.9L120.1,81.9z"/>
			<path class="st3" d="M84.4,77.1C84.4,77.1,84.3,77.1,84.4,77.1C84.3,77,84.4,77,84.4,77.1c4.9-3.4,12.3-0.3,12.4-0.3
				c0,0,0,0,0,0.1l0,0c0,0,0,0-0.1,0C96.6,76.9,89.3,73.8,84.4,77.1L84.4,77.1L84.4,77.1z"/>
			<path class="st3" d="M84.6,80.2L84.6,80.2C84.6,80.1,84.6,80.1,84.6,80.2c3.6-4.9,11.3-2.6,11.3-2.6s0,0,0,0.1c0,0,0,0-0.1,0l0,0
				C95.9,77.7,88.3,75.4,84.6,80.2C84.7,80.2,84.7,80.2,84.6,80.2L84.6,80.2z"/>
			<path class="st3" d="M85.7,81.9C85.7,81.9,85.6,81.9,85.7,81.9C85.6,81.8,85.6,81.8,85.7,81.9c3.6-4.8,11.2-3,11.3-2.9
				c0,0,0,0,0,0.1c0,0,0,0-0.1,0C96.9,79.1,89.3,77.2,85.7,81.9L85.7,81.9z"/>
		</g>
		<path class="st2" d="M102.7,74.8v1.9c0,0-3.9,2.1-3.4,2.6s3.6-2.3,3.6-2.3c0,0.1,3,2.7,3.6,2.3c0.5-0.5-3.4-2.6-3.4-2.6v-1.9
			H102.7z"/>
		<path class="st4" d="M104.8,74.2c-0.2,0.5-0.9,1-2,0.9c-1.1,0-1.7-0.5-2-0.9c-0.2-0.3,0-0.7,0.3-0.9c0.1,0,0.2-0.1,0.3-0.1h2.7
			c0.4,0,0.7,0.3,0.7,0.7C104.9,74,104.9,74.1,104.8,74.2L104.8,74.2z"/>
	</g>
</g>
<g>
	<path class="st5" d="M49.4,47.6c-3.6,1.1-8.1,2-13.9,2s-10.3-0.8-13.9-1.9c-13,14.5,0.3,28.7,4.4,32.6c0.5,0.4,0.3,1.2-0.3,1.5
		c-1.5,0.7-2,1.7-2.2,2.7c-0.1,1,0.7,1.8,1.7,1.8h6.1c2.6,0,3.7-1.6,4-3.9h0.1c0.3,2.3,1.5,3.9,4,3.9h6.2c1,0,1.8-0.8,1.7-1.8
		c-0.1-0.9-0.7-2-2.2-2.7c-0.6-0.3-0.8-1-0.3-1.5C49.1,76.3,62.4,62.1,49.4,47.6L49.4,47.6z"/>
	<path class="st6" d="M35.8,57.7h-0.7c-2.7,0-4.8,2.2-4.8,4.8v0.1c0,0,4.8,10.3,5.2,17.3c0.4-7,5.2-17.3,5.2-17.3
		C40.7,60,38.5,57.7,35.8,57.7L35.8,57.7z"/>
	<path class="st6" d="M35.4,79.9c0,0.5,0,1.1,0,1.6C35.5,81,35.5,80.5,35.4,79.9z"/>
	<path class="st5" d="M58.9,32.2c2.3,0,4.9-2.1,4.9-2.1c-3.5-0.6-4.2-3.9-6-8.2c7.6-3.8,5.7-15.5,4.6-19.9c-0.1-0.6-0.9-0.7-1.2-0.2
		c-0.9,1.2-2.9,2.9-6.9,3.8c-3.9,0.9-6.1,2.9-7.3,4.5C41.5,7.7,35.5,8,35.5,8s-6-0.3-11.5,1.9c-1.2-1.6-3.4-3.6-7.3-4.5
		c-4-0.9-6-2.6-6.9-3.8C9.4,1.2,8.7,1.3,8.5,1.9c-1,4.4-3,16.1,4.6,19.9c-1.8,4.3-2.6,7.7-6,8.2c0,0,2.6,2.1,4.9,2.1
		c0,0-1.2,2.7-4.3,3.4c0,0,1.7,3.1,7.2,3.1c0,0-1.7,2.4-3.8,3.1c0,0,6.4,7.9,24.3,7.9s24.3-7.9,24.3-7.9c-2-0.6-3.8-3.1-3.8-3.1
		c5.5,0,7.2-3.1,7.2-3.1C60,34.9,58.9,32.2,58.9,32.2L58.9,32.2z"/>
	<path class="st7" d="M35.6,34.8c0,0,0,3.5-4,3.7c0.4,3.4,2,5.9,4,5.9s3.6-2.6,4-5.9C35.6,38.2,35.6,34.8,35.6,34.8L35.6,34.8z"/>
	<path class="st8" d="M33,42.7c0.7,1.1,1.6,1.8,2.7,1.8c1,0,2-0.7,2.7-1.8c-0.7-1.1-1.6-1.8-2.7-1.8S33.7,41.6,33,42.7L33,42.7z"/>
	<path class="st5" d="M52.9,81.2c3.2-1.7,13.5-8.2,1.9-17.6c-1.2,7.9-7.2,14.2-9.8,16.6c-0.5,0.4-0.3,1.2,0.3,1.5
		c1.5,0.7,2,1.7,2.2,2.7c0.1,1-0.7,1.8-1.7,1.8h6.8c1,0,1.8-0.9,1.7-1.8c-0.1-0.7-0.5-1.5-1.4-2.2C52.5,81.9,52.5,81.4,52.9,81.2
		L52.9,81.2z"/>
	<path class="st5" d="M65.9,48.8c-2.4-0.3-4.5,1.4-4.6,3.8c-0.3,6-2,10.3-4.2,13.2c1.4,1.5,2.3,3,2.7,4.3c5.5-4.9,8.2-11.7,9.5-16.2
		C69.9,51.5,68.4,49.1,65.9,48.8z"/>
	<path class="st9" d="M62.4,1.9V1.8c-0.7,1.5-3.5,6.5-7.9,8c-5.2,1.7-2.3,5.5-2.3,5.5l-1.4,0.9c0,0,0.9,4,4.3,4l2.9,1.5
		C65.3,17.7,63.4,6.3,62.4,1.9z"/>
	<path class="st9" d="M16.4,9.7c-4.4-1.5-7.2-6.5-7.9-8v0.1c-1,4.4-2.9,15.9,4.4,19.8l2.9-1.5c3.5,0,4.3-4,4.3-4l-1.4-0.9
		C18.8,15.2,21.7,11.5,16.4,9.7z"/>
	<path class="st7" d="M38.5,31.2c0,1.4-1.5,3.4-2.9,3.4s-2.9-2-2.9-3.4s1.5-0.3,2.9-0.3C37,30.9,38.5,29.8,38.5,31.2z"/>
	<circle class="st10" cx="35.5" cy="56" r="3.7"/>
	<path class="st11" d="M35.5,49.6c-5,0-9.2-0.6-12.5-1.5c0.9,2.6,5,4.7,10.1,5.2c0.7-0.6,1.5-0.9,2.4-0.9s1.8,0.3,2.4,0.9
		C43,52.7,47,50.6,48,48C44.6,48.9,40.5,49.6,35.5,49.6L35.5,49.6z"/>
	<path class="st5" d="M18.1,81.2c-3.2-1.7-13.5-8.2-1.9-17.6c1.2,7.9,7.2,14.2,9.8,16.6c0.5,0.4,0.3,1.2-0.3,1.5
		c-1.5,0.7-2,1.7-2.2,2.7c-0.1,1,0.7,1.8,1.7,1.8h-6.8c-1,0-1.8-0.9-1.7-1.8c0.1-0.7,0.5-1.5,1.4-2.2C18.5,81.9,18.4,81.4,18.1,81.2
		L18.1,81.2z"/>
	<path d="M52.5,87h-6.8c-0.5,0-0.8-0.4-0.8-0.8s0.4-0.8,0.8-0.8c0.3,0,0.5-0.1,0.7-0.3c0.1-0.1,0.2-0.3,0.2-0.5
		c-0.1-0.9-0.7-1.6-1.7-2c-0.6-0.2-0.9-0.7-1-1.3c-0.1-0.6,0.1-1.1,0.5-1.5c2.5-2.3,8.3-8.4,9.5-16.1c0-0.3,0.2-0.5,0.5-0.7
		c0.3-0.1,0.6-0.1,0.8,0.1c4.1,3.3,6,6.6,5.7,9.9c-0.4,4.5-4.9,7.5-7.3,8.8c0.7,0.6,1.2,1.5,1.3,2.4c0.1,0.7-0.1,1.4-0.5,1.9
		C54,86.6,53.2,87,52.5,87L52.5,87z M48.1,85.3h4.3c0.3,0,0.5-0.1,0.7-0.3c0.1-0.1,0.2-0.3,0.2-0.5c-0.1-0.7-0.4-1.2-1-1.6
		c-0.4-0.3-0.6-0.7-0.6-1.2s0.3-0.9,0.7-1.1c1.9-1,6.4-3.8,6.8-7.7c0.2-2.4-1.1-4.9-4-7.5c-1.7,7.5-7.3,13.3-9.8,15.6c0,0,0,0,0,0.1
		c1.9,0.9,2.5,2.3,2.7,3.3C48.3,84.5,48.3,84.9,48.1,85.3z M53.2,82L53.2,82z"/>
	<path d="M25.2,87h-6.8c-0.8,0-1.5-0.3-2-0.9c-0.5-0.5-0.7-1.2-0.5-1.9c0.2-0.9,0.6-1.8,1.3-2.4c-2.3-1.3-6.8-4.4-7.3-8.8
		c-0.3-3.3,1.6-6.6,5.7-9.9c0.2-0.2,0.6-0.2,0.8-0.1c0.3,0.1,0.5,0.4,0.5,0.7c1.2,7.6,7,13.8,9.5,16.1c0.4,0.4,0.6,1,0.5,1.5
		c-0.1,0.6-0.5,1.1-1,1.3c-1,0.4-1.5,1.1-1.7,2c0,0.2,0.1,0.4,0.2,0.5c0.2,0.2,0.4,0.3,0.7,0.3c0.5,0,0.8,0.4,0.8,0.8
		S25.7,87,25.2,87L25.2,87z M15.7,65.2c-2.9,2.6-4.2,5.1-4,7.5c0.4,4,4.9,6.7,6.8,7.7c0.4,0.2,0.7,0.6,0.7,1.1s-0.2,0.9-0.6,1.2
		c-0.6,0.4-0.9,0.9-1,1.6c0,0.3,0.1,0.5,0.2,0.5c0.2,0.2,0.4,0.3,0.7,0.3h4.3c-0.1-0.3-0.2-0.7-0.1-1.1c0.2-1,0.7-2.4,2.7-3.3
		c0,0,0.1,0,0.1-0.1C23,78.5,17.4,72.7,15.7,65.2z"/>
	<path d="M39.5,87c-1.8,0-3.1-0.7-4-2c-1.5-2.4-1.3-7,0.8-13.6c1.5-4.8,3.5-9,3.5-9c0.2-0.4,0.7-0.6,1.1-0.4
		c0.4,0.2,0.6,0.7,0.4,1.1c-2.1,4.5-7,17-4.4,21c0.5,0.8,1.4,1.2,2.6,1.2c0.5,0,0.8,0.4,0.8,0.8S40,87,39.5,87L39.5,87z"/>
	<path d="M31.3,87c-0.5,0-0.8-0.4-0.8-0.8s0.4-0.8,0.8-0.8c1.2,0,2-0.4,2.6-1.2c2.6-4-2.3-16.6-4.4-21c-0.2-0.4,0-0.9,0.4-1.1
		c0.4-0.2,0.9,0,1.1,0.4c0,0,2,4.2,3.5,9c2.1,6.6,2.4,11.2,0.8,13.6C34.5,86.3,33.1,87,31.3,87z"/>
	<path d="M59.8,70.9c-0.1,0-0.2,0-0.2,0c-0.3-0.1-0.5-0.3-0.6-0.6c-0.4-1.3-1.3-2.6-2.5-4c-0.3-0.3-0.3-0.7-0.1-1.1
		c2.4-3.4,3.8-7.7,4-12.8c0.1-1.4,0.7-2.7,1.8-3.5c1.1-0.9,2.5-1.3,3.8-1.1c1.4,0.2,2.6,1,3.4,2.2s1,2.6,0.6,4
		c-1.4,4.9-4.1,11.7-9.7,16.6C60.2,70.9,60,70.9,59.8,70.9L59.8,70.9z M58.2,65.7c0.8,1,1.5,1.9,1.9,2.9c4.7-4.6,7.1-10.6,8.3-15
		c0.2-0.9,0.1-1.9-0.4-2.6c-0.5-0.8-1.3-1.3-2.2-1.4c-0.9-0.1-1.8,0.1-2.5,0.7c-0.7,0.6-1.1,1.4-1.2,2.3
		C61.9,57.8,60.6,62.2,58.2,65.7L58.2,65.7z"/>
	<path d="M35.5,50.4c-18.1,0-24.7-7.9-24.9-8.3c-0.2-0.2-0.2-0.5-0.1-0.8c0.1-0.3,0.3-0.5,0.6-0.6c0.8-0.3,1.6-0.9,2.2-1.5
		c-4.6-0.6-6.1-3.2-6.2-3.4S7,35.3,7.1,35c0.1-0.2,0.3-0.4,0.6-0.5c1.5-0.3,2.5-1.2,3.1-1.9c-2.1-0.5-4-2.1-4.1-2.1
		c-0.3-0.2-0.4-0.6-0.3-0.9S6.8,29,7.1,29c2.3-0.4,3.1-2.2,4.5-5.7c0.2-0.4,0.4-0.9,0.5-1.4C9,20,7.2,16.7,6.8,11.9
		C6.4,8,7.2,3.8,7.7,1.7c0.1-0.6,0.6-1,1.2-1.1c0.6-0.1,1.2,0.1,1.5,0.6c0.8,1.1,2.6,2.6,6.4,3.5s6,2.7,7.4,4.3
		c5.2-2,10.7-1.8,11.3-1.8s6-0.2,11.3,1.7c1.3-1.6,3.6-3.4,7.4-4.3c3.8-0.9,5.6-2.4,6.4-3.5c0.4-0.5,1-0.7,1.5-0.6
		c0.6,0.1,1,0.6,1.2,1.1c0.5,2.1,1.3,6.3,0.9,10.5c-0.4,4.8-2.2,8.1-5.3,10c0.2,0.5,0.4,0.9,0.5,1.4c1.4,3.5,2.2,5.3,4.5,5.7
		c0.3,0.1,0.6,0.3,0.7,0.6s0,0.7-0.3,0.9c-0.1,0.1-2,1.6-4.1,2.1c0.6,0.7,1.6,1.6,3.1,1.9c0.3,0.1,0.5,0.2,0.6,0.5
		c0.1,0.2,0.1,0.5,0,0.8c-0.1,0.1-1.6,2.8-6.2,3.4c0.6,0.6,1.4,1.3,2.2,1.5c0.3,0.1,0.5,0.3,0.6,0.6s0,0.6-0.1,0.8
		C60.1,42.5,53.6,50.4,35.5,50.4L35.5,50.4z M12.6,41.9c2.2,2,9,6.8,22.8,6.8c13.9,0,20.7-4.9,22.8-6.8c-1.7-1-2.9-2.7-3-2.8
		c-0.2-0.3-0.2-0.6-0.1-0.9s0.4-0.5,0.8-0.5c3.1,0,4.8-1,5.7-1.8C59,34.8,58,32.5,58,32.4c-0.1-0.3-0.1-0.6,0.1-0.8s0.4-0.4,0.7-0.4
		c1,0,2.2-0.5,3-1c-2.1-1.1-3-3.5-4.1-6.1c-0.3-0.6-0.5-1.3-0.8-2c-0.2-0.4,0-0.9,0.4-1.1c6.8-3.4,5.3-13.9,4.3-18.6
		c-1.1,1.3-3.2,3-7.2,3.9c-3.7,0.8-5.7,2.7-6.8,4.2c-0.2,0.3-0.6,0.4-1,0.3C41.3,8.7,35.5,9,35.4,9h-0.1c-0.1,0-5.9-0.3-11.2,1.8
		c-0.4,0.1-0.8,0-1-0.3C22,9.1,20,7.2,16.3,6.3c-4-0.9-6.1-2.6-7.2-3.9C8.2,7.1,6.7,17.6,13.5,21c0.4,0.2,0.6,0.7,0.4,1.1
		c-0.3,0.7-0.6,1.4-0.8,2c-1.1,2.7-2,5-4.1,6.1c0.9,0.5,2,1,3,1c0.3,0,0.5,0.1,0.7,0.4c0.2,0.2,0.2,0.5,0.1,0.8c0,0.1-1,2.4-3.6,3.5
		c0.9,0.8,2.6,1.8,5.7,1.8c0.3,0,0.6,0.2,0.8,0.5c0.1,0.3,0.1,0.6-0.1,0.9C15.6,39.2,14.3,40.9,12.6,41.9L12.6,41.9z"/>
	<path d="M58,22.5c-0.3,0-0.6-0.2-0.7-0.4c-0.2-0.4-0.1-0.9,0.3-1.1c2.9-1.5,4.5-4.6,4.9-9c0.2-2.8-0.1-5.6-0.5-7.7
		c-1.4,2.2-3.8,5.3-7.3,6.4c-1.4,0.5-2.2,1.1-2.5,1.9c-0.3,1.1,0.5,2.3,0.5,2.3c0.1,0.2,0.2,0.4,0.2,0.7c0,0.2-0.2,0.4-0.4,0.6
		l-0.9,0.5c0.3,1,1.3,2.8,3.3,2.8c0.5,0,0.8,0.4,0.8,0.8S55.5,21,55,21c-3.3,0-4.8-3.1-5.2-4.7c-0.1-0.4,0.1-0.7,0.4-0.9l0.7-0.4
		c-0.3-0.7-0.7-1.8-0.3-3c0.4-1.3,1.6-2.3,3.5-3c4.1-1.4,6.7-6.1,7.4-7.5C61.6,1.2,62,1,62.3,1s0.6,0.2,0.8,0.5c0,0,0.1,0.1,0.1,0.2
		c0.5,2.1,1.3,6.2,1,10.3c-0.4,5.1-2.4,8.6-5.8,10.4C58.3,22.5,58.1,22.5,58,22.5z"/>
	<path d="M45.7,87h-6.2c-1.4,0-3.1-0.4-4.1-2.2c-1,1.8-2.7,2.2-4.1,2.2h-6.1c-0.8,0-1.5-0.3-2-0.9c-0.5-0.5-0.7-1.2-0.5-1.9
		c0.2-1,0.7-2.4,2.7-3.3c0,0,0.1,0,0.1-0.1c-2.4-2.2-6.6-6.7-8.9-12.6c-2.9-7.6-1.4-14.7,4.4-21.1c0.2-0.2,0.6-0.3,0.9-0.2
		c4,1.3,8.6,1.9,13.6,1.9c5.1,0,9.7-0.6,13.7-1.9c0.3-0.1,0.7,0,0.9,0.2c5.8,6.4,7.2,13.5,4.4,21.1c-2.2,5.9-6.5,10.4-8.9,12.6
		c0,0,0,0,0,0.1c1.9,0.9,2.5,2.3,2.7,3.3c0.1,0.7-0.1,1.4-0.5,1.9C47.2,86.6,46.5,87,45.7,87L45.7,87z M35.4,81.3L35.4,81.3
		c0.5,0,0.9,0.3,0.9,0.7c0.3,2.2,1.3,3.2,3.2,3.2h6.2c0.3,0,0.5-0.1,0.7-0.3c0.1-0.1,0.2-0.3,0.2-0.5c-0.1-0.9-0.7-1.6-1.7-2
		c-0.6-0.2-0.9-0.7-1-1.3c-0.1-0.6,0.1-1.1,0.5-1.5c4.1-3.8,16.5-17.3,4.7-31c-4.1,1.2-8.6,1.8-13.7,1.8c-5,0-9.6-0.6-13.6-1.8
		c-11.8,13.7,0.6,27.2,4.7,31c0.4,0.4,0.6,1,0.5,1.5c-0.1,0.6-0.5,1.1-1,1.3c-1,0.4-1.5,1.1-1.7,2c0,0.2,0.1,0.4,0.2,0.5
		c0.2,0.2,0.4,0.3,0.7,0.3h6.1c1.9,0,2.9-1,3.2-3.2C34.6,81.6,34.9,81.3,35.4,81.3L35.4,81.3z"/>
	<path d="M35.5,60.6c-2.5,0-4.6-2.1-4.6-4.6s2.1-4.6,4.6-4.6s4.6,2.1,4.6,4.6S38,60.6,35.5,60.6z M35.5,53.1c-1.6,0-2.9,1.3-2.9,2.9
		c0,1.6,1.3,2.9,2.9,2.9c1.6,0,2.9-1.3,2.9-2.9C38.3,54.4,37.1,53.1,35.5,53.1z"/>
	<path d="M37.9,54c-0.2,0-0.4-0.1-0.5-0.2c-0.5-0.4-1.2-0.7-1.9-0.7s-1.4,0.2-1.9,0.7C33.4,53.9,33.2,54,33,54
		c-5.5-0.5-9.7-2.8-10.8-5.7c-0.1-0.3,0-0.6,0.2-0.9c0.2-0.2,0.5-0.3,0.8-0.2c3.7,1,7.8,1.5,12.3,1.5s8.6-0.5,12.3-1.5
		c0.3-0.1,0.6,0,0.8,0.2s0.3,0.6,0.2,0.9C47.7,51.2,43.5,53.5,37.9,54L37.9,54L37.9,54z M24.9,49.4c1.6,1.4,4.5,2.6,7.9,2.9
		c0.8-0.6,1.7-0.9,2.7-0.9s1.9,0.3,2.7,0.9c3.4-0.4,6.3-1.5,7.9-2.9c-3.2,0.7-6.8,1-10.5,1C31.7,50.4,28.2,50.1,24.9,49.4L24.9,49.4
		z"/>
	<path d="M35.5,60.6c-2.5,0-4.6-2.1-4.6-4.6c0-0.5,0.4-0.8,0.8-0.8h7.5c0.5,0,0.8,0.4,0.8,0.8C40,58.6,38,60.6,35.5,60.6z
		 M32.7,56.9c0.4,1.2,1.5,2,2.8,2s2.4-0.9,2.8-2H32.7z"/>
	<path d="M35.4,57.9c-0.5,0-0.8-0.4-0.8-0.8v-1c0-0.5,0.4-0.8,0.8-0.8s0.8,0.4,0.8,0.8v1C36.3,57.5,35.9,57.9,35.4,57.9z"/>
	<path d="M35.6,35.5c-1.9,0-3.7-2.4-3.7-4.2c0-0.6,0.2-1,0.5-1.3c0.6-0.5,1.3-0.3,2-0.1c0.4,0.1,0.8,0.2,1.2,0.2s0.8-0.1,1.2-0.2
		c0.7-0.2,1.4-0.4,2,0.1c0.4,0.3,0.5,0.7,0.5,1.3C39.4,33.1,37.5,35.5,35.6,35.5L35.6,35.5z M33.6,31.4c0.1,1,1.2,2.4,2,2.4
		s1.9-1.4,2-2.4c-0.1,0-0.3,0.1-0.5,0.1c-0.4,0.1-1,0.2-1.6,0.2s-1.1-0.1-1.6-0.2C33.9,31.5,33.7,31.4,33.6,31.4L33.6,31.4z"/>
	<path d="M40,39.4c-0.1,0-0.3,0-0.4,0c-4.7-0.3-4.8-4.5-4.8-4.6c0-0.5,0.4-0.8,0.8-0.8l0,0c0.5,0,0.8,0.4,0.8,0.8
		c0,0.3,0.1,2.7,3.2,2.9c0.8,0.1,1.5-0.1,1.9-0.6c0.9-0.8,0.9-2.3,0.9-2.4c0-0.5,0.4-0.8,0.8-0.8c0.5,0,0.8,0.4,0.8,0.8
		c0,0.1,0,2.2-1.5,3.6C42,39,41.1,39.4,40,39.4L40,39.4z"/>
	<path d="M31.3,39.4c-1.1,0-2.1-0.3-2.8-1C27,37,27,34.9,27,34.8c0-0.5,0.4-0.8,0.8-0.8c0.5,0,0.8,0.4,0.8,0.8c0,0,0,1.5,0.9,2.4
		c0.5,0.4,1.1,0.6,1.9,0.6c3.2-0.2,3.2-2.8,3.2-2.9c0-0.5,0.4-0.8,0.8-0.8l0,0c0.5,0,0.8,0.4,0.8,0.8C36.2,34.9,36.1,39.1,31.3,39.4
		C31.5,39.4,31.4,39.4,31.3,39.4L31.3,39.4z"/>
	<path d="M35.6,45.3c-2.4,0-4.4-2.8-4.8-6.7c0-0.2,0-0.5,0.2-0.6c0.1-0.2,0.4-0.3,0.6-0.3c3.1-0.2,3.2-2.6,3.2-2.9
		c0-0.5,0.4-0.8,0.8-0.8l0,0c0.5,0,0.8,0.4,0.8,0.8c0,0.3,0.1,2.7,3.2,2.9c0.2,0,0.4,0.1,0.6,0.3c0.1,0.2,0.2,0.4,0.2,0.6
		C40.1,42.6,38.1,45.3,35.6,45.3L35.6,45.3z M32.6,39.3c0.5,2.5,1.7,4.4,3,4.4s2.6-1.9,3-4.4c-1.6-0.3-2.5-1.1-3-1.9
		C35.1,38.2,34.1,38.9,32.6,39.3z"/>
	<path d="M70.3,35.1c-0.1,0-0.1,0-0.2,0c-11-2.7-20.7-2-20.8-2c-0.5,0-0.9-0.3-0.9-0.8s0.3-0.9,0.8-0.9c0.1,0,10.1-0.7,21.3,2.1
		c0.5,0.1,0.7,0.6,0.6,1S70.7,35.1,70.3,35.1z"/>
	<path d="M69.4,43.4c-0.1,0-0.3,0-0.4-0.1c-10-5.2-19.6-6.9-19.7-6.9c-0.5-0.1-0.8-0.5-0.7-1s0.5-0.8,1-0.7c0.1,0,10,1.8,20.2,7.1
		c0.4,0.2,0.6,0.7,0.4,1.1C70,43.2,69.7,43.4,69.4,43.4L69.4,43.4z"/>
	<path d="M1.3,35.1c-0.4,0-0.7-0.3-0.8-0.6c-0.1-0.5,0.2-0.9,0.6-1c11.2-2.7,21.2-2.1,21.3-2.1c0.5,0,0.8,0.4,0.8,0.9
		s-0.4,0.8-0.9,0.8c-0.1,0-9.9-0.6-20.8,2C1.5,35.1,1.4,35.1,1.3,35.1z"/>
	<path d="M2.2,43.4c-0.3,0-0.6-0.2-0.7-0.5c-0.2-0.4-0.1-0.9,0.4-1.1c10.2-5.3,20.1-7.1,20.2-7.1c0.5-0.1,0.9,0.2,1,0.7
		s-0.2,0.9-0.7,1c-0.1,0-9.7,1.7-19.7,6.9C2.5,43.4,2.4,43.4,2.2,43.4L2.2,43.4z"/>
	<path d="M40.6,28.7c-0.5,0-0.8-0.4-0.8-0.8c0-1.8,1.4-3.2,3.2-3.3c0.9,0,1.7,0.3,2.3,0.9s1,1.4,1,2.3c0,0.5-0.4,0.8-0.8,0.8l0,0
		c-0.5,0-0.8-0.4-0.8-0.8s-0.2-0.8-0.5-1.1c-0.3-0.3-0.7-0.5-1.1-0.5l0,0c-0.9,0-1.5,0.7-1.5,1.6C41.4,28.3,41,28.7,40.6,28.7
		L40.6,28.7L40.6,28.7z"/>
	<path d="M30.5,28.6c-0.5,0-0.8-0.4-0.8-0.8c0-0.9-0.7-1.6-1.6-1.6s-1.6,0.7-1.6,1.6c0,0.5-0.4,0.8-0.8,0.8c-0.5,0-0.8-0.4-0.8-0.8
		c0-1.8,1.5-3.2,3.2-3.2c1.8,0,3.2,1.5,3.2,3.2C31.4,28.3,31,28.6,30.5,28.6z"/>
	<path d="M12.9,22.5c-0.1,0-0.3,0-0.4-0.1C9.1,20.6,7.1,17.1,6.7,12c-0.3-4.1,0.5-8.2,1-10.3c0-0.1,0.1-0.2,0.1-0.2
		C7.9,1.2,8.2,1,8.6,1c0.3,0,0.6,0.2,0.8,0.5c0.7,1.4,3.3,6.2,7.4,7.5c1.9,0.6,3.1,1.7,3.5,3c0.4,1.2,0,2.3-0.3,3l0.7,0.4
		c0.3,0.2,0.5,0.5,0.4,0.9c-0.3,1.6-1.9,4.7-5.2,4.7c-0.5,0-0.8-0.4-0.8-0.8s0.4-0.8,0.8-0.8c2,0,3-1.9,3.3-2.8l-0.9-0.5
		c-0.2-0.1-0.4-0.3-0.4-0.6c0-0.2,0-0.5,0.2-0.7c0,0,0.9-1.2,0.5-2.3c-0.2-0.8-1.1-1.4-2.5-1.9c-3.4-1.1-5.9-4.2-7.3-6.4
		c-0.4,2.1-0.7,5-0.5,7.7c0.4,4.5,2,7.5,4.9,9c0.4,0.2,0.6,0.7,0.3,1.1C13.5,22.3,13.2,22.5,12.9,22.5z"/>
	<path d="M35.6,45.3c-1.3,0-2.5-0.8-3.4-2.2c-0.2-0.3-0.2-0.6,0-0.9c0.9-1.4,2.1-2.2,3.4-2.2c1.3,0,2.5,0.8,3.4,2.2
		c0.2,0.3,0.2,0.6,0,0.9C38.1,44.5,36.9,45.3,35.6,45.3L35.6,45.3z M34,42.7c0.4,0.5,0.9,0.9,1.6,0.9s1.2-0.5,1.6-0.9
		c-0.4-0.5-0.9-0.9-1.6-0.9C34.9,41.7,34.4,42.2,34,42.7z"/>
</g>
<g>
	<path d="M110,47.5c-1,0.7-3.2,1.6-6,2.2C92.6,52,86,43.6,83.8,33.1c-3-15,4.4-23.1,12.8-24.8c2.9-0.6,5-0.4,5.9-0.1l0.2,8.1
		c-1-0.2-2.1-0.4-3.6-0.1c-4.6,0.9-7.3,5.4-5.5,14.4c1.7,8.5,5.8,11.4,10.5,10.5c1.1-0.2,2.6-0.8,3.5-1.2L110,47.5z"/>
	<path d="M159.1,16.4l-6.9-1.9l2.3-8.5l23,6.3l-2.3,8.5l-7-1.9l-8.6,31.3l-9.2-2.5L159.1,16.4z"/>
	<path d="M162.2,26.1l0.4-1.2c0.2-0.4,0.4-0.7,0.7-1.1c0.4-0.2,0.9-0.2,1.2,0c0.5,0.2,0.9,0.7,1.1,1.2l1.6,8.8l2.8-3.3l-0.5-1.4
		c-0.4-0.9-0.2-1.8,0.2-2.6c0.4-0.7,1.1-1.2,1.9-1.2l1.2-0.2c0.7,0,1.4,0.2,1.9,0.5l1.6,1.1l2.6-0.9c0.2,0,0.4,0,0.5,0.2
		c0.2,0.2,0.2,0.4,0.2,0.5l-1.2,4.7c-0.2,0.9-0.5,1.8-0.9,2.6l-1.1,1.9c4.6,2.3,7.7,6.8,8.4,12.1l0.2,2.3c0,0.7,0.4,1.2,0.9,1.6
		c0.5,0.4,1.1,0.5,1.8,0.5c2.8-0.4,4.2-1.8,4.6-2.3c0.5-0.9,0.4-2.6-0.5-4.6c-0.9-1.9-0.9-2.6-0.7-3c0.2-0.2,0.4-0.4,0.7-0.4
		c0.5,0.2,1.2,0.9,1.8,1.4c0.7,0.9,1.2,1.8,1.4,2.6c0.5,1.6,0.5,3.2,0.2,4.4c-0.5,1.6-1.6,3-3.5,3.9c-3.9,2.1-7.4,2.3-10.3,2.3h-1.9
		c-0.5,0.7-1.2,1.2-2.1,1.2h-7.9c-0.2,0-0.4-0.2-0.5-0.2c-0.2-0.2-0.2-0.4,0-0.5c0.4-0.9,1.1-1.6,2.1-1.9c2.5-0.5,3.5-1.1,3.9-1.4
		c-0.9-1.2-1.6-2.6-1.6-4l-1.2-1.1l-2.8,7.2c-0.4,1.1-1.4,1.8-2.5,1.8H165c-0.4,0-0.5-0.2-0.5-0.5c0-1.4,0.9-2.6,2.3-2.8l1.4-9.6
		c-0.2-1.1-0.9-2.1-1.8-3.3c-0.5-0.7-0.9-1.4-1.1-2.3c-0.7-0.2-1.9-0.9-2.3-3.2c0,0,0,0,0-0.2c0-4.2-0.4-7.7-0.7-9.1
		C162,27,162,26.7,162.2,26.1z M166.9,41.2c0.4,0.4,0.5,0.9,0.9,1.2v-1.6c0-0.4,0.2-0.5,0.5-0.5s0.5,0.2,0.5,0.5l0.2,4.6l-1.8,10.3
		c0,0.2-0.2,0.4-0.5,0.5h-0.4c-0.5,0.2-1.1,0.5-1.2,1.1h1.2c0.7,0,1.2-0.4,1.4-1.1l5.4-13.8c0.2-0.4,0.4-0.4,0.7-0.4
		c0.4,0.2,0.4,0.5,0.4,0.7l-2.1,5.4l0.9,0.7c0.2-1.6,1.1-3,2.3-3.9c2.5-1.6,6.3,0.9,6.5,1.1c0.2,0.2,0.4,0.5,0.2,0.7
		c-0.2,0.4-0.5,0.4-0.7,0.2c-0.9-0.7-3.7-2.1-5.4-1.1c-1.1,0.7-1.6,1.8-1.8,3.2c-0.2,1.6,0.4,3.3,1.6,4.9c0.2,0.2,0.2,0.4,0.2,0.5
		c-0.2,0.5-0.7,1.1-2.1,1.6c-0.9,0.4-2.1,0.7-2.8,0.9c-0.4,0-0.5,0.2-0.7,0.4h6.8c0.7,0,1.2-0.5,1.4-1.2l0.5-3.2
		c0-0.4,0.4-0.5,0.7-0.5s0.5,0.4,0.4,0.7l-0.5,3h1.6c3,0,6.3-0.4,10-2.3c1.6-0.9,2.5-1.9,3-3.2c0.4-1.1,0.4-2.5-0.2-3.7
		c-0.4-1.1-1.2-2.3-1.8-2.8c0.2,0.4,0.2,0.7,0.5,1.2c0.7,1.8,1.6,4,0.5,5.6c-0.5,0.9-2.3,2.5-5.4,2.8c-0.9,0.2-1.8-0.2-2.6-0.7
		c-0.7-0.5-1.2-1.4-1.2-2.5l-0.2-2.3c-0.5-4.9-3.5-9.3-7.7-11.2l-0.4,0.9c-0.2,0.4-0.5,0.4-0.7,0.2c-0.4-0.2-0.4-0.5-0.2-0.7
		l1.9-3.9c0.4-0.7,0.7-1.6,0.9-2.3l0.9-3.7l-1.9,0.7c-0.2,0-0.4,0-0.5,0l-1.8-1.2c-0.4-0.4-0.9-0.4-1.4-0.4l-1.2,0.2
		c-0.4,0-0.9,0.4-1.1,0.7c-0.2,0.5-0.4,1.1-0.2,1.6l0.2,0.5c0.2,0.5,0.5,0.9,1.1,0.9l2.5,0.5c0.4,0,0.5,0.4,0.4,0.7
		c0,0.4-0.4,0.5-0.5,0.5c0,0,0,0-0.2,0l-2.5-0.5c-0.2,0-0.5-0.2-0.7-0.2l-3.5,4.2C165.7,37.2,165.7,39.6,166.9,41.2z M163.1,27.2
		c0.2,1.4,0.7,4.9,0.7,9.3c0.2,1.2,0.7,1.8,1.2,1.9c0-1.2,0.4-2.5,1.2-3.3l-1.8-9.6c0-0.2-0.2-0.4-0.4-0.4s-0.2,0-0.4,0
		s-0.2,0.2-0.2,0.4l-0.4,1.2C163.1,26.7,163.1,27,163.1,27.2z"/>
	<g>
		<path d="M124.1,45.6l-1.2,8.2l-9.2,0.2l7.8-41.5l11.5-0.3l8.5,41.1l-9.2,0.2l-1.5-8.1L124.1,45.6z M129.9,38.2l-1.2-7.8
			c-0.4-2.3-1-6.8-1.4-9.3h-0.1c-0.4,2.6-0.9,7.2-1.2,9.4l-1,7.9L129.9,38.2z"/>
		<g>
			<g>
				<path d="M101.7,34.9c-0.1,0-0.1,0-0.2,0h-0.1c-1.4,0-1.4,1.2,0,1.2c0.1,0,0.1,0,0.2,0h0.1c5.3,0.3,10.7,1.3,15.8,3.1
					c1.3,0.5,1.9-1.6,0.6-2.1C112.8,35.2,107.3,35.2,101.7,34.9z"/>
				<path d="M117.8,42c1.4,0,1.4-2.2,0-2.2c-7-0.1-13.9,1.3-20.8,2.8c-0.1,0-0.2,0-0.2,0.1c-1.2,0.3-1.1,1.1,0.3,1.1
					c0.2,0,0.4,0,0.5-0.1c0,0,0,0,0.1,0C104.3,42.2,111,41.9,117.8,42z"/>
				<path d="M117.7,42.5c-3.9,0.8-7.5,2.3-11,3.9c-1.3,0.6-0.2,1.4,1.1,0.9c3.4-1.6,6.8-1.9,10.5-2.7
					C119.7,44.3,119.1,42.2,117.7,42.5z"/>
				<path d="M153,35c-0.1,0-0.1,0-0.2,0c-5.5,0.3-11.1,0.3-16.4,2.1c-1.3,0.5-0.8,2.6,0.6,2.1c5.1-1.8,10.5-2.9,15.8-3.1h0.1
					c0.1,0,0.1,0,0.2,0C154.5,36.1,154.5,34.9,153,35C153.1,34.9,153.1,35,153,35z"/>
				<path d="M157.8,42.7c-0.1,0-0.2-0.1-0.2-0.1c-6.8-1.5-13.7-2.9-20.8-2.8c-1.4,0-1.4,2.2,0,2.2c6.9-0.1,13.5,0.2,20.2,1.7l0,0
					c0.1,0.1,0.3,0.1,0.5,0.1C158.8,43.8,158.9,42.9,157.8,42.7z"/>
				<path d="M147.9,46.4c-3.6-1.7-7.2-3.1-11-3.9c-1.4-0.3-2,1.8-0.6,2.1c3.7,0.8,7.1,1.1,10.5,2.7C148.1,47.9,149.2,47,147.9,46.4z
					"/>
				<path d="M129.5,34c-1.2-1.2-3.1-1.2-4.3,0l-2.4,0.5c-1.2,1.2-1.2,3.1,0,4.3l2.4,2.4c1.2,1.2,3.1,1.2,4.3,0l2.4-2.4
					c1.2-1.2,1.2-3.1,0-4.3L129.5,34z"/>
			</g>
		</g>
	</g>
	<g>
		<g>
			<g>
				<path d="M116.8,12.7c0.8-1.7-0.7-3.7-3.4-4.7s-5.5-0.5-6.2,1.2s0.7,3.7,3.4,4.7C113.2,14.9,116,14.3,116.8,12.7z"/>
				<path d="M102,6.2C101.9,6.2,101.9,6.2,102,6.2C101.9,6.2,101.9,6.2,102,6.2c-0.8-0.1-0.9,0.4-0.2,0.5c0,0,0,0,0.1,0l0,0
					c2.8,0.5,5.5,1.5,7.9,2.8c0.7,0.3,1.2-0.6,0.6-0.9C107.7,7.2,104.8,6.8,102,6.2z"/>
				<path d="M110.3,8.6c0.5,0.5,1.4-0.3,0.8-0.7c-2.6-2.4-5.7-4.2-8.8-5.8h-0.1c-0.5-0.3-0.9,0.1-0.4,0.5c0.1,0,0.1,0.1,0.2,0.1l0,0
					C105.1,4.3,107.8,6.4,110.3,8.6z"/>
			</g>
			<path class="st3" d="M114.3,14.6c1.2-0.4,1.6-1.8,1-3c-0.7-1.2-2.1-1.9-3.3-1.4s-1.6,1.8-1,3C111.7,14.4,113.2,15.1,114.3,14.6z"
				/>
		</g>
		<g>
			<path class="st12" d="M107,9.9c0,0-0.1,4.5,2.7,5.8s7.4-0.9,7.4-0.9s0.1-4.5-2.7-5.8S107,9.9,107,9.9L107,9.9z"/>
		</g>
		<path class="st2" d="M110.2,11.8c0.1,1.4,1,2.6,2.4,3.3c1.4-0.7,2.3-1.9,2.4-3.3c0-1.4-1-2.6-2.4-3.3
			C111.2,9.2,110.3,10.5,110.2,11.8z"/>
	</g>
	<g>
		<path d="M137.9,13.2c0.8,1.9,3.6,2.6,6.2,1.5s4.2-3.5,3.5-5.4c-0.8-1.9-3.6-2.6-6.2-1.5C138.7,8.9,137.1,11.3,137.9,13.2z"/>
		<path d="M153.3,4.9h0.1c0,0,0,0,0.1,0c0.9-0.3,1.2,0.4,0.3,0.7h-0.1c0,0,0,0-0.1,0c-3.5,1.5-6.7,3.5-9.7,5.9
			c-0.8,0.6-1.7-0.6-0.9-1.2C146,7.8,149.7,6.4,153.3,4.9z"/>
		<path d="M142.6,10.8c-0.7,0.7-1.8-0.5-1-1.1c3.7-3.4,8-5.9,12.3-8.4c0.1,0,0.1-0.1,0.2-0.1c0.7-0.4,1.1,0.1,0.4,0.7
			C154.4,2,154.3,2,154.2,2l0,0C149.9,4.5,146.2,7.5,142.6,10.8z"/>
		<path class="st3" d="M140.4,15.2c1.1,0.7,2.6,0.3,3.5-1s0.7-2.9-0.3-3.6c-1.1-0.7-2.6-0.3-3.5,1S139.4,14.5,140.4,15.2z"/>
		<path class="st12" d="M148.2,9.6c0,0,0.1,4.6-2.9,5.9s-8-1-8-1s-0.1-4.6,2.9-5.9S148.2,9.6,148.2,9.6L148.2,9.6z"/>
		<path class="st2" d="M145.1,12.1c-0.1,1.2-1,2.4-2.3,3c-1.4-0.6-2.2-1.7-2.3-3c0-1.2,0.9-2.4,2.3-3
			C144.2,9.7,145.1,10.8,145.1,12.1z"/>
	</g>
</g>
<g>
	<g id="XMLID_195_">
		<g id="XMLID_441_">
			<path id="XMLID_273_" class="st13" d="M230.3,45.1c0.8-0.6,1.8-1,2.8-0.9c0.5,0,1,0.2,1.4,0.4c1.2,0.6,2.5,0.7,3.7,0.4
				c0.5-0.2,1-0.2,1.5-0.2c2.1,0.2,3.7,2.2,3.5,4.2c-0.1,0.9-0.4,1.7-1,2.3c-0.3,0.4-0.5,0.8-0.6,1.3l0,0c-0.1,1.3-0.9,2.5-2.1,3.2
				s-2.7,1.1-4.3,1c-1.6-0.1-3-0.8-4-1.7c-1.1-1-1.6-2.3-1.5-3.6l0,0c0-0.5,0-0.9-0.3-1.3c-0.4-0.7-0.6-1.6-0.5-2.4
				C229,46.6,229.6,45.7,230.3,45.1L230.3,45.1z M239.4,54.5c0.6-0.5,1-1.3,1.1-2l0,0c0.1-0.8,0.4-1.5,0.9-2c0.4-0.4,0.6-1,0.7-1.5
				c0.1-1.4-1-2.7-2.4-2.9c-0.4,0-0.7,0-1,0.1c-1.5,0.4-3.2,0.3-4.6-0.5c-0.3-0.2-0.6-0.3-1-0.3c-1.5-0.1-2.7,1-2.9,2.4
				c0,0.6,0.1,1.2,0.4,1.7c0.4,0.7,0.6,1.4,0.5,2.1l0,0c-0.1,0.9,0.3,1.8,1.1,2.6c0.8,0.8,2,1.2,3.3,1.4
				C237,55.7,238.4,55.3,239.4,54.5L239.4,54.5z"/>
		</g>
		<g id="XMLID_481_">
			<path id="XMLID_270_" class="st13" d="M236.7,59.3c0.5-0.5,1.3-0.7,1.9-0.6c0.8,0,1.5,0.5,2,1.2c0.5,0.7,0.6,1.6,0.6,2.5
				c-0.1,0.9-0.5,1.7-1,2.3c-0.6,0.6-1.4,0.9-2.2,0.9s-1.5-0.5-2-1.2c-0.5-0.7-0.6-1.6-0.6-2.5s0.5-1.7,1-2.3
				C236.4,59.5,236.6,59.4,236.7,59.3L236.7,59.3z M239,64c0.1,0,0.1-0.1,0.2-0.1c0.3-0.4,0.6-1,0.6-1.6c0.1-0.7,0-1.2-0.4-1.7
				c-0.3-0.4-0.7-0.7-1-0.7c-0.4-0.1-0.8,0.1-1.2,0.5c-0.3,0.4-0.6,1-0.6,1.6s0,1.2,0.4,1.7c0.3,0.4,0.7,0.7,1,0.7
				C238.4,64.4,238.7,64.2,239,64z"/>
		</g>
		<g id="XMLID_483_">
			<path id="XMLID_267_" class="st13" d="M243,53.6c0.5-0.5,1.3-0.7,1.9-0.6c0.8,0,1.5,0.5,2,1.2s0.6,1.6,0.6,2.5
				c-0.1,0.9-0.5,1.7-1,2.3c-0.6,0.6-1.4,0.9-2.2,0.9c-0.8,0-1.5-0.5-2-1.2s-0.6-1.6-0.6-2.5c0.1-0.9,0.5-1.7,1-2.3
				C242.8,53.8,242.9,53.7,243,53.6z M245.3,58.3c0.1,0,0.1-0.1,0.2-0.1c0.3-0.4,0.6-1,0.6-1.6c0.1-0.7,0-1.2-0.4-1.7
				c-0.3-0.4-0.7-0.7-1-0.7c-0.4-0.1-0.8,0.1-1.2,0.5c-0.3,0.4-0.6,1-0.6,1.6c-0.1,0.7,0,1.2,0.4,1.7c0.3,0.4,0.7,0.7,1,0.7
				C244.7,58.7,245.1,58.6,245.3,58.3z"/>
		</g>
		<g id="XMLID_84_">
			<path id="XMLID_242_" class="st13" d="M229.6,58.7c0.5-0.5,1.3-0.7,1.9-0.6c0.8,0,1.5,0.5,2,1.2c0.5,0.7,0.6,1.6,0.6,2.5
				c-0.1,0.9-0.5,1.7-1,2.3c-0.6,0.6-1.4,0.9-2.2,0.9c-0.8,0-1.5-0.5-2-1.2c-0.5-0.7-0.6-1.6-0.6-2.5s0.5-1.7,1-2.3
				C229.4,58.8,229.5,58.7,229.6,58.7z M232,63.4c0.1,0,0.1-0.1,0.2-0.1c0.3-0.4,0.6-1,0.6-1.6c0.1-0.7,0-1.2-0.4-1.7
				c-0.3-0.4-0.7-0.7-1-0.7c-0.4-0.1-0.8,0.1-1.2,0.5c-0.3,0.4-0.6,1-0.6,1.6c-0.1,0.7,0,1.2,0.4,1.7c0.3,0.4,0.7,0.7,1,0.7
				C231.3,63.7,231.6,63.6,232,63.4L232,63.4z"/>
		</g>
		<g id="XMLID_3_">
			<path id="XMLID_239_" class="st13" d="M224.5,51.9c0.5-0.5,1.3-0.7,1.9-0.6c0.8,0,1.5,0.5,2,1.2c0.5,0.7,0.6,1.6,0.6,2.5
				c-0.1,0.9-0.5,1.7-1,2.3c-0.6,0.6-1.4,0.9-2.2,0.9c-0.8,0-1.5-0.5-2-1.2s-0.6-1.6-0.6-2.5c0.1-0.9,0.5-1.7,1-2.3
				C224.4,52.1,224.4,52,224.5,51.9z M227,56.6c0.1,0,0.1-0.1,0.2-0.1c0.3-0.4,0.6-1,0.6-1.6c0-0.6,0-1.2-0.4-1.7
				c-0.3-0.4-0.7-0.7-1-0.7c-0.4-0.1-0.8,0.1-1.2,0.5c-0.3,0.4-0.6,1-0.6,1.6c-0.1,0.7,0,1.2,0.4,1.7c0.3,0.4,0.7,0.7,1,0.7
				C226.3,57,226.6,56.9,227,56.6z"/>
		</g>
	</g>
	<g id="XMLID_1_">
		<g id="XMLID_11_">
			<path id="XMLID_12_" class="st13" d="M248.9,44.6c-1.1,0.1-2.2-0.3-3.1-0.9c-0.5-0.4-0.8-0.8-1-1.3c-0.6-1.3-1.7-2.1-3.1-2.6
				c-0.5-0.2-0.9-0.4-1.4-0.8c-1.7-1.5-1.9-4.2-0.4-6c0.6-0.7,1.4-1.2,2.4-1.4c0.5-0.1,1-0.4,1.3-0.8l0,0c0.9-1.1,2.3-1.6,4-1.6
				c1.6,0.1,3.1,0.7,4.4,1.8c1.3,1.1,2.2,2.6,2.5,4.1c0.3,1.6,0,3-0.9,4.1l0,0c-0.3,0.4-0.5,0.9-0.6,1.4c0,0.9-0.4,1.8-1,2.5
				C251,44,250,44.6,248.9,44.6L248.9,44.6z M246.8,30.6c-0.9,0.1-1.7,0.4-2.3,1.1l0,0c-0.5,0.6-1.3,1-2.1,1.3
				c-0.6,0.1-1.2,0.5-1.6,0.9c-1,1.2-0.9,3.1,0.3,4.1c0.3,0.3,0.6,0.4,1,0.6c1.7,0.6,3,1.7,3.8,3.3c0.1,0.4,0.4,0.6,0.7,0.9
				c1.2,1,3.1,0.9,4.1-0.3c0.4-0.5,0.6-1.1,0.7-1.7c0.1-0.9,0.4-1.6,0.9-2.2l0,0c0.6-0.7,0.9-1.8,0.7-2.9c-0.2-1.2-1-2.4-2.1-3.3
				C249.7,30.9,248.2,30.5,246.8,30.6L246.8,30.6z"/>
		</g>
		<g id="XMLID_9_">
			<path id="XMLID_10_" class="st13" d="M252.2,28c-0.8,0.1-1.5-0.2-2.1-0.7c-0.7-0.6-1-1.4-0.9-2.4c0-0.9,0.4-1.8,1-2.5
				c0.6-0.7,1.5-1.2,2.4-1.4c1-0.2,1.9,0,2.5,0.6c0.7,0.6,1,1.4,0.9,2.4c0,0.9-0.4,1.8-1,2.5c-0.6,0.7-1.5,1.2-2.4,1.4
				C252.5,28,252.3,28,252.2,28L252.2,28z M253.1,22.3c-0.1,0-0.1,0-0.2,0c-0.6,0.1-1.2,0.5-1.6,0.9c-0.4,0.5-0.7,1.2-0.7,1.7
				c0,0.6,0.1,1,0.5,1.3c0.4,0.3,0.8,0.4,1.3,0.3c0.6-0.1,1.2-0.5,1.6-0.9c0.4-0.5,0.7-1.2,0.7-1.7c0-0.6-0.1-1-0.5-1.3
				C253.9,22.4,253.5,22.2,253.1,22.3z"/>
		</g>
		<g id="XMLID_7_">
			<path id="XMLID_8_" class="st13" d="M243,29.1c-0.8,0.1-1.5-0.2-2.1-0.7c-0.7-0.6-1-1.4-0.9-2.4c0-0.9,0.4-1.8,1-2.5
				c0.6-0.7,1.5-1.2,2.4-1.4c1-0.2,1.9,0,2.5,0.6c0.7,0.6,1,1.4,0.9,2.4c0,0.9-0.4,1.8-1,2.5s-1.5,1.2-2.4,1.4
				C243.3,29,243.2,29.1,243,29.1z M243.9,23.4c-0.1,0-0.1,0-0.2,0c-0.6,0.1-1.2,0.5-1.6,0.9c-0.4,0.5-0.7,1.2-0.7,1.7
				c0,0.6,0.1,1,0.5,1.3s0.8,0.4,1.3,0.3c0.6-0.1,1.2-0.5,1.6-0.9c0.4-0.5,0.7-1.2,0.7-1.7c0-0.6-0.1-1-0.5-1.3
				C244.7,23.5,244.3,23.3,243.9,23.4z"/>
		</g>
		<g id="XMLID_5_">
			<path id="XMLID_6_" class="st13" d="M258.1,33.1c-0.8,0.1-1.5-0.2-2.1-0.7c-0.7-0.6-1-1.4-0.9-2.4c0-0.9,0.4-1.8,1-2.5
				c0.6-0.7,1.5-1.2,2.4-1.4c1-0.2,1.9,0,2.5,0.6c0.7,0.6,1,1.4,0.9,2.4c0,0.9-0.4,1.8-1,2.5c-0.6,0.7-1.5,1.2-2.4,1.4
				C258.4,33,258.3,33,258.1,33.1z M259,27.4c-0.1,0-0.1,0-0.2,0c-0.6,0.1-1.2,0.5-1.6,0.9c-0.4,0.5-0.7,1.2-0.7,1.7
				c0,0.6,0.1,1,0.5,1.3s0.8,0.4,1.3,0.3c0.6-0.1,1.2-0.5,1.6-0.9s0.7-1.2,0.7-1.7c0-0.6-0.1-1-0.5-1.3
				C259.8,27.4,259.4,27.3,259,27.4L259,27.4z"/>
		</g>
		<g id="XMLID_2_">
			<path id="XMLID_4_" class="st13" d="M258.4,42.2c-0.8,0.1-1.5-0.2-2.1-0.7c-0.7-0.6-1-1.4-0.9-2.4c0-0.9,0.4-1.8,1-2.5
				c0.6-0.7,1.5-1.2,2.4-1.4c1-0.2,1.9,0,2.5,0.6c0.7,0.6,1,1.4,0.9,2.4c0,0.9-0.4,1.8-1,2.5s-1.5,1.2-2.4,1.4
				C258.7,42.2,258.5,42.2,258.4,42.2z M259.3,36.5c-0.1,0-0.1,0-0.2,0c-0.6,0.1-1.2,0.5-1.6,0.9c-0.4,0.5-0.7,1.2-0.7,1.7
				c0,0.6,0.1,1,0.5,1.3s0.8,0.4,1.3,0.3c0.6-0.1,1.2-0.5,1.6-0.9c0.4-0.5,0.7-1.2,0.7-1.7s-0.1-1-0.5-1.3
				C260.1,36.6,259.6,36.5,259.3,36.5z"/>
		</g>
	</g>
	<g id="XMLID_13_">
		<g id="XMLID_22_">
			<path id="XMLID_23_" class="st14" d="M231.5,36.5c0,1.1-0.4,2.2-1.2,3c-0.4,0.4-0.9,0.7-1.3,1c-1.3,0.6-2.3,1.7-2.9,3
				c-0.2,0.5-0.6,0.9-0.9,1.4c-1.6,1.7-4.4,1.7-6.1,0.1c-0.7-0.6-1.2-1.5-1.3-2.4c-0.1-0.5-0.3-1-0.7-1.4l0,0c-1-1-1.5-2.5-1.3-4.1
				c0.2-1.6,1-3.1,2.2-4.3c1.2-1.2,2.8-2,4.3-2.3c1.6-0.2,3.1,0.2,4.1,1.2l0,0c0.4,0.4,0.9,0.6,1.4,0.7c0.9,0.1,1.8,0.5,2.5,1.3
				C231,34.3,231.5,35.4,231.5,36.5L231.5,36.5z M217.1,37.7c0,0.9,0.3,1.7,1,2.4l0,0c0.6,0.6,1,1.3,1.1,2.1
				c0.1,0.6,0.4,1.2,0.9,1.6c1.2,1.1,3,1.1,4.2-0.1c0.3-0.3,0.5-0.6,0.6-0.9c0.7-1.7,2-2.9,3.6-3.7c0.4-0.1,0.6-0.4,0.9-0.7
				c1.1-1.2,1-3-0.1-4.2c-0.4-0.4-1-0.8-1.7-0.8c-0.9-0.1-1.6-0.5-2.2-1l0,0c-0.7-0.7-1.7-1-3-0.8c-1.2,0.2-2.5,0.8-3.5,1.8
				C217.7,34.8,217.1,36.4,217.1,37.7L217.1,37.7z"/>
		</g>
		<g id="XMLID_20_">
			<path id="XMLID_21_" class="st14" d="M214.9,32.1c0,0.8-0.3,1.5-0.8,2.1c-0.6,0.7-1.5,1-2.5,0.8c-0.9-0.1-1.8-0.5-2.5-1.3
				c-0.7-0.7-1.2-1.6-1.3-2.5c-0.2-1,0.1-1.9,0.8-2.5c0.6-0.7,1.5-1,2.5-0.8c0.9,0.1,1.8,0.5,2.5,1.3s1.2,1.6,1.3,2.5
				C214.9,31.8,214.9,31.9,214.9,32.1L214.9,32.1z M209.2,30.9c0,0.1,0,0.1,0,0.2c0.1,0.6,0.4,1.2,0.9,1.6c0.5,0.5,1.1,0.8,1.7,0.8
				c0.6,0.1,1-0.1,1.4-0.4c0.3-0.3,0.4-0.8,0.4-1.4c-0.1-0.6-0.4-1.2-0.9-1.6c-0.5-0.5-1.1-0.8-1.7-0.8c-0.6-0.1-1,0.1-1.4,0.4
				C209.3,30,209.2,30.4,209.2,30.9z"/>
		</g>
		<g id="XMLID_18_">
			<path id="XMLID_19_" class="st14" d="M215.4,41.5c0,0.8-0.3,1.5-0.8,2.1c-0.6,0.7-1.5,1-2.5,0.8c-0.9-0.1-1.8-0.5-2.5-1.3
				c-0.7-0.7-1.2-1.6-1.3-2.5c-0.2-1,0.1-1.9,0.8-2.5c0.6-0.7,1.5-1,2.5-0.8c0.9,0.1,1.8,0.5,2.5,1.3c0.7,0.7,1.2,1.6,1.3,2.5
				C215.4,41.2,215.4,41.3,215.4,41.5z M209.7,40.3c0,0.1,0,0.1,0,0.2c0.1,0.6,0.4,1.2,0.9,1.6c0.5,0.5,1.1,0.8,1.7,0.8
				c0.6,0.1,1-0.1,1.4-0.4c0.3-0.3,0.4-0.8,0.4-1.4c-0.1-0.6-0.4-1.2-0.9-1.6c-0.5-0.4-1.1-0.8-1.7-0.8c-0.6-0.1-1,0.1-1.4,0.4
				C209.8,39.4,209.7,39.8,209.7,40.3z"/>
		</g>
		<g id="XMLID_16_">
			<path id="XMLID_17_" class="st14" d="M220.4,26.4c0,0.8-0.3,1.5-0.8,2.1c-0.6,0.7-1.5,1-2.5,0.8c-0.9-0.1-1.8-0.5-2.5-1.3
				c-0.7-0.7-1.2-1.6-1.3-2.5c-0.2-1,0.1-1.9,0.8-2.5c0.6-0.7,1.5-1,2.5-0.8c0.9,0.1,1.8,0.5,2.5,1.3c0.7,0.7,1.2,1.6,1.3,2.5
				C220.4,26.1,220.4,26.3,220.4,26.4z M214.6,25.2c0,0.1,0,0.1,0,0.2c0.1,0.6,0.4,1.2,0.9,1.6c0.5,0.5,1.1,0.8,1.7,0.8
				c0.6,0.1,1-0.1,1.4-0.4c0.3-0.3,0.4-0.8,0.4-1.4c-0.1-0.6-0.4-1.2-0.9-1.6c-0.5-0.5-1.1-0.8-1.7-0.8c-0.6-0.1-1,0.1-1.4,0.4
				C214.8,24.4,214.6,24.8,214.6,25.2L214.6,25.2z"/>
		</g>
		<g id="XMLID_14_">
			<path id="XMLID_15_" class="st14" d="M229.6,26.8c0,0.8-0.3,1.5-0.8,2.1c-0.6,0.7-1.5,1-2.5,0.8c-0.9-0.1-1.8-0.5-2.5-1.3
				s-1.2-1.6-1.3-2.5c-0.2-1,0.1-1.9,0.8-2.5c0.6-0.7,1.5-1,2.5-0.8c0.9,0.1,1.8,0.5,2.5,1.3s1.2,1.6,1.3,2.5
				C229.6,26.5,229.6,26.6,229.6,26.8z M224,25.5c0,0.1,0,0.1,0,0.2c0.1,0.6,0.4,1.2,0.9,1.6c0.5,0.4,1.1,0.8,1.7,0.8
				c0.6,0.1,1-0.1,1.4-0.4c0.3-0.3,0.4-0.8,0.4-1.4c-0.1-0.6-0.4-1.2-0.9-1.6c-0.5-0.5-1.1-0.8-1.7-0.8c-0.6-0.1-1,0.1-1.4,0.4
				C224.1,24.7,224,25.1,224,25.5z"/>
		</g>
	</g>
</g>
</svg>
