<?xml version="1.0" standalone="no"?>
<!DOCTYPE svg PUBLIC "-//W3C//DTD SVG 1.1//EN" "http://www.w3.org/Graphics/SVG/1.1/DTD/svg11.dtd" >
<svg xmlns="http://www.w3.org/2000/svg" xmlns:xlink="http://www.w3.org/1999/xlink" version="1.1">
<metadata>
Created by FontForge 20190801 at Wed Feb  5 02:55:34 2014
 By www-data
Copyright (c) 2009 by Jos Buivenga. All rights reserved.
</metadata>
<defs>
<font id="MuseoSlab500" horiz-adv-x="555" >
  <font-face 
    font-family="MuseoSlab500"
    font-weight="500"
    font-stretch="normal"
    units-per-em="1000"
    panose-1="2 0 0 0 0 0 0 0 0 0"
    ascent="772"
    descent="-228"
    x-height="506"
    cap-height="706"
    bbox="-131 -225 1088 902"
    underline-thickness="50"
    underline-position="-200"
    unicode-range="U+0020-FB04"
  />
<missing-glyph horiz-adv-x="510" 
d="M505 0h-500v700h500v-700zM85 650l170 -255l170 255h-340zM455 605l-170 -255l170 -255v510zM55 605v-510l170 255zM255 305l-170 -255h340z" />
    <glyph glyph-name="f_f" unicode="ff" horiz-adv-x="719" 
d="M317 0h-269v75h79v356h-84v75h84v25q0 113 69 152q56 30 113 30l46 -3v-80q-13 3 -36 3q-95 0 -95 -100v-27h247v25q0 113 69 152q53 30 112 30l47 -3v-80q-14 3 -37 3q-94 0 -94 -100v-27h122v-75h-122v-356h93v-75h-270v75h80v356h-247v-356h93v-75z" />
    <glyph glyph-name="fi" unicode="fi" horiz-adv-x="678" 
d="M317 0h-269v75h79v356h-84v75h84v25q0 113 69 152q56 30 113 30l46 -3v-80q-13 3 -36 3q-95 0 -95 -100v-27h344v-431h79v-75h-256v75h80v356h-247v-356h93v-75zM570 607h-102v99h102v-99z" />
    <glyph glyph-name="fl" unicode="fl" horiz-adv-x="660" 
d="M317 0h-269v75h79v356h-84v75h84v15q0 114 76 159q68 42 159 42q94 0 164 -18l23 -7v-547q0 -38 12.5 -55t44.5 -17l23 1v-80q-26 -2 -43 -2q-66 0 -100 34.5t-34 112.5v491q-30 10 -93 10q-62 0 -98.5 -30t-36.5 -91v-18h122v-75h-122v-356h93v-75z" />
    <glyph glyph-name="f_f_i" unicode="ffi" horiz-adv-x="1021" 
d="M317 0h-269v75h79v356h-84v75h84v25q0 113 69 152q56 30 113 30l46 -3v-80q-13 3 -36 3q-95 0 -95 -100v-27h247v25q0 113 69 152q53 30 112 30l47 -3v-80q-14 3 -37 3q-94 0 -94 -100v-27h343v-431h80v-75h-256v75h80v356h-247v-356h93v-75h-270v75h80v356h-247v-356h93
v-75zM914 607h-102v99h102v-99z" />
    <glyph glyph-name="f_f_l" unicode="ffl" horiz-adv-x="1003" 
d="M317 0h-269v75h79v356h-84v75h84v25q0 46 13.5 81t32.5 53.5t46 30t48 14.5t43 3l45 -3v-80q-13 3 -35 3q-96 0 -96 -100v-27h247v15q0 56 20 97t55 62.5t74.5 31.5t85.5 10q93 0 163 -18l23 -7v-547q0 -38 12.5 -55t45.5 -17l23 1l-1 -80q-26 -2 -42 -2
q-66 0 -100.5 34.5t-34.5 112.5v491q-30 10 -92 10t-98.5 -30t-36.5 -91v-18h122v-75h-122v-356h93v-75h-270v75h80v356h-247v-356h93v-75z" />
    <glyph glyph-name="f_j" unicode="fj" horiz-adv-x="645" 
d="M317 0h-269v75h79v356h-84v75h84v25q0 113 69 152q56 30 113 30l46 -3v-80q-13 3 -36 3q-95 0 -95 -100v-27h339v-521q0 -95 -50 -140q-59 -53 -144 -51l-34 2v79q6 -1 22 -1q14 0 26.5 2t28 9t27 19t19.5 33.5t8 50.5v443h-242v-356h93v-75zM564 607h-100v99h100v-99z
" />
    <glyph glyph-name=".notdef" horiz-adv-x="510" 
d="M505 0h-500v700h500v-700zM85 650l170 -255l170 255h-340zM455 605l-170 -255l170 -255v510zM55 605v-510l170 255zM255 305l-170 -255h340z" />
    <glyph glyph-name=".null" horiz-adv-x="0" 
 />
    <glyph glyph-name="nonmarkingreturn" horiz-adv-x="333" 
 />
    <glyph glyph-name="space" unicode=" " horiz-adv-x="250" 
 />
    <glyph glyph-name="exclam" unicode="!" horiz-adv-x="247" 
d="M167 194h-87l-7 512h100zM174 0h-100v98h100v-98z" />
    <glyph glyph-name="quotedbl" unicode="&#x22;" horiz-adv-x="344" 
d="M280 506h-76v212h76v-212zM140 506h-76v212h76v-212z" />
    <glyph glyph-name="numbersign" unicode="#" horiz-adv-x="717" 
d="M220 0h-81l34 191h-131l12 74h131l30 168h-130l12 73h130l35 200h81l-35 -200h155l35 200h82l-35 -200h130l-12 -73h-131l-30 -168h130l-12 -74h-130l-33 -191h-82l34 191h-155zM296 433l-30 -168h155l30 168h-155z" />
    <glyph glyph-name="dollar" unicode="$" horiz-adv-x="543" 
d="M50 88l-8 8l54 71q5 -5 34 -27q70 -49 146 -49q54 0 89 28.5t35 75.5q0 66 -122 111q-49 17 -79 31t-68.5 39t-58 60t-18.5 80q0 70 51 121q53 51 135 63v109h71v-108q46 -3 89 -19.5t64 -33.5l18 -16l-43 -77q-2 2 -5.5 4.5t-8.5 6t-8 6.5q-13 10 -54 27q-42 17 -79 17
q-58 0 -94 -27.5t-36 -70.5q0 -15 4 -28.5t16 -25t20 -19t29.5 -18t30.5 -14.5t37 -15.5t36 -14.5q48 -21 83 -39q41 -20 65.5 -57t24.5 -86q0 -76 -52 -131q-50 -54 -137 -65v-107h-71v107q-67 7 -116 32.5t-74 50.5z" />
    <glyph glyph-name="percent" unicode="%" horiz-adv-x="750" 
d="M43 570q0 60 44 104t107 44t107 -44q45 -44 45 -104q0 -62 -45 -105q-43 -43 -107 -43t-107 43q-44 44 -44 105zM152 0h-94l540 706h94zM268 570q0 31 -21.5 53t-52.5 22t-52.5 -22t-21.5 -53q0 -32 21 -53t53 -21t53 21t21 53zM405 136q0 60 44 104q46 44 108 44
t106 -44q45 -43 45 -104q0 -62 -45 -105q-43 -43 -106 -43q-65 0 -108 43q-44 44 -44 105zM483 136q0 -32 21.5 -53t52.5 -21t52.5 21.5t21.5 52.5t-21.5 53t-52.5 22t-52.5 -22t-21.5 -53z" />
    <glyph glyph-name="ampersand" unicode="&#x26;" horiz-adv-x="675" 
d="M49 197q0 63 34.5 113t93.5 69v2q-9 2 -34 19q-64 46 -64 136q0 85 63 133q62 49 163 49q32 0 75 -8l13 -3l-25 -79q-28 6 -53 6q-60 0 -97.5 -29t-37.5 -79q0 -20 5.5 -37.5t18.5 -35.5t40.5 -29t66.5 -11h150v98h97v-98h93v-82h-93v-96q0 -116 -67.5 -181.5
t-185.5 -65.5q-114 0 -185 59q-71 60 -71 150zM150 205q0 -57 42 -92.5t113 -35.5q74 0 115 41t41 121v92h-155q-75 0 -115.5 -33t-40.5 -93z" />
    <glyph glyph-name="quotesingle" unicode="'" horiz-adv-x="205" 
d="M141 506h-77v212h77v-212z" />
    <glyph glyph-name="parenleft" unicode="(" horiz-adv-x="314" 
d="M270 -95h-85q-116 194 -116 435q0 210 116 395h85q-113 -190 -113 -396q0 -231 113 -434z" />
    <glyph glyph-name="parenright" unicode=")" horiz-adv-x="314" 
d="M129 -95h-85q113 206 113 434q0 206 -113 396h85q116 -185 116 -395q0 -241 -116 -435z" />
    <glyph glyph-name="asterisk" unicode="*" horiz-adv-x="479" 
d="M238 447l-77 -118l-72 52l89 110v2l-137 37l27 84l133 -50l-8 142h91l-8 -142l134 50l28 -84l-138 -37v-2l89 -110l-72 -52l-77 118h-2z" />
    <glyph glyph-name="plus" unicode="+" horiz-adv-x="613" 
d="M266 246h-224v78h224v246h82v-246h223v-78h-223v-246h-82v246z" />
    <glyph glyph-name="comma" unicode="," horiz-adv-x="261" 
d="M97 -124h-77l70 229h102z" />
    <glyph glyph-name="hyphen" unicode="-" horiz-adv-x="476" 
d="M384 242h-292v86h292v-86z" />
    <glyph glyph-name="period" unicode="." horiz-adv-x="256" 
d="M180 0h-104v105h104v-105z" />
    <glyph glyph-name="slash" unicode="/" horiz-adv-x="424" 
d="M127 -42h-86l255 786h86z" />
    <glyph glyph-name="zero" unicode="0" horiz-adv-x="620" 
d="M310 -12q-250 0 -250 366q0 364 250 364q138 0 196 -107q54 -98 54 -257q0 -80 -13 -144t-41 -115t-78 -79t-118 -28zM458 354q0 276 -148 276t-148 -276q0 -277 148 -277t148 277z" />
    <glyph glyph-name="one" unicode="1" horiz-adv-x="479" 
d="M457 0h-406v82h156v460l1 43h-2q-6 -12 -34 -40l-66 -65l-60 62l169 164h88v-624h154v-82z" />
    <glyph glyph-name="two" unicode="2" horiz-adv-x="586" 
d="M532 0h-478q-5 35 -5 54q0 51 19.5 95t50.5 75.5t68 60t74.5 53.5t68.5 50t50.5 56.5t19.5 66.5q0 54 -35 86.5t-92 32.5q-41 0 -78 -24q-34 -21 -52 -46l-16 -24l-70 48q15 26 33 47q20 23 43 40q61 47 148 47q98 0 160 -56q63 -56 63 -147q0 -46 -19 -86t-49.5 -69.5
t-68 -56.5t-74.5 -51.5t-67.5 -49t-49.5 -55.5t-19 -65h288v94h87v-176z" />
    <glyph glyph-name="three" unicode="3" horiz-adv-x="570" 
d="M156 534h-87v172h431v-69l-187 -220q77 -7 139 -59q61 -49 61 -143q0 -93 -68 -161q-67 -66 -174 -66q-130 0 -219 86l-10 10l52 71q14 -14 31 -28q70 -50 141 -50q59 0 102 38q43 37 43 96q0 60 -44 95.5t-112 35.5q-28 0 -42 -2l-23 52l172 207l22 23l5 3v2
q-23 -3 -36 -3h-197v-90z" />
    <glyph glyph-name="four" unicode="4" horiz-adv-x="599" 
d="M368 189h-342v62l327 455h112v-437h96v-80h-96v-189h-97v189zM344 553l-210 -282v-2h234v277l5 54h-3q-9 -21 -26 -47z" />
    <glyph glyph-name="five" unicode="5" horiz-adv-x="564" 
d="M50 70l-8 9l52 70l19 -20q15 -14 55 -32q43 -20 87 -20q67 0 113 42t46 102q0 66 -44 106t-116 40q-65 0 -110 -27l-14 -9l-58 21l35 354h365v-172h-87v90h-192l-18 -169l-5 -28h2q38 22 100 22q109 0 176 -64q68 -65 68 -160q0 -100 -73 -169q-74 -68 -183 -68
q-126 1 -210 82z" />
    <glyph glyph-name="six" unicode="6" horiz-adv-x="597" 
d="M320 -12q-117 0 -190 91q-74 92 -74 239q0 150 76 269q39 61 103 96t142 35q77 0 119 -22l16 -7l-31 -83q-45 24 -102 24q-90 0 -146 -71q-53 -70 -67 -169h2q23 30 67 48.5t93 18.5q98 0 161 -67q63 -66 63 -164q0 -104 -66 -171t-166 -67zM160 266q0 -67 46 -128
t113 -61q60 0 96 41t36 108t-40.5 107.5t-110.5 40.5q-58 0 -99 -33q-41 -32 -41 -75z" />
    <glyph glyph-name="seven" unicode="7" horiz-adv-x="543" 
d="M205 0h-102l292 590q14 25 19 32l3 3v2q-18 -3 -41 -3h-249v-90h-87v172h484v-68z" />
    <glyph glyph-name="eight" unicode="8" horiz-adv-x="600" 
d="M54 199q0 113 114 192q-86 57 -86 142q0 76 57 130q58 55 163 55q100 0 162 -51t62 -135q0 -43 -20 -89q-26 -58 -64 -96q101 -59 101 -153q0 -83 -68 -145q-67 -61 -174 -61t-177 60t-70 151zM180 532q0 -41 43 -80q15 -11 65 -36q7 -2 40 -17q11 -4 24.5 -9.5
t15.5 -6.5q61 71 61 138q0 51 -34.5 81t-92.5 30q-56 0 -89 -28t-33 -72zM154 209q0 -60 43 -97t103 -37q58 0 99 34q43 34 43 85q-4 33 -17 52.5t-45 37.5q-12 8 -40 20q-39 18 -50 22q-43 19 -52 23q-84 -63 -84 -140z" />
    <glyph glyph-name="nine" unicode="9" horiz-adv-x="597" 
d="M45 481q0 104 66 170q66 67 167 67q115 0 189 -92t74 -238q0 -150 -77 -269q-38 -61 -101.5 -96t-142.5 -35q-78 0 -120 22l-16 7l31 84q45 -24 103 -24q92 0 146 70q54 69 68 170h-2q-23 -29 -67.5 -46.5t-93.5 -17.5q-98 0 -161 65q-63 66 -63 163zM147 481
q0 -65 40 -105t108 -40q57 0 100 32q42 32 42 75q0 66 -47 127q-46 60 -112 60q-59 0 -95 -41.5t-36 -107.5z" />
    <glyph glyph-name="colon" unicode=":" horiz-adv-x="298" 
d="M201 0h-104v105h104v-105zM201 401h-104v105h104v-105z" />
    <glyph glyph-name="semicolon" unicode=";" horiz-adv-x="299" 
d="M204 401h-102v105h102v-105zM121 -124h-78l61 229h102z" />
    <glyph glyph-name="less" unicode="&#x3c;" horiz-adv-x="613" 
d="M524 44l-466 208v66l466 208v-89l-357 -151v-2l357 -151v-89z" />
    <glyph glyph-name="equal" unicode="=" horiz-adv-x="613" 
d="M545 340h-477v78h477v-78zM545 151h-477v78h477v-78z" />
    <glyph glyph-name="greater" unicode="&#x3e;" horiz-adv-x="613" 
d="M555 252l-467 -208v89l358 151v2l-358 151v89l467 -208v-66z" />
    <glyph glyph-name="question" unicode="?" horiz-adv-x="469" 
d="M243 194h-95v47q0 41 17.5 76t42.5 59t50 46t42.5 49.5t17.5 58.5q0 42 -32.5 70.5t-81.5 28.5q-52 0 -100 -31l-14 -11l-54 69q3 3 21 17q15 11 60 29q46 18 94 18q87 0 148 -51t61 -132q0 -45 -18 -82t-44 -61.5t-52.5 -47t-44.5 -50.5t-18 -61v-41zM246 0h-101v98h101
v-98z" />
    <glyph glyph-name="at" unicode="@" horiz-adv-x="787" 
d="M421 611q122 0 184 -59q63 -58 63 -144v-283h72v-73h-273q-91 0 -149 55t-58 134q0 77 57 132q58 55 150 55h108q-1 44 -44.5 73.5t-112.5 29.5q-119 0 -199 -86q-79 -85 -79 -205t80 -203t204 -83v-79q-167 0 -274 106q-107 105 -107 261t106 262q107 107 272 107z
M358 241q0 -47 33 -82q34 -34 84 -34h100v236h-98q-51 0 -86 -35q-33 -34 -33 -85z" />
    <glyph glyph-name="A" unicode="A" horiz-adv-x="721" 
d="M256 0h-245v78h68l225 628h113l225 -628h68v-78h-245v78h75l-55 157h-250l-55 -157h76v-78zM347 560l-87 -245h200l-86 245q-9 32 -11 47l-1 7h-3q-3 -26 -12 -54z" />
    <glyph glyph-name="B" unicode="B" horiz-adv-x="680" 
d="M387 0h-334v78h88v551h-88v77h321q78 0 124 -21q43 -19 70 -62t27 -97q0 -51 -23.5 -91t-65.5 -61v-2q55 -16 86 -62t31 -109q0 -67 -36 -118t-94 -70q-39 -13 -106 -13zM241 624v-215h148q48 0 76 30t28 78q0 68 -46 93q-30 14 -73 14h-133zM241 327v-245h150
q40 0 63 10q31 13 49 43.5t18 70.5q0 55 -33.5 88t-88.5 33h-158z" />
    <glyph glyph-name="C" unicode="C" horiz-adv-x="744" 
d="M49 357q0 155 103 258t258 103q79 0 165 -29q46 -15 75 -44.5t29 -66.5v-86h-93v55q0 30 -31 49q-53 36 -141 36q-115 0 -188 -76q-74 -77 -74 -195q0 -126 76 -206q77 -80 192 -80q32 0 69 6q37 7 72 27t35 50v55h93v-86q0 -36 -28 -65t-74 -44q-89 -30 -173 -30
q-159 0 -262 106t-103 263z" />
    <glyph glyph-name="D" unicode="D" horiz-adv-x="779" 
d="M355 0h-302v78h88v551h-88v77h301q91 0 150 -17q104 -33 163.5 -121.5t59.5 -214.5t-58.5 -213.5t-164.5 -120.5q-57 -19 -149 -19zM241 624v-542h108q73 0 120 18q72 25 113 91.5t41 161.5t-40.5 162t-112.5 93q-44 16 -121 16h-108z" />
    <glyph glyph-name="E" unicode="E" horiz-adv-x="632" 
d="M581 0h-528v78h88v551h-88v77h511v-164h-87v82h-236v-227h250v-82h-250v-233h253v85h87v-167z" />
    <glyph glyph-name="F" unicode="F" horiz-adv-x="577" 
d="M337 0h-284v78h88v551h-88v77h489v-167h-87v81h-214v-234h244v-82h-244v-226h96v-78z" />
    <glyph glyph-name="G" unicode="G" horiz-adv-x="766" 
d="M419 718q99 2 185.5 -38t85.5 -101v-87h-92v52q0 42 -54 64q-52 24 -122 24q-123 0 -196 -76q-73 -74 -73 -198t74 -204q75 -79 198 -79q40 0 78 7q42 8 75 28q36 21 36 53v93h-138v78h230v-198q0 -39 -29.5 -69t-75.5 -46.5t-93 -24.5t-90 -8q-162 0 -266 104
q-103 104 -103 263q0 158 103 260q103 103 267 103z" />
    <glyph glyph-name="H" unicode="H" horiz-adv-x="848" 
d="M330 0h-277v78h88v551h-88v77h277v-77h-89v-235h366v235h-89v77h277v-77h-88v-551h88v-78h-277v78h89v234h-366v-234h89v-78z" />
    <glyph glyph-name="I" unicode="I" horiz-adv-x="382" 
d="M330 0h-277v78h88v551h-88v77h277v-77h-89v-551h89v-78z" />
    <glyph glyph-name="J" unicode="J" 
d="M24 197v41h97v-31q0 -59 28 -94.5t81 -35.5q49 0 78 32.5t29 97.5v422h-102v77h281v-77h-79v-428q0 -106 -62 -160q-62 -53 -146 -53q-86 0 -145 52q-60 53 -60 157z" />
    <glyph glyph-name="K" unicode="K" horiz-adv-x="692" 
d="M328 0h-275v78h88v551h-88v77h265v-77h-77v-222h91l154 222h-65v77h239v-77h-68l-183 -255v-2q20 -9 40 -47l127 -221q15 -26 50 -26h33v-78h-71q-41 0 -60.5 11t-37.5 42l-136 244q-16 28 -55 28h-58v-247h87v-78z" />
    <glyph glyph-name="L" unicode="L" horiz-adv-x="604" 
d="M576 0h-522v78h88v546h-88v82h277v-82h-89v-542h246v114h88v-196z" />
    <glyph glyph-name="M" unicode="M" horiz-adv-x="958" 
d="M310 0h-272v78h88l45 551h-90v77h200l181 -430l16 -51h2q3 17 16 51l181 430h200v-77h-90l45 -551h88v-78h-272v78h85l-32 422l3 58h-3q-6 -29 -16 -54l-162 -371h-88l-162 371l-16 54h-3l3 -58l-32 -422h85v-78z" />
    <glyph glyph-name="N" unicode="N" horiz-adv-x="838" 
d="M332 0h-279v78h88v551h-88v77h187l347 -506l24 -51h3q-5 38 -5 57v423h-90v77h279v-77h-89v-629h-98l-347 506q-13 19 -21 42l-3 9h-3l4 -57v-422h91v-78z" />
    <glyph glyph-name="O" unicode="O" horiz-adv-x="822" 
d="M48 358q0 152 104 256q106 104 259 104q152 0 258 -104q105 -103 105 -256q0 -156 -105 -263t-258 -107q-154 0 -259 107q-104 107 -104 263zM151 358q0 -119 75 -200q76 -81 185 -81q108 0 183 81q76 80 76 200q0 116 -76 193q-75 79 -183 79q-109 0 -185 -79
q-75 -78 -75 -193z" />
    <glyph glyph-name="P" unicode="P" horiz-adv-x="653" 
d="M330 0h-277v78h88v551h-88v77h329q80 0 121 -19q55 -23 87.5 -77t32.5 -123q0 -74 -36 -130t-97 -77q-40 -15 -106 -15h-143v-187h89v-78zM241 624v-277h131q43 0 79 14q71 32 71 126q0 87 -63 120q-32 17 -86 17h-132z" />
    <glyph glyph-name="Q" unicode="Q" horiz-adv-x="825" 
d="M49 357q0 153 104 257t259 104q156 0 259 -102q105 -100 105 -254q0 -138 -85 -238l84 -80l-57 -62l-83 83q-95 -77 -224 -77q-153 0 -258 107q-104 107 -104 262zM152 357q0 -118 75 -199t185 -81q92 0 154 53l-104 103l57 61l103 -104q53 77 53 168q0 116 -76 193
q-76 79 -187 79q-110 0 -185 -78t-75 -195z" />
    <glyph glyph-name="R" unicode="R" horiz-adv-x="702" 
d="M328 0h-275v78h88v551h-88v77h306q85 0 130 -15q58 -19 90.5 -66.5t32.5 -116.5q0 -76 -39 -128.5t-107 -69.5v-2q18 -10 30 -33l100 -174q14 -23 49 -23h21v-78h-60q-45 0 -62 10q-17 11 -36 43l-109 193q-14 23 -28.5 31t-45.5 8h-84v-207h87v-78zM241 624v-257h142
q58 0 93 35.5t35 97.5q0 84 -66 111q-32 13 -87 13h-117z" />
    <glyph glyph-name="S" unicode="S" horiz-adv-x="578" 
d="M53 138v74h92v-52q0 -38 41 -61q41 -22 100 -22q64 0 102 29t38 79q0 64 -76 104q-16 7 -94 39q-43 16 -70 29q-26 13 -57 36q-61 46 -61 135q0 94 64 142t162 48q87 0 150 -31q64 -31 64 -86v-83h-93v49q0 30 -37 46q-39 17 -84 17q-56 0 -90 -25.5t-34 -71.5
q0 -37 28 -69q10 -10 36 -24l38 -19l48 -18q46 -17 63 -25q25 -10 54 -28q33 -21 48 -38q42 -46 42 -119q0 -97 -69 -151t-172 -54q-92 0 -162 39q-71 41 -71 111z" />
    <glyph glyph-name="T" unicode="T" horiz-adv-x="664" 
d="M471 0h-278v78h89v546h-166v-110h-87v192h606v-192h-87v110h-166v-546h89v-78z" />
    <glyph glyph-name="U" unicode="U" horiz-adv-x="797" 
d="M120 263v366h-89v77h278v-77h-89v-365q0 -72 27 -115q45 -72 152 -72t152 74q27 47 27 114v364h-89v77h277v-77h-88v-366q0 -102 -49 -172q-35 -50 -95.5 -76.5t-134.5 -26.5q-75 0 -135.5 27t-96.5 76q-47 65 -47 172z" />
    <glyph glyph-name="V" unicode="V" horiz-adv-x="714" 
d="M410 0h-106l-223 629h-69v77h252v-77h-78l158 -465l12 -55h3q4 29 12 55l158 465h-78v77h252v-77h-70z" />
    <glyph glyph-name="W" unicode="W" horiz-adv-x="1009" 
d="M84 629h-68v77h251v-77h-84l110 -463l8 -53h3q5 32 10 53l148 540h85l147 -540l10 -53h4q1 19 7 53l110 463h-84v77h252v-77h-68l-158 -629h-114l-138 501l-9 56h-4q-1 -30 -9 -56l-138 -501h-114z" />
    <glyph glyph-name="X" unicode="X" horiz-adv-x="669" 
d="M270 0h-240v78h66l182 279l-179 272h-65v77h246v-77h-75l117 -185l18 -28h2q5 10 17 28l113 185h-73v77h239v-77h-66l-183 -281l180 -270h67v-78h-246v78h74l-118 184l-18 29h-2l-2 -3l-14 -26l-114 -184h74v-78z" />
    <glyph glyph-name="Y" unicode="Y" horiz-adv-x="650" 
d="M464 0h-278v78h89v221l-198 330h-67v77h243v-77h-74l131 -222l14 -30h2q6 15 15 30l131 222h-73v77h241v-77h-67l-198 -330v-221h89v-78z" />
    <glyph glyph-name="Z" unicode="Z" horiz-adv-x="632" 
d="M578 0h-524v66l364 525l29 34v2q-20 -3 -40 -3h-261v-110h-87v192h509v-65l-364 -526l-29 -34v-2q19 3 40 3h276v114h87v-196z" />
    <glyph glyph-name="bracketleft" unicode="[" horiz-adv-x="311" 
d="M262 -95h-165v830h165v-73h-80v-683h80v-74z" />
    <glyph glyph-name="backslash" unicode="\" horiz-adv-x="423" 
d="M382 -42h-85l-255 786h86z" />
    <glyph glyph-name="bracketright" unicode="]" horiz-adv-x="312" 
d="M49 -95v74h81v683h-81v73h166v-830h-166z" />
    <glyph glyph-name="asciicircum" unicode="^" horiz-adv-x="613" 
d="M157 247h-88l200 459h63l200 -459h-88l-144 352z" />
    <glyph glyph-name="underscore" unicode="_" horiz-adv-x="557" 
d="M10 -78v78h537v-78h-537z" />
    <glyph glyph-name="grave" unicode="`" horiz-adv-x="499" 
d="M354 755h-91l-124 127h112z" />
    <glyph glyph-name="a" unicode="a" 
d="M33 141q0 101 115 144q32 13 67 17q55 9 113 9h32v19q0 108 -108 108q-33 0 -69.5 -11t-56.5 -25l-19 -13l-39 69q17 13 33 21q80 39 159 39q97 0 147 -49.5t50 -145.5v-226q0 -22 22 -22h51v-75h-101q-63 0 -63 55v7l4 33h-2q-19 -32 -24 -38q-53 -69 -143 -69
q-70 0 -119 40t-49 113zM131 149q0 -37 25 -61.5t66 -24.5q61 0 100 51t39 113v21h-25q-205 0 -205 -99z" />
    <glyph glyph-name="b" unicode="b" horiz-adv-x="609" 
d="M177 0h-92v631h-85v75h182v-234l-3 -42h2q9 16 23 30q56 58 140 58q102 0 162 -73q61 -73 61 -192q0 -118 -65 -192q-64 -73 -166 -73q-98 0 -155 82l-5 10h-2q3 -18 3 -40v-40zM179 251q0 -74 37 -126q38 -53 107 -53q63 0 104 49t41 131q0 81 -39.5 131t-103.5 50
q-65 0 -105.5 -47t-40.5 -135z" />
    <glyph glyph-name="c" unicode="c" horiz-adv-x="553" 
d="M40 252q0 115 77 190q76 76 191 76q31 0 63 -6t63.5 -18.5t51.5 -36t20 -54.5v-62h-86v35q0 27 -35 42q-33 16 -74 16q-77 0 -124.5 -49.5t-47.5 -130.5q0 -84 51 -133q50 -49 127 -49q40 0 78 16q41 16 51 24l33 25l37 -71q-86 -78 -203 -78q-115 0 -194 72
q-79 73 -79 192z" />
    <glyph glyph-name="d" unicode="d" horiz-adv-x="629" 
d="M42 253q0 120 63 192q64 73 167 73q59 0 98 -25.5t53 -50.5l5 -9h2q-3 17 -3 38v160h-84v75h181v-609q0 -22 22 -22h51v-75h-101q-63 0 -63 55v7l3 27h-2q-17 -29 -23 -36q-54 -65 -148 -65q-101 0 -161 73t-60 192zM141 253q0 -81 39.5 -131t103.5 -50t105 47t41 133
q0 75 -38 128t-105 53q-64 0 -105 -48.5t-41 -131.5z" />
    <glyph glyph-name="e" unicode="e" 
d="M41 253q0 118 71 192q72 73 182 73q104 0 161 -67q58 -67 58 -170l-3 -37h-370q4 -80 54 -127q50 -45 121 -45q36 0 74.5 13t58.5 29l18 15l40 -71q-17 -14 -25 -20q-19 -13 -67 -31q-50 -19 -105 -19q-118 0 -193 75q-75 77 -75 190zM144 306h269q-2 62 -36 98.5
t-85 36.5q-57 0 -97.5 -36.5t-50.5 -98.5z" />
    <glyph glyph-name="f" unicode="f" horiz-adv-x="375" 
d="M317 0h-269v75h79v356h-84v75h84v25q0 113 69 152q56 30 113 30l46 -3v-80q-13 3 -36 3q-95 0 -95 -100v-27h122v-75h-122v-356h93v-75z" />
    <glyph glyph-name="g" unicode="g" horiz-adv-x="626" 
d="M89 -168l32 74q62 -34 139 -34q74 0 117 36t43 108v40l3 32h-2q-49 -82 -152 -82q-104 0 -165 73t-61 186q0 111 59 182q60 71 163 71q55 0 99.5 -21.5t64.5 -61.5h2q-2 10 -2 20q0 51 58 51h108v-75h-56q-22 0 -22 -20v-390q0 -60 -21.5 -106t-58.5 -72.5t-81 -39.5
t-94 -13q-89 0 -173 42zM288 90q62 0 98 42.5t36 131.5q0 170 -143 170q-65 0 -101 -44.5t-36 -122.5q0 -80 39.5 -128.5t106.5 -48.5z" />
    <glyph glyph-name="h" unicode="h" horiz-adv-x="674" 
d="M288 0h-256v75h80v556h-85v75h181v-262l-3 -42h2q19 43 70 80q50 36 119 36q174 0 174 -194v-249h79v-75h-176v302q0 64 -21 95.5t-75 31.5q-74 0 -122 -55q-47 -56 -47 -137v-162h80v-75z" />
    <glyph glyph-name="i" unicode="i" horiz-adv-x="336" 
d="M227 607h-102v99h102v-99zM304 0h-256v75h79v356h-84v75h181v-431h80v-75z" />
    <glyph glyph-name="j" unicode="j" horiz-adv-x="296" 
d="M214 607h-102v99h102v-99zM-16 -204v79q127 -12 130 113v443h-85v75h182v-521q0 -95 -50 -140q-59 -53 -144 -51z" />
    <glyph glyph-name="k" unicode="k" horiz-adv-x="587" 
d="M276 0h-244v75h80v556h-85v75h181v-394h74l101 119h-66v75h230v-75h-67l-125 -146v-2q1 0 5.5 -2.5t13.5 -13t18 -25.5l86 -147q12 -20 44 -20h32v-75h-76q-35 0 -51 9t-32 38l-100 171q-12 20 -47 20h-40v-163h68v-75z" />
    <glyph glyph-name="l" unicode="l" horiz-adv-x="293" 
d="M85 144v487h-84v75h181v-556q0 -37 12 -54.5t42 -17.5l27 1l-1 -80q-26 -2 -43 -2q-134 0 -134 147z" />
    <glyph glyph-name="m" unicode="m" horiz-adv-x="1000" 
d="M304 0h-256v75h79v335q0 21 -22 21h-62v75h114q64 0 64 -56v-26l-3 -29h2q19 47 71 85t109 38q122 0 148 -119h2q22 51 72 85t109 34q165 0 165 -194v-249h80v-75h-177v303q0 64 -19.5 95.5t-69.5 31.5q-68 0 -109 -59q-40 -58 -40 -138v-158h79v-75h-176v303
q0 65 -19 96t-69 31q-68 0 -110 -61t-42 -140v-154h80v-75z" />
    <glyph glyph-name="n" unicode="n" horiz-adv-x="689" 
d="M304 0h-256v75h79v334q0 22 -22 22h-62v75h114q64 0 64 -56v-26l-3 -29h2q13 31 53 71q56 52 144 52q86 0 127 -47.5t41 -146.5v-249h80v-75h-177v302q0 65 -20.5 96t-74.5 31q-74 0 -122 -58q-47 -58 -47 -136v-160h80v-75z" />
    <glyph glyph-name="o" unicode="o" horiz-adv-x="626" 
d="M119 64q-79 76 -79 190t79 189t194 75t194 -75t79 -189q0 -113 -80 -190q-79 -76 -193 -76q-115 0 -194 76zM139 254q0 -78 50 -131q51 -51 124 -51q72 0 123 52t51 130t-51 129t-123 51q-73 0 -124 -51q-50 -52 -50 -129z" />
    <glyph glyph-name="p" unicode="p" horiz-adv-x="637" 
d="M34 -200v75h79v534q0 22 -22 22h-62v75h112q62 0 62 -50v-4l-2 -29h2q14 23 23 33q55 62 147 62q101 0 161 -73q61 -73 61 -192q0 -118 -65 -192q-64 -73 -164 -73q-57 0 -95.5 25t-56.5 52l-5 9h-2q3 -18 3 -44v-155h80v-75h-256zM208 251q0 -73 38 -126t105 -53
q64 0 105 49t41 131q0 81 -40 131t-104 50q-65 0 -105 -47t-40 -135z" />
    <glyph glyph-name="q" unicode="q" horiz-adv-x="609" 
d="M42 253q0 121 64 192q64 73 165 73q94 0 161 -88h2q-2 18 -2 35v41h92v-631h79v-75h-255v75h79v159l3 44h-2q-12 -20 -23 -32q-54 -58 -140 -58q-102 0 -163 73q-60 73 -60 192zM141 253q0 -81 39.5 -131t103.5 -50q65 0 105.5 47t40.5 135q0 73 -38 126q-38 54 -106 54
q-63 0 -104 -49.5t-41 -131.5z" />
    <glyph glyph-name="r" unicode="r" horiz-adv-x="423" 
d="M298 0h-248v75h76v334q0 22 -22 22h-63v75h114q65 0 65 -59v-32l-2 -35h2q18 59 61 95.5t99 36.5l25 -2v-96q-12 3 -28 3q-75 0 -115 -63q-39 -62 -39 -145v-134h75v-75z" />
    <glyph glyph-name="s" unicode="s" horiz-adv-x="481" 
d="M40 109v54h85v-33q0 -29 34 -46t82 -17q45 0 73.5 17.5t28.5 47.5q0 31 -23.5 47.5t-88.5 39.5l-14 5q-60 21 -106 52q-52 36 -52 102q0 69 56 104q55 36 131 36q62 0 119 -26q56 -26 56 -76v-61h-85v33q0 23 -26 37.5t-63 14.5q-39 0 -64.5 -16.5t-25.5 -44.5
q0 -33 36 -55q31 -18 81 -34q68 -22 111 -50q56 -36 56 -103q0 -69 -57 -110q-57 -39 -146 -39q-75 0 -137 32q-61 33 -61 89z" />
    <glyph glyph-name="t" unicode="t" horiz-adv-x="360" 
d="M103 185v246h-85v75h87v139h95v-139h121v-75h-121v-237q0 -72 40 -97q32 -19 68 -19l23 1v-81q-18 -2 -35 -2q-53 0 -95 18q-98 42 -98 171z" />
    <glyph glyph-name="u" unicode="u" horiz-adv-x="665" 
d="M105 182v249h-85v75h182v-304q0 -65 20.5 -95.5t74.5 -30.5q73 0 118 59q46 58 46 138v158h-85v75h182v-410q0 -22 22 -22h53v-74h-105q-64 0 -64 56v22l2 30h-2q-14 -33 -53 -70q-52 -50 -140 -50q-166 0 -166 194z" />
    <glyph glyph-name="v" unicode="v" horiz-adv-x="581" 
d="M73 431h-64v75h227v-75h-65l107 -295l11 -47h3q3 22 11 47l108 295h-65v75h226v-75h-63l-164 -431h-109z" />
    <glyph glyph-name="w" unicode="w" horiz-adv-x="856" 
d="M73 431h-63v75h226v-75h-68l86 -294l8 -47h3q1 24 8 47l111 368h88l111 -368l8 -47h3q1 24 8 47l87 294h-69v75h226v-75h-63l-130 -431h-108l-107 338l-9 48h-2q-3 -26 -9 -48l-107 -338h-108z" />
    <glyph glyph-name="x" unicode="x" horiz-adv-x="572" 
d="M169 0h-132v75h76l121 186l-112 170h-82v75h142l90 -147l17 -33h2q7 16 18 33l92 147h134v-75h-77l-113 -169l125 -187h68v-75h-129l-102 164l-18 32h-2q-7 -16 -18 -33z" />
    <glyph glyph-name="y" unicode="y" horiz-adv-x="590" 
d="M31 -178l33 73q28 -24 72 -24q63 0 93 70l21 50l-177 440h-64v75h231v-75h-67l113 -301l9 -44h3q4 20 12 44l112 301h-65v75h224v-75h-63l-200 -511q-25 -63 -71.5 -96.5t-106.5 -33.5q-59 0 -96 24z" />
    <glyph glyph-name="z" unicode="z" horiz-adv-x="527" 
d="M48 0v64l279 338l28 29v2q-28 -2 -41 -2h-176v-81h-85v156h419v-64l-277 -338l-28 -28v-2q13 1 40 1h187v81h85v-156h-431z" />
    <glyph glyph-name="braceleft" unicode="{" horiz-adv-x="337" 
d="M118 77v96q0 53 -25.5 79t-50.5 28l-9 2v86q3 0 9 1t20.5 8t26 18t20.5 33t9 51v84q0 87 42 129q51 47 120 45l24 -1v-74h-14q-13 0 -25 -3.5t-27.5 -13t-25 -32.5t-9.5 -56v-103q0 -51 -24 -81.5t-49 -42.5l-8 -3v-2l4 -1q4 -2 11.5 -6.5t16 -10.5t17.5 -16.5t16 -23
t11.5 -30.5t4.5 -39v-115q0 -33 9.5 -56t25 -32.5t27.5 -13t25 -3.5h14v-74q-14 -2 -24 -2q-43 0 -78 16q-84 38 -84 159z" />
    <glyph glyph-name="bar" unicode="|" horiz-adv-x="275" 
d="M180 -159h-85v951h85v-951z" />
    <glyph glyph-name="braceright" unicode="}" horiz-adv-x="337" 
d="M34 -96v74h14q25 0 51 17q35 20 35 88v115q0 53 24 84t48 40l9 3v2l-4 1q-4 2 -11.5 6.5t-16 11t-17.5 17t-16 23t-11.5 30.5t-4.5 38v103q0 68 -35 88q-26 17 -51 17h-14v74q6 1 23 1q43 0 77 -16q85 -38 85 -158v-84q0 -53 26 -80t50 -29l9 -2v-86q-3 0 -9 -1t-20.5 -8
t-26 -17.5t-20.5 -32t-9 -50.5v-96q0 -89 -43 -130q-49 -47 -119 -45z" />
    <glyph glyph-name="asciitilde" unicode="~" horiz-adv-x="609" 
d="M146 204h-79q0 84 36 126.5t103 42.5q66 0 107 -49t85 -49q33 0 50 26.5t17 67.5h79q0 -84 -36 -126.5t-104 -42.5q-67 0 -107 48q-39 49 -85 49q-33 0 -49.5 -26.5t-16.5 -66.5z" />
    <glyph glyph-name="uni00A0" unicode="&#xa0;" horiz-adv-x="260" 
 />
    <glyph glyph-name="exclamdown" unicode="&#xa1;" horiz-adv-x="240" 
d="M170 408h-101v98h101v-98zM170 -200h-100l6 512h87z" />
    <glyph glyph-name="cent" unicode="&#xa2;" horiz-adv-x="554" 
d="M323 -13h-71v86q-97 13 -154 91q-57 80 -57 189q0 111 57 189q56 78 154 92v84h71v-84q132 -20 188 -155l-88 -34q-43 99 -132 99q-70 0 -110.5 -53t-40.5 -138q0 -88 39.5 -139t111.5 -51q89 0 132 99l88 -35q-29 -64 -77 -106t-111 -48v-86z" />
    <glyph glyph-name="sterling" unicode="&#xa3;" horiz-adv-x="614" 
d="M571 0h-528v80h86v239h-68v70h68v136q0 83 61 138t156 55q41 0 83 -14.5t65 -31.5l19 -16l-55 -68q-50 41 -111 41q-53 0 -85.5 -30.5t-32.5 -77.5v-132h180v-70h-180v-237h255v114h87v-196z" />
    <glyph glyph-name="yen" unicode="&#xa5;" horiz-adv-x="634" 
d="M267 199h-163v63h163v37l-27 48h-136v63h103l-165 296h113l118 -220l43 -102h2q23 60 43 102l119 220h113l-166 -296h102v-63h-135l-27 -48v-37h162v-63h-162v-199h-100v199z" />
    <glyph glyph-name="section" unicode="&#xa7;" horiz-adv-x="435" 
d="M216 111h-79l-71 390q-5 22 -5 46q0 76 51 123.5t137 47.5q36 0 71.5 -12t53.5 -26l16 -13l-46 -64q-40 34 -95 34q-48 0 -77 -26.5t-29 -74.5q0 -12 5 -40zM61 -24l-16 13l44 67q41 -37 97 -37q47 0 76.5 28t29.5 77q0 26 -6 45l-66 376h79l70 -390q5 -22 5 -45
q0 -76 -51 -124t-137 -48q-36 0 -71.5 12t-53.5 26z" />
    <glyph glyph-name="dieresis" unicode="&#xa8;" horiz-adv-x="499" 
d="M392 781h-86v101h86v-101zM192 781h-86v101h86v-101z" />
    <glyph glyph-name="copyright" unicode="&#xa9;" horiz-adv-x="802" 
d="M400 718q149 0 253 -107q105 -107 105 -258q0 -153 -105 -259q-103 -106 -253 -106q-149 0 -252 106t-103 259q0 152 103 258q104 107 252 107zM400 56q120 0 203 86q82 85 82 211t-82 211q-83 86 -203 86q-118 0 -201 -86q-81 -86 -81 -211t81 -211q83 -86 201 -86z
M210 352q0 82 54 141q56 59 143 59q59 0 101 -30t56 -59l6 -10l-61 -33l-12 17q-9 12 -33 28q-26 18 -54 18q-56 0 -90 -38t-34 -93q0 -57 33.5 -94t90.5 -37q27 0 52.5 15t36.5 32l10 16l61 -33q-11 -18 -25 -35q-53 -64 -138 -64q-88 0 -143 58q-54 58 -54 142z" />
    <glyph glyph-name="ordfeminine" unicode="&#xaa;" horiz-adv-x="424" 
d="M183 382q-46 0 -77.5 26.5t-31.5 70.5q0 110 189 110h10v6q0 63 -64 63q-37 0 -72 -21l-11 -7l-29 49q44 37 121 37q62 0 94.5 -32.5t32.5 -93.5v-201h-68v46h-2q-4 -8 -10 -15q-8 -12 -32 -25t-50 -13zM198 441q31 0 52.5 27t21.5 62v8h-11q-114 0 -114 -54
q0 -19 14 -31t37 -12zM348 265h-274v57h274v-57z" />
    <glyph glyph-name="guillemotleft" unicode="&#xab;" horiz-adv-x="561" 
d="M409 77l-164 205l164 206h97l-164 -206l164 -205h-97zM304 77h-97l-164 205l164 206h97l-164 -206z" />
    <glyph glyph-name="logicalnot" unicode="&#xac;" horiz-adv-x="594" 
d="M445 340h-396v78h477v-267h-81v189z" />
    <glyph glyph-name="uni00AD" unicode="&#xad;" horiz-adv-x="476" 
d="M384 242h-292v86h292v-86z" />
    <glyph glyph-name="registered" unicode="&#xae;" horiz-adv-x="802" 
d="M400 718q149 0 253 -107q105 -107 105 -258q0 -153 -105 -259q-103 -106 -253 -106q-149 0 -252 106t-103 259q0 152 103 258q104 107 252 107zM400 56q120 0 203 86q82 85 82 211t-82 211q-83 86 -203 86q-118 0 -201 -86q-81 -86 -81 -211t81 -211q83 -86 201 -86z
M349 166h-71v377h145q54 0 86.5 -31.5t32.5 -83.5q0 -38 -20 -65.5t-49 -34.5v-2q3 -3 13 -21l72 -139h-78l-70 146h-61v-146zM349 489v-125h60q28 0 44.5 17t16.5 47q0 29 -16.5 45t-44.5 16h-60z" />
    <glyph glyph-name="overscore" unicode="&#xaf;" horiz-adv-x="499" 
d="M377 784h-255v71h255v-71z" />
    <glyph glyph-name="degree" unicode="&#xb0;" horiz-adv-x="391" 
d="M44 570q0 60 44 104t107 44t107 -44q45 -44 45 -104q0 -62 -45 -105q-43 -43 -107 -43t-107 43q-44 44 -44 105zM143 517q21 -21 52 -21t53 21q22 22 22 53t-22 53t-53 22t-52 -22t-21 -53t21 -53z" />
    <glyph glyph-name="plusminus" unicode="&#xb1;" horiz-adv-x="613" 
d="M266 246h-224v78h224v246h82v-246h223v-78h-223v-246h-82v246zM58 -173v78h497v-78h-497z" />
    <glyph glyph-name="twosuperior" unicode="&#xb2;" horiz-adv-x="373" 
d="M33 463q0 84 75 137q13 10 46 31.5t48.5 33t30 31.5t14.5 40q0 28 -20 46.5t-51 18.5q-20 0 -42 -11.5t-33 -24.5l-10 -12l-49 45q0 3 14.5 18.5t49.5 34t76 19.5q63 0 102 -36t39 -92q0 -41 -21 -73t-51.5 -52.5t-61.5 -39t-53.5 -42t-24.5 -50.5h157v51h63v-113h-294
q-4 23 -4 40z" />
    <glyph glyph-name="threesuperior" unicode="&#xb3;" horiz-adv-x="374" 
d="M109 747h-63v113h280v-48l-112 -130q54 -9 87 -40.5t33 -83.5q0 -58 -44 -102q-43 -43 -112 -43q-41 0 -78.5 15.5t-53.5 33.5l-15 17l42 51q9 -12 11 -14q8 -8 34 -22q28 -14 57 -14q34 0 58.5 22t24.5 54t-25.5 51.5t-62.5 19.5h-32l-16 38l95 115l22 20v3
q-13 -3 -30 -3h-100v-53z" />
    <glyph glyph-name="acute" unicode="&#xb4;" horiz-adv-x="499" 
d="M235 755h-91l104 127h111z" />
    <glyph glyph-name="mu" unicode="&#xb5;" horiz-adv-x="595" 
d="M157 -200h-86v706h97v-302q0 -64 21 -95t73 -31q75 0 120 56t45 135v237h97v-506h-94v69l2 35h-3q-6 -15 -26 -40q-56 -76 -160 -76q-59 0 -83 24l-8 7h-2q7 -46 7 -78v-141z" />
    <glyph glyph-name="mu" unicode="&#x3bc;" horiz-adv-x="595" 
d="M157 -200h-86v706h97v-302q0 -64 21 -95t73 -31q75 0 120 56t45 135v237h97v-506h-94v69l2 35h-3q-6 -15 -26 -40q-56 -76 -160 -76q-59 0 -83 24l-8 7h-2q7 -46 7 -78v-141z" />
    <glyph glyph-name="paragraph" unicode="&#xb6;" horiz-adv-x="596" 
d="M347 -50h-75v291q-97 0 -167 67t-70 166q0 98 69 165q70 67 167 67h272v-86h-196v-670zM483 -50h-74v613h74v-613z" />
    <glyph glyph-name="middot" unicode="&#xb7;" horiz-adv-x="280" 
d="M191 237h-102v106h102v-106z" />
    <glyph glyph-name="cedilla" unicode="&#xb8;" horiz-adv-x="499" 
d="M203 -97h-17l32 122l51 -10v-8l-16 -63q34 -2 56.5 -22.5t22.5 -52.5q0 -41 -31 -63.5t-80 -22.5q-32 0 -47 5l-7 2v53q19 -6 44 -6q51 0 51 32q0 34 -59 34z" />
    <glyph glyph-name="onesuperior" unicode="&#xb9;" horiz-adv-x="336" 
d="M317 423h-280v62h103v247l3 31h-2q-4 -7 -16 -18l-48 -47l-46 49l117 113h67v-375h102v-62z" />
    <glyph glyph-name="ordmasculine" unicode="&#xba;" horiz-adv-x="471" 
d="M64 552q0 71 49 117q50 48 121 48q72 0 122 -47t50 -118q0 -73 -50 -121q-50 -47 -121 -47q-72 0 -122 47q-49 48 -49 121zM235 449q42 0 70 29t28 74q0 44 -28 72.5t-70 28.5t-70.5 -28.5t-28.5 -72.5q0 -45 28.5 -74t70.5 -29zM392 265h-312v57h312v-57z" />
    <glyph glyph-name="guillemotright" unicode="&#xbb;" horiz-adv-x="560" 
d="M353 77h-97l164 205l-164 206h97l164 -206zM152 77h-97l164 205l-164 206h97l164 -206z" />
    <glyph glyph-name="onequarter" unicode="&#xbc;" horiz-adv-x="957" 
d="M859 0h-74v109h-208v48l201 280h81v-269h62v-59h-62v-109zM654 170v-2h131v146l4 45h-3q-9 -23 -21 -39zM336 269h-280v62h103v247l3 31h-2q-4 -8 -16 -18l-48 -47l-46 49l117 113h67v-375h102v-62zM344 0h-76l336 706h75z" />
    <glyph glyph-name="onehalf" unicode="&#xbd;" horiz-adv-x="941" 
d="M599 40q0 84 75 137q13 10 46 31.5t48.5 33t30 31.5t14.5 40q0 28 -20 46.5t-51 18.5q-20 0 -42 -11.5t-33 -24.5l-10 -12l-49 45q0 3 14.5 18.5t49.5 34t76 19.5q63 0 102 -36t39 -92q0 -41 -21 -73t-51.5 -52.5t-61.5 -39t-53.5 -42t-24.5 -50.5h157v51h63v-113h-294
q-4 23 -4 40zM329 269h-280v62h103v247l3 31h-2q-4 -8 -16 -18l-48 -47l-46 49l117 113h67v-375h102v-62zM339 0h-76l336 706h75z" />
    <glyph glyph-name="threequarters" unicode="&#xbe;" horiz-adv-x="970" 
d="M124 593h-63v113h280v-48l-112 -130q54 -9 87 -40.5t33 -83.5q0 -58 -44 -102q-43 -43 -112 -43q-41 0 -78.5 15.5t-54.5 33.5l-14 17l42 51q9 -12 11 -14q9 -9 34 -22q28 -14 57 -14q34 0 58.5 22t24.5 54t-25.5 51.5t-62.5 19.5h-32l-16 38l95 115l22 20v3
q-14 -3 -30 -3h-100v-53zM870 0h-74v109h-208v48l201 280h81v-269h62v-59h-62v-109zM665 170v-2h131v146l4 45h-3q-9 -23 -21 -39zM354 0h-76l336 706h75z" />
    <glyph glyph-name="questiondown" unicode="&#xbf;" horiz-adv-x="465" 
d="M322 408h-100v98h100v-98zM48 -28q0 86 62 143q6 6 37.5 34t41.5 40t23 36.5t13 49.5v37h94v-43q0 -78 -60 -136q-6 -6 -28.5 -26t-32 -29.5t-23.5 -27.5t-20 -34.5t-6 -35.5q0 -42 33 -71t82 -29q51 0 100 32l14 11l53 -69q-7 -7 -30 -22q-66 -42 -144 -42
q-87 0 -149 51q-60 50 -60 131z" />
    <glyph glyph-name="Agrave" unicode="&#xc0;" horiz-adv-x="723" 
d="M257 0h-245v78h68l225 628h113l225 -628h68v-78h-245v78h75l-55 157h-250l-55 -157h76v-78zM348 560l-87 -245h200l-86 245q-9 32 -11 47l-1 7h-3q-3 -26 -12 -54zM420 755h-91l-124 127h112z" />
    <glyph glyph-name="Aacute" unicode="&#xc1;" horiz-adv-x="721" 
d="M256 0h-245v78h68l225 628h113l225 -628h68v-78h-245v78h75l-55 157h-250l-55 -157h76v-78zM347 560l-87 -245h200l-86 245q-9 32 -11 47l-1 7h-3q-3 -26 -12 -54zM390 755h-91l104 127h111z" />
    <glyph glyph-name="Acircumflex" unicode="&#xc2;" horiz-adv-x="721" 
d="M256 0h-245v78h68l225 628h113l225 -628h68v-78h-245v78h75l-55 157h-250l-55 -157h76v-78zM347 560l-87 -245h200l-86 245q-9 32 -11 47l-1 7h-3q-3 -26 -12 -54zM306 755h-87l88 127h105l88 -127h-87l-53 80h-2z" />
    <glyph glyph-name="Atilde" unicode="&#xc3;" horiz-adv-x="721" 
d="M256 0h-245v78h68l225 628h113l225 -628h68v-78h-245v78h75l-55 157h-250l-55 -157h76v-78zM347 560l-87 -245h200l-86 245q-9 32 -11 47l-1 7h-3q-3 -26 -12 -54zM262 756h-72q0 127 102 127q24 0 44 -10.5t31 -23t25 -23t27 -10.5q40 0 40 64h72q0 -127 -102 -127
q-24 0 -44 10.5t-31 23t-25 23t-27 10.5q-40 0 -40 -64z" />
    <glyph glyph-name="Adieresis" unicode="&#xc4;" horiz-adv-x="721" 
d="M256 0h-245v78h68l225 628h113l225 -628h68v-78h-245v78h75l-55 157h-250l-55 -157h76v-78zM347 560l-87 -245h200l-86 245q-9 32 -11 47l-1 7h-3q-3 -26 -12 -54zM503 781h-86v101h86v-101zM303 781h-86v101h86v-101z" />
    <glyph glyph-name="Aring" unicode="&#xc5;" horiz-adv-x="721" 
d="M256 0h-245v78h68l225 628h113l225 -628h68v-78h-245v78h75l-55 157h-250l-55 -157h76v-78zM347 560l-87 -245h200l-86 245q-9 32 -11 47l-1 7h-3q-3 -26 -12 -54zM268 819q0 37 26.5 60t65.5 23t66.5 -23.5t27.5 -59.5q0 -35 -27.5 -57.5t-66.5 -22.5t-65.5 22.5
t-26.5 57.5zM360 783q17 0 27 10t10 26q0 18 -10 28.5t-27 10.5q-16 0 -26 -10.5t-10 -28.5q0 -16 10 -26t26 -10z" />
    <glyph glyph-name="AE" unicode="&#xc6;" horiz-adv-x="941" 
d="M252 0h-240v78h63l227 551h-77v77h648v-164h-83v82h-237v-227h248v-82h-248v-233h254v83h83v-165h-523v78h86v238h-180l-97 -238h76v-78zM397 624l-94 -230h150v230h-56z" />
    <glyph glyph-name="Ccedilla" unicode="&#xc7;" horiz-adv-x="744" 
d="M366 -97h-18l23 87q-142 15 -232 118q-90 104 -90 249q0 155 103 258t258 103q79 0 165 -29q46 -15 75 -44.5t29 -66.5v-86h-93v55q0 30 -31 49q-53 36 -141 36q-115 0 -188 -76q-74 -77 -74 -195q0 -126 76 -206q77 -80 192 -80q32 0 69 6q37 7 72 27t35 50v55h93v-86
q0 -34 -26 -62.5t-69 -44.5q-85 -30 -168 -32l-10 -44q33 -2 56 -23.5t23 -51.5q0 -41 -31.5 -63.5t-79.5 -22.5q-33 0 -48 5l-7 2v53q19 -6 45 -6q50 0 50 32q0 34 -58 34z" />
    <glyph glyph-name="Egrave" unicode="&#xc8;" horiz-adv-x="632" 
d="M581 0h-528v78h88v551h-88v77h511v-164h-87v82h-236v-227h250v-82h-250v-233h253v85h87v-167zM385 755h-91l-124 127h112z" />
    <glyph glyph-name="Eacute" unicode="&#xc9;" horiz-adv-x="632" 
d="M581 0h-528v78h88v551h-88v77h511v-164h-87v82h-236v-227h250v-82h-250v-233h253v85h87v-167zM357 755h-91l104 127h111z" />
    <glyph glyph-name="Ecircumflex" unicode="&#xca;" horiz-adv-x="632" 
d="M581 0h-528v78h88v551h-88v77h511v-164h-87v82h-236v-227h250v-82h-250v-233h253v85h87v-167zM273 755h-87l88 127h105l88 -127h-87l-53 80h-2z" />
    <glyph glyph-name="Edieresis" unicode="&#xcb;" horiz-adv-x="632" 
d="M581 0h-528v78h88v551h-88v77h511v-164h-87v82h-236v-227h250v-82h-250v-233h253v85h87v-167zM469 781h-86v101h86v-101zM269 781h-86v101h86v-101z" />
    <glyph glyph-name="Igrave" unicode="&#xcc;" horiz-adv-x="382" 
d="M330 0h-277v78h88v551h-88v77h277v-77h-89v-551h89v-78zM251 755h-91l-124 127h112z" />
    <glyph glyph-name="Iacute" unicode="&#xcd;" horiz-adv-x="382" 
d="M330 0h-277v78h88v551h-88v77h277v-77h-89v-551h89v-78zM222 755h-91l104 127h111z" />
    <glyph glyph-name="Icircumflex" unicode="&#xce;" horiz-adv-x="382" 
d="M138 755h-87l88 127h105l88 -127h-87l-53 80h-2zM330 0h-277v78h88v551h-88v77h277v-77h-89v-551h89v-78z" />
    <glyph glyph-name="Idieresis" unicode="&#xcf;" horiz-adv-x="382" 
d="M330 0h-277v78h88v551h-88v77h277v-77h-89v-551h89v-78zM334 781h-86v101h86v-101zM134 781h-86v101h86v-101z" />
    <glyph glyph-name="Eth" unicode="&#xd0;" horiz-adv-x="787" 
d="M377 0h-324v78h88v234h-75v82h75v235h-88v77h324q164 0 261 -94q97 -93 97 -258q0 -166 -97 -260t-261 -94zM241 312v-230h129q121 0 191 71.5t70 200.5q0 128 -71 199t-190 71h-129v-230h155v-82h-155z" />
    <glyph glyph-name="Ntilde" unicode="&#xd1;" horiz-adv-x="838" 
d="M332 0h-279v78h88v551h-88v77h187l347 -506l24 -51h3q-5 38 -5 57v423h-90v77h279v-77h-89v-629h-98l-347 506q-13 19 -21 42l-3 9h-3l4 -57v-422h91v-78zM326 756h-72q0 127 102 127q24 0 44 -10.5t31 -23t25 -23t27 -10.5q40 0 40 64h72q0 -127 -102 -127
q-24 0 -44 10.5t-31 23t-25 23t-27 10.5q-40 0 -40 -64z" />
    <glyph glyph-name="Ograve" unicode="&#xd2;" horiz-adv-x="822" 
d="M48 358q0 152 104 256q106 104 259 104q152 0 258 -104q105 -103 105 -256q0 -156 -105 -263t-258 -107q-154 0 -259 107q-104 107 -104 263zM151 358q0 -119 75 -200q76 -81 185 -81q108 0 183 81q76 80 76 200q0 116 -76 193q-75 79 -183 79q-109 0 -185 -79
q-75 -78 -75 -193zM470 755h-91l-124 127h112z" />
    <glyph glyph-name="Oacute" unicode="&#xd3;" horiz-adv-x="822" 
d="M48 358q0 152 104 256q106 104 259 104q152 0 258 -104q105 -103 105 -256q0 -156 -105 -263t-258 -107q-154 0 -259 107q-104 107 -104 263zM151 358q0 -119 75 -200q76 -81 185 -81q108 0 183 81q76 80 76 200q0 116 -76 193q-75 79 -183 79q-109 0 -185 -79
q-75 -78 -75 -193zM441 755h-91l104 127h111z" />
    <glyph glyph-name="Ocircumflex" unicode="&#xd4;" horiz-adv-x="822" 
d="M357 755h-87l88 127h105l88 -127h-87l-53 80h-2zM48 358q0 152 104 256q106 104 259 104q152 0 258 -104q105 -103 105 -256q0 -156 -105 -263t-258 -107q-154 0 -259 107q-104 107 -104 263zM151 358q0 -119 75 -200q76 -81 185 -81q108 0 183 81q76 80 76 200
q0 116 -76 193q-75 79 -183 79q-109 0 -185 -79q-75 -78 -75 -193z" />
    <glyph glyph-name="Otilde" unicode="&#xd5;" horiz-adv-x="822" 
d="M48 358q0 152 104 256q106 104 259 104q152 0 258 -104q105 -103 105 -256q0 -156 -105 -263t-258 -107q-154 0 -259 107q-104 107 -104 263zM151 358q0 -119 75 -200q76 -81 185 -81q108 0 183 81q76 80 76 200q0 116 -76 193q-75 79 -183 79q-109 0 -185 -79
q-75 -78 -75 -193zM313 756h-72q0 127 102 127q24 0 44 -10.5t31 -23t25 -23t27 -10.5q40 0 40 64h72q0 -127 -102 -127q-24 0 -44 10.5t-31 23t-25 23t-27 10.5q-40 0 -40 -64z" />
    <glyph glyph-name="Odieresis" unicode="&#xd6;" horiz-adv-x="822" 
d="M48 358q0 152 104 256q106 104 259 104q152 0 258 -104q105 -103 105 -256q0 -156 -105 -263t-258 -107q-154 0 -259 107q-104 107 -104 263zM151 358q0 -119 75 -200q76 -81 185 -81q108 0 183 81q76 80 76 200q0 116 -76 193q-75 79 -183 79q-109 0 -185 -79
q-75 -78 -75 -193zM554 781h-86v101h86v-101zM354 781h-86v101h86v-101z" />
    <glyph glyph-name="multiply" unicode="&#xd7;" horiz-adv-x="613" 
d="M101 0l-55 55l207 230l-207 230l55 55l205 -228l205 228l55 -55l-208 -230l208 -230l-55 -55l-205 227z" />
    <glyph glyph-name="Oslash" unicode="&#xd8;" horiz-adv-x="821" 
d="M171 -25l-49 34l49 68q-123 109 -123 281q0 153 105 256q106 104 257 104q101 0 186 -50l45 64l49 -34l-45 -63q61 -51 94.5 -123t33.5 -154q0 -156 -105 -263t-258 -107q-106 0 -191 54zM229 158l311 433q-58 36 -130 36q-108 0 -185 -77q-75 -76 -75 -192
q0 -121 79 -200zM588 555l-314 -436q59 -40 136 -40q108 0 185 80q76 79 76 199t-83 197z" />
    <glyph glyph-name="Ugrave" unicode="&#xd9;" horiz-adv-x="797" 
d="M120 263v366h-89v77h278v-77h-89v-365q0 -72 27 -115q45 -72 152 -72t152 74q27 47 27 114v364h-89v77h277v-77h-88v-366q0 -102 -49 -172q-35 -50 -95.5 -76.5t-134.5 -26.5q-75 0 -135.5 27t-96.5 76q-47 65 -47 172zM458 755h-91l-124 127h112z" />
    <glyph glyph-name="Uacute" unicode="&#xda;" horiz-adv-x="797" 
d="M120 263v366h-89v77h278v-77h-89v-365q0 -72 27 -115q45 -72 152 -72t152 74q27 47 27 114v364h-89v77h277v-77h-88v-366q0 -102 -49 -172q-35 -50 -95.5 -76.5t-134.5 -26.5q-75 0 -135.5 27t-96.5 76q-47 65 -47 172zM429 755h-91l104 127h111z" />
    <glyph glyph-name="Ucircumflex" unicode="&#xdb;" horiz-adv-x="797" 
d="M120 263v366h-89v77h278v-77h-89v-365q0 -72 27 -115q45 -72 152 -72t152 74q27 47 27 114v364h-89v77h277v-77h-88v-366q0 -102 -49 -172q-35 -50 -95.5 -76.5t-134.5 -26.5q-75 0 -135.5 27t-96.5 76q-47 65 -47 172zM345 755h-87l88 127h105l88 -127h-87l-53 80h-2z
" />
    <glyph glyph-name="Udieresis" unicode="&#xdc;" horiz-adv-x="797" 
d="M120 263v366h-89v77h278v-77h-89v-365q0 -72 27 -115q45 -72 152 -72t152 74q27 47 27 114v364h-89v77h277v-77h-88v-366q0 -102 -49 -172q-35 -50 -95.5 -76.5t-134.5 -26.5q-75 0 -135.5 27t-96.5 76q-47 65 -47 172zM542 781h-86v101h86v-101zM342 781h-86v101h86
v-101z" />
    <glyph glyph-name="Yacute" unicode="&#xdd;" horiz-adv-x="650" 
d="M464 0h-278v78h89v221l-198 330h-67v77h243v-77h-74l131 -222l14 -30h2q6 15 15 30l131 222h-73v77h241v-77h-67l-198 -330v-221h89v-78zM357 755h-91l104 127h111z" />
    <glyph glyph-name="Thorn" unicode="&#xde;" horiz-adv-x="650" 
d="M330 0h-277v78h88v551h-88v77h277v-77h-90v-72h167q97 0 155.5 -51.5t58.5 -140.5q0 -90 -58.5 -143.5t-156.5 -53.5h-166v-90h90v-78zM240 479v-233h146q64 0 99 31t35 88q0 56 -34.5 85t-98.5 29h-147z" />
    <glyph glyph-name="germandbls" unicode="&#xdf;" horiz-adv-x="622" 
d="M208 0h-176v75h80v455q0 89 64 138q65 50 152 50q81 0 136 -47q54 -47 54 -114q0 -33 -16 -61.5t-34.5 -45.5t-34.5 -38t-16 -41t28 -44t61.5 -45t61.5 -57.5t28 -79.5q0 -72 -50 -113q-50 -39 -121 -39q-78 0 -127 22l-14 7v86q55 -31 130 -31q38 0 61 18.5t23 53.5
q0 49 -90 99q-37 23 -63 55t-26 65q0 51 50 97q50 48 50 91q0 33 -25.5 55.5t-69.5 22.5q-49 0 -82.5 -30t-33.5 -81v-523z" />
    <glyph glyph-name="agrave" unicode="&#xe0;" 
d="M33 141q0 101 115 144q32 13 67 17q55 9 113 9h32v19q0 108 -108 108q-33 0 -69.5 -11t-56.5 -25l-19 -13l-39 69q17 13 33 21q80 39 159 39q97 0 147 -49.5t50 -145.5v-226q0 -22 22 -22h51v-75h-101q-63 0 -63 55v7l4 33h-2q-19 -32 -24 -38q-53 -69 -143 -69
q-70 0 -119 40t-49 113zM131 149q0 -37 25 -61.5t66 -24.5q61 0 100 51t39 113v21h-25q-205 0 -205 -99zM322 579h-91l-124 127h112z" />
    <glyph glyph-name="aacute" unicode="&#xe1;" 
d="M33 141q0 101 115 144q32 13 67 17q55 9 113 9h32v19q0 108 -108 108q-33 0 -69.5 -11t-56.5 -25l-19 -13l-39 69q17 13 33 21q80 39 159 39q97 0 147 -49.5t50 -145.5v-226q0 -22 22 -22h51v-75h-101q-63 0 -63 55v7l4 33h-2q-19 -32 -24 -38q-53 -69 -143 -69
q-70 0 -119 40t-49 113zM131 149q0 -37 25 -61.5t66 -24.5q61 0 100 51t39 113v21h-25q-205 0 -205 -99zM293 579h-91l104 127h111z" />
    <glyph glyph-name="acircumflex" unicode="&#xe2;" 
d="M33 141q0 101 115 144q32 13 67 17q55 9 113 9h32v19q0 108 -108 108q-33 0 -69.5 -11t-56.5 -25l-19 -13l-39 69q17 13 33 21q80 39 159 39q97 0 147 -49.5t50 -145.5v-226q0 -22 22 -22h51v-75h-101q-63 0 -63 55v7l4 33h-2q-19 -32 -24 -38q-53 -69 -143 -69
q-70 0 -119 40t-49 113zM131 149q0 -37 25 -61.5t66 -24.5q61 0 100 51t39 113v21h-25q-205 0 -205 -99zM209 579h-87l88 127h105l88 -127h-87l-53 80h-2z" />
    <glyph glyph-name="atilde" unicode="&#xe3;" 
d="M33 141q0 101 115 144q32 13 67 17q55 9 113 9h32v19q0 108 -108 108q-33 0 -69.5 -11t-56.5 -25l-19 -13l-39 69q17 13 33 21q80 39 159 39q97 0 147 -49.5t50 -145.5v-226q0 -22 22 -22h51v-75h-101q-63 0 -63 55v7l4 33h-2q-19 -32 -24 -38q-53 -69 -143 -69
q-70 0 -119 40t-49 113zM131 149q0 -37 25 -61.5t66 -24.5q61 0 100 51t39 113v21h-25q-205 0 -205 -99zM165 580h-72q0 127 102 127q24 0 44 -10.5t31 -23t25 -23t27 -10.5q40 0 40 64h72q0 -127 -102 -127q-24 0 -44 10.5t-31 23t-25 23t-27 10.5q-40 0 -40 -64z" />
    <glyph glyph-name="adieresis" unicode="&#xe4;" 
d="M33 141q0 101 115 144q32 13 67 17q55 9 113 9h32v19q0 108 -108 108q-33 0 -69.5 -11t-56.5 -25l-19 -13l-39 69q17 13 33 21q80 39 159 39q97 0 147 -49.5t50 -145.5v-226q0 -22 22 -22h51v-75h-101q-63 0 -63 55v7l4 33h-2q-19 -32 -24 -38q-53 -69 -143 -69
q-70 0 -119 40t-49 113zM131 149q0 -37 25 -61.5t66 -24.5q61 0 100 51t39 113v21h-25q-205 0 -205 -99zM406 605h-86v101h86v-101zM206 605h-86v101h86v-101z" />
    <glyph glyph-name="aring" unicode="&#xe5;" 
d="M33 141q0 101 115 144q32 13 67 17q55 9 113 9h32v19q0 108 -108 108q-33 0 -69.5 -11t-56.5 -25l-19 -13l-39 69q17 13 33 21q80 39 159 39q97 0 147 -49.5t50 -145.5v-226q0 -22 22 -22h51v-75h-101q-63 0 -63 55v7l4 33h-2q-19 -32 -24 -38q-53 -69 -143 -69
q-70 0 -119 40t-49 113zM131 149q0 -37 25 -61.5t66 -24.5q61 0 100 51t39 113v21h-25q-205 0 -205 -99zM171 643q0 37 26.5 60t65.5 23t66.5 -23.5t27.5 -59.5q0 -35 -27.5 -57.5t-66.5 -22.5t-65.5 22.5t-26.5 57.5zM263 607q17 0 27 10t10 26q0 18 -10 28.5t-27 10.5
q-16 0 -26 -10.5t-10 -28.5q0 -16 10 -26t26 -10z" />
    <glyph glyph-name="ae" unicode="&#xe6;" horiz-adv-x="863" 
d="M34 141q-3 54 29 90t81 53q33 12 66 16q58 8 124 8h27v17q0 113 -111 113q-33 0 -69.5 -11t-56.5 -25l-18 -13l-39 69q3 3 23 17q13 8 66 26q51 17 102 17q123 0 164 -89h2q62 89 180 89q101 0 159 -67t58 -169l-3 -37h-363q4 -83 50 -129.5t119 -46.5q36 0 73.5 13.5
t57.5 30.5l18 15l40 -68q-9 -9 -24 -20q-19 -13 -67 -32q-52 -20 -104 -20q-74 0 -130.5 33t-87.5 94h-2q-12 -32 -49 -73q-49 -54 -141 -54q-72 0 -124 41q-50 41 -50 112zM459 308h264q-2 61 -36.5 97t-84.5 36q-57 0 -95 -35t-48 -98zM131 146q0 -35 25.5 -58.5
t68.5 -23.5q59 0 98 51t39 112v18h-47q-184 0 -184 -99z" />
    <glyph glyph-name="ccedilla" unicode="&#xe7;" horiz-adv-x="553" 
d="M261 -97h-18l24 89q-99 14 -163 84t-64 176q0 115 77 190q76 76 191 76q31 0 63 -6t63.5 -18.5t51.5 -36t20 -54.5v-62h-86v35q0 27 -35 42q-33 16 -74 16q-77 0 -124.5 -49.5t-47.5 -130.5q0 -84 51 -133q50 -49 127 -49q40 0 78 16q41 16 51 24l33 25l37 -71
q-19 -18 -38 -30q-25 -16 -66 -31q-42 -15 -91 -17l-10 -44q33 -2 56 -23.5t23 -51.5q0 -41 -31.5 -63.5t-79.5 -22.5q-33 0 -48 5l-7 2v53q20 -6 45 -6q50 0 50 32q0 34 -58 34z" />
    <glyph glyph-name="egrave" unicode="&#xe8;" 
d="M41 253q0 118 71 192q72 73 182 73q104 0 161 -67q58 -67 58 -170l-3 -37h-370q4 -80 54 -127q50 -45 121 -45q36 0 74.5 13t58.5 29l18 15l40 -71q-17 -14 -25 -20q-19 -13 -67 -31q-50 -19 -105 -19q-118 0 -193 75q-75 77 -75 190zM144 306h269q-2 62 -36 98.5
t-85 36.5q-57 0 -97.5 -36.5t-50.5 -98.5zM354 579h-91l-124 127h112z" />
    <glyph glyph-name="eacute" unicode="&#xe9;" 
d="M41 253q0 118 71 192q72 73 182 73q104 0 161 -67q58 -67 58 -170l-3 -37h-370q4 -80 54 -127q50 -45 121 -45q36 0 74.5 13t58.5 29l18 15l40 -71q-17 -14 -25 -20q-19 -13 -67 -31q-50 -19 -105 -19q-118 0 -193 75q-75 77 -75 190zM144 306h269q-2 62 -36 98.5
t-85 36.5q-57 0 -97.5 -36.5t-50.5 -98.5zM325 579h-91l104 127h111z" />
    <glyph glyph-name="ecircumflex" unicode="&#xea;" 
d="M41 253q0 118 71 192q72 73 182 73q104 0 161 -67q58 -67 58 -170l-3 -37h-370q4 -80 54 -127q50 -45 121 -45q36 0 74.5 13t58.5 29l18 15l40 -71q-17 -14 -25 -20q-19 -13 -67 -31q-50 -19 -105 -19q-118 0 -193 75q-75 77 -75 190zM144 306h269q-2 62 -36 98.5
t-85 36.5q-57 0 -97.5 -36.5t-50.5 -98.5zM241 579h-87l88 127h105l88 -127h-87l-53 80h-2z" />
    <glyph glyph-name="edieresis" unicode="&#xeb;" 
d="M41 253q0 118 71 192q72 73 182 73q104 0 161 -67q58 -67 58 -170l-3 -37h-370q4 -80 54 -127q50 -45 121 -45q36 0 74.5 13t58.5 29l18 15l40 -71q-17 -14 -25 -20q-19 -13 -67 -31q-50 -19 -105 -19q-118 0 -193 75q-75 77 -75 190zM144 306h269q-2 62 -36 98.5
t-85 36.5q-57 0 -97.5 -36.5t-50.5 -98.5zM438 605h-86v101h86v-101zM238 605h-86v101h86v-101z" />
    <glyph glyph-name="igrave" unicode="&#xec;" horiz-adv-x="323" 
d="M291 0h-244v75h74v356h-76v75h173v-431h73v-75zM228 579h-91l-124 127h112z" />
    <glyph glyph-name="iacute" unicode="&#xed;" horiz-adv-x="323" 
d="M291 0h-244v75h74v356h-76v75h173v-431h73v-75zM199 579h-91l104 127h111z" />
    <glyph glyph-name="icircumflex" unicode="&#xee;" horiz-adv-x="323" 
d="M115 579h-87l88 127h105l88 -127h-87l-53 80h-2zM291 0h-244v75h74v356h-76v75h173v-431h73v-75z" />
    <glyph glyph-name="idieresis" unicode="&#xef;" horiz-adv-x="323" 
d="M291 0h-244v75h74v356h-76v75h173v-431h73v-75zM294 605h-86v101h86v-101zM121 605h-86v101h86v-101z" />
    <glyph glyph-name="eth" unicode="&#xf0;" horiz-adv-x="590" 
d="M43 235q0 95 63 163t173 68q34 0 65 -10t45 -22l13 -10h2q-32 84 -111 136l-178 -78l-10 52l129 58q-65 32 -134 48l27 79q123 -29 212 -83l133 60l10 -53l-95 -43q146 -120 146 -325q0 -53 -14.5 -102t-43.5 -91.5t-79.5 -68t-115.5 -25.5q-109 0 -173 73t-64 174z
M141 233q0 -67 37 -114q38 -47 104 -47q75 0 114 56.5t39 129.5q0 57 -39 93.5t-102 36.5q-73 0 -113 -46q-40 -44 -40 -109z" />
    <glyph glyph-name="ntilde" unicode="&#xf1;" horiz-adv-x="689" 
d="M304 0h-256v75h79v334q0 22 -22 22h-62v75h114q64 0 64 -56v-26l-3 -29h2q13 31 53 71q56 52 144 52q86 0 127 -47.5t41 -146.5v-249h80v-75h-177v302q0 65 -20.5 96t-74.5 31q-74 0 -122 -58q-47 -58 -47 -136v-160h80v-75zM266 580h-72q0 127 102 127q24 0 44 -10.5
t31 -23t25 -23t27 -10.5q40 0 40 64h72q0 -127 -102 -127q-24 0 -44 10.5t-31 23t-25 23t-27 10.5q-40 0 -40 -64z" />
    <glyph glyph-name="ograve" unicode="&#xf2;" horiz-adv-x="626" 
d="M119 64q-79 76 -79 190t79 189t194 75t194 -75t79 -189q0 -113 -80 -190q-79 -76 -193 -76q-115 0 -194 76zM139 254q0 -78 50 -131q51 -51 124 -51q72 0 123 52t51 130t-51 129t-123 51q-73 0 -124 -51q-50 -52 -50 -129zM372 579h-91l-124 127h112z" />
    <glyph glyph-name="oacute" unicode="&#xf3;" horiz-adv-x="626" 
d="M119 64q-79 76 -79 190t79 189t194 75t194 -75t79 -189q0 -113 -80 -190q-79 -76 -193 -76q-115 0 -194 76zM139 254q0 -78 50 -131q51 -51 124 -51q72 0 123 52t51 130t-51 129t-123 51q-73 0 -124 -51q-50 -52 -50 -129zM344 579h-91l104 127h111z" />
    <glyph glyph-name="ocircumflex" unicode="&#xf4;" horiz-adv-x="626" 
d="M260 579h-87l88 127h105l88 -127h-87l-53 80h-2zM119 64q-79 76 -79 190t79 189t194 75t194 -75t79 -189q0 -113 -80 -190q-79 -76 -193 -76q-115 0 -194 76zM139 254q0 -78 50 -131q51 -51 124 -51q72 0 123 52t51 130t-51 129t-123 51q-73 0 -124 -51q-50 -52 -50 -129
z" />
    <glyph glyph-name="otilde" unicode="&#xf5;" horiz-adv-x="626" 
d="M119 64q-79 76 -79 190t79 189t194 75t194 -75t79 -189q0 -113 -80 -190q-79 -76 -193 -76q-115 0 -194 76zM139 254q0 -78 50 -131q51 -51 124 -51q72 0 123 52t51 130t-51 129t-123 51q-73 0 -124 -51q-50 -52 -50 -129zM215 580h-72q0 127 102 127q24 0 44 -10.5
t31 -23t25 -23t27 -10.5q40 0 40 64h72q0 -127 -102 -127q-24 0 -44 10.5t-31 23t-25 23t-27 10.5q-40 0 -40 -64z" />
    <glyph glyph-name="odieresis" unicode="&#xf6;" horiz-adv-x="626" 
d="M119 64q-79 76 -79 190t79 189t194 75t194 -75t79 -189q0 -113 -80 -190q-79 -76 -193 -76q-115 0 -194 76zM139 254q0 -78 50 -131q51 -51 124 -51q72 0 123 52t51 130t-51 129t-123 51q-73 0 -124 -51q-50 -52 -50 -129zM456 605h-86v101h86v-101zM256 605h-86v101h86
v-101z" />
    <glyph glyph-name="divide" unicode="&#xf7;" horiz-adv-x="613" 
d="M353 435h-94v91h94v-91zM559 246h-505v78h505v-78zM353 44h-94v91h94v-91z" />
    <glyph glyph-name="oslash" unicode="&#xf8;" horiz-adv-x="626" 
d="M144 -36l-43 31l37 53q-97 78 -97 206q0 114 79 189q80 75 193 75q72 0 137 -35l40 55l43 -30l-39 -54q92 -80 92 -200q0 -113 -80 -190q-79 -76 -193 -76q-68 0 -130 32zM193 124l206 287q-44 23 -86 23q-72 0 -123 -51t-51 -129q0 -74 54 -130zM439 377l-204 -285
q38 -20 78 -20q73 0 123 51q51 52 51 131q0 70 -48 123z" />
    <glyph glyph-name="ugrave" unicode="&#xf9;" horiz-adv-x="665" 
d="M105 182v249h-85v75h182v-304q0 -65 20.5 -95.5t74.5 -30.5q73 0 118 59q46 58 46 138v158h-85v75h182v-410q0 -22 22 -22h53v-74h-105q-64 0 -64 56v22l2 30h-2q-14 -33 -53 -70q-52 -50 -140 -50q-166 0 -166 194zM378 579h-91l-124 127h112z" />
    <glyph glyph-name="uacute" unicode="&#xfa;" horiz-adv-x="665" 
d="M105 182v249h-85v75h182v-304q0 -65 20.5 -95.5t74.5 -30.5q73 0 118 59q46 58 46 138v158h-85v75h182v-410q0 -22 22 -22h53v-74h-105q-64 0 -64 56v22l2 30h-2q-14 -33 -53 -70q-52 -50 -140 -50q-166 0 -166 194zM350 579h-91l104 127h111z" />
    <glyph glyph-name="ucircumflex" unicode="&#xfb;" horiz-adv-x="665" 
d="M105 182v249h-85v75h182v-304q0 -65 20.5 -95.5t74.5 -30.5q73 0 118 59q46 58 46 138v158h-85v75h182v-410q0 -22 22 -22h53v-74h-105q-64 0 -64 56v22l2 30h-2q-14 -33 -53 -70q-52 -50 -140 -50q-166 0 -166 194zM265 579h-87l88 127h105l88 -127h-87l-53 80h-2z" />
    <glyph glyph-name="udieresis" unicode="&#xfc;" horiz-adv-x="665" 
d="M105 182v249h-85v75h182v-304q0 -65 20.5 -95.5t74.5 -30.5q73 0 118 59q46 58 46 138v158h-85v75h182v-410q0 -22 22 -22h53v-74h-105q-64 0 -64 56v22l2 30h-2q-14 -33 -53 -70q-52 -50 -140 -50q-166 0 -166 194zM462 605h-86v101h86v-101zM262 605h-86v101h86v-101z
" />
    <glyph glyph-name="yacute" unicode="&#xfd;" horiz-adv-x="590" 
d="M31 -178l33 73q28 -24 72 -24q63 0 93 70l21 50l-177 440h-64v75h231v-75h-67l113 -301l9 -44h3q4 20 12 44l112 301h-65v75h224v-75h-63l-200 -511q-25 -63 -71.5 -96.5t-106.5 -33.5q-59 0 -96 24zM331 579h-91l104 127h111z" />
    <glyph glyph-name="thorn" unicode="&#xfe;" horiz-adv-x="608" 
d="M85 631h-82v75h179v-232l-2 -42h2q1 1 3 4.5t6 10t12 15.5q48 53 139 56q101 0 163 -74q61 -73 61 -191t-64 -191q-63 -74 -163 -74q-60 0 -98.5 25t-53.5 51l-5 9h-2q2 -24 2 -44v-154h79v-75h-256v75h80v756zM179 252q0 -80 40 -130t105 -50q62 0 103 50t41 131
t-39 130q-39 51 -103 51q-66 0 -106.5 -46.5t-40.5 -135.5z" />
    <glyph glyph-name="ydieresis" unicode="&#xff;" horiz-adv-x="590" 
d="M31 -178l33 73q28 -24 72 -24q63 0 93 70l21 50l-177 440h-64v75h231v-75h-67l113 -301l9 -44h3q4 20 12 44l112 301h-65v75h224v-75h-63l-200 -511q-25 -63 -71.5 -96.5t-106.5 -33.5q-59 0 -96 24zM443 605h-86v101h86v-101zM243 605h-86v101h86v-101z" />
    <glyph glyph-name="Amacron" unicode="&#x100;" horiz-adv-x="721" 
d="M256 0h-245v78h68l225 628h113l225 -628h68v-78h-245v78h75l-55 157h-250l-55 -157h76v-78zM347 560l-87 -245h200l-86 245q-9 32 -11 47l-1 7h-3q-3 -26 -12 -54zM488 784h-255v71h255v-71z" />
    <glyph glyph-name="amacron" unicode="&#x101;" 
d="M33 141q0 101 115 144q32 13 67 17q55 9 113 9h32v19q0 108 -108 108q-33 0 -69.5 -11t-56.5 -25l-19 -13l-39 69q17 13 33 21q80 39 159 39q97 0 147 -49.5t50 -145.5v-226q0 -22 22 -22h51v-75h-101q-63 0 -63 55v7l4 33h-2q-19 -32 -24 -38q-53 -69 -143 -69
q-70 0 -119 40t-49 113zM131 149q0 -37 25 -61.5t66 -24.5q61 0 100 51t39 113v21h-25q-205 0 -205 -99zM391 608h-255v71h255v-71z" />
    <glyph glyph-name="Abreve" unicode="&#x102;" horiz-adv-x="721" 
d="M256 0h-245v78h68l225 628h113l225 -628h68v-78h-245v78h75l-55 157h-250l-55 -157h76v-78zM347 560l-87 -245h200l-86 245q-9 32 -11 47l-1 7h-3q-3 -26 -12 -54zM360 751q-58 0 -95.5 31.5t-37.5 85.5v14h74v-13q0 -28 16.5 -43.5t42.5 -15.5q24 0 41 16t17 44v12h74
v-14q0 -53 -38 -85t-94 -32z" />
    <glyph glyph-name="abreve" unicode="&#x103;" 
d="M33 141q0 101 115 144q32 13 67 17q55 9 113 9h32v19q0 108 -108 108q-33 0 -69.5 -11t-56.5 -25l-19 -13l-39 69q17 13 33 21q80 39 159 39q97 0 147 -49.5t50 -145.5v-226q0 -22 22 -22h51v-75h-101q-63 0 -63 55v7l4 33h-2q-19 -32 -24 -38q-53 -69 -143 -69
q-70 0 -119 40t-49 113zM131 149q0 -37 25 -61.5t66 -24.5q61 0 100 51t39 113v21h-25q-205 0 -205 -99zM263 575q-58 0 -95.5 31.5t-37.5 85.5v14h74v-13q0 -28 16.5 -43.5t42.5 -15.5q24 0 41 16t17 44v12h74v-14q0 -53 -38 -85t-94 -32z" />
    <glyph glyph-name="Aogonek" unicode="&#x104;" horiz-adv-x="721" 
d="M548 -119q0 68 67 119h-150v78h75l-55 157h-250l-55 -157h76v-78h-245v78h68l225 628h113l225 -628h68v-78h-5q-18 0 -50 -35q-31 -35 -31 -68q0 -22 19 -34t45 -15l-18 -68q-23 3 -51 11q-28 10 -49.5 34t-21.5 56zM347 560l-87 -245h200l-86 245q-9 32 -11 47l-1 7h-3
q-3 -26 -12 -54z" />
    <glyph glyph-name="aogonek" unicode="&#x105;" 
d="M367 -119q0 66 68 119h-9q-60 0 -60 55v7l4 33h-2q-19 -32 -24 -38q-53 -69 -143 -69q-70 0 -119 40t-49 113q0 101 115 144q32 13 67 17q55 9 113 9h32v19q0 108 -108 108q-33 0 -69.5 -11t-56.5 -25l-19 -13l-39 69q17 13 33 21q80 39 159 39q97 0 147 -49.5t50 -145.5
v-226q0 -22 22 -22h51v-75h-5q-18 0 -50 -35q-31 -35 -31 -68q0 -22 19 -34t44 -15l-18 -68q-18 2 -36 7t-39 16t-34 31t-13 47zM131 149q0 -37 25 -61.5t66 -24.5q61 0 100 51t39 113v21h-25q-205 0 -205 -99z" />
    <glyph glyph-name="Cacute" unicode="&#x106;" horiz-adv-x="744" 
d="M49 357q0 155 103 258t258 103q79 0 165 -29q46 -15 75 -44.5t29 -66.5v-86h-93v55q0 30 -31 49q-53 36 -141 36q-115 0 -188 -76q-74 -77 -74 -195q0 -126 76 -206q77 -80 192 -80q32 0 69 6q37 7 72 27t35 50v55h93v-86q0 -36 -28 -65t-74 -44q-89 -30 -173 -30
q-159 0 -262 106t-103 263zM429 755h-91l104 127h111z" />
    <glyph glyph-name="cacute" unicode="&#x107;" horiz-adv-x="553" 
d="M40 252q0 115 77 190q76 76 191 76q31 0 63 -6t63.5 -18.5t51.5 -36t20 -54.5v-62h-86v35q0 27 -35 42q-33 16 -74 16q-77 0 -124.5 -49.5t-47.5 -130.5q0 -84 51 -133q50 -49 127 -49q40 0 78 16q41 16 51 24l33 25l37 -71q-86 -78 -203 -78q-115 0 -194 72
q-79 73 -79 192zM326 579h-91l104 127h111z" />
    <glyph glyph-name="Ccircumflex" unicode="&#x108;" horiz-adv-x="744" 
d="M49 357q0 155 103 258t258 103q79 0 165 -29q46 -15 75 -44.5t29 -66.5v-86h-93v55q0 30 -31 49q-53 36 -141 36q-115 0 -188 -76q-74 -77 -74 -195q0 -126 76 -206q77 -80 192 -80q32 0 69 6q37 7 72 27t35 50v55h93v-86q0 -36 -28 -65t-74 -44q-89 -30 -173 -30
q-159 0 -262 106t-103 263zM345 755h-87l88 127h105l88 -127h-87l-53 80h-2z" />
    <glyph glyph-name="ccircumflex" unicode="&#x109;" horiz-adv-x="553" 
d="M40 252q0 115 77 190q76 76 191 76q31 0 63 -6t63.5 -18.5t51.5 -36t20 -54.5v-62h-86v35q0 27 -35 42q-33 16 -74 16q-77 0 -124.5 -49.5t-47.5 -130.5q0 -84 51 -133q50 -49 127 -49q40 0 78 16q41 16 51 24l33 25l37 -71q-86 -78 -203 -78q-115 0 -194 72
q-79 73 -79 192zM242 579h-87l88 127h105l88 -127h-87l-53 80h-2z" />
    <glyph glyph-name="Cdotaccent" unicode="&#x10a;" horiz-adv-x="744" 
d="M49 357q0 155 103 258t258 103q79 0 165 -29q46 -15 75 -44.5t29 -66.5v-86h-93v55q0 30 -31 49q-53 36 -141 36q-115 0 -188 -76q-74 -77 -74 -195q0 -126 76 -206q77 -80 192 -80q32 0 69 6q37 7 72 27t35 50v55h93v-86q0 -36 -28 -65t-74 -44q-89 -30 -173 -30
q-159 0 -262 106t-103 263zM444 784h-91v98h91v-98z" />
    <glyph glyph-name="cdotaccent" unicode="&#x10b;" horiz-adv-x="553" 
d="M40 252q0 115 77 190q76 76 191 76q31 0 63 -6t63.5 -18.5t51.5 -36t20 -54.5v-62h-86v35q0 27 -35 42q-33 16 -74 16q-77 0 -124.5 -49.5t-47.5 -130.5q0 -84 51 -133q50 -49 127 -49q40 0 78 16q41 16 51 24l33 25l37 -71q-86 -78 -203 -78q-115 0 -194 72
q-79 73 -79 192zM341 608h-91v98h91v-98z" />
    <glyph glyph-name="Ccaron" unicode="&#x10c;" horiz-adv-x="744" 
d="M49 357q0 155 103 258t258 103q79 0 165 -29q46 -15 75 -44.5t29 -66.5v-86h-93v55q0 30 -31 49q-53 36 -141 36q-115 0 -188 -76q-74 -77 -74 -195q0 -126 76 -206q77 -80 192 -80q32 0 69 6q37 7 72 27t35 50v55h93v-86q0 -36 -28 -65t-74 -44q-89 -30 -173 -30
q-159 0 -262 106t-103 263zM451 755h-105l-88 127h87l52 -81h2l53 81h87z" />
    <glyph glyph-name="ccaron" unicode="&#x10d;" horiz-adv-x="553" 
d="M40 252q0 115 77 190q76 76 191 76q31 0 63 -6t63.5 -18.5t51.5 -36t20 -54.5v-62h-86v35q0 27 -35 42q-33 16 -74 16q-77 0 -124.5 -49.5t-47.5 -130.5q0 -84 51 -133q50 -49 127 -49q40 0 78 16q41 16 51 24l33 25l37 -71q-86 -78 -203 -78q-115 0 -194 72
q-79 73 -79 192zM348 579h-105l-88 127h87l52 -81h2l53 81h87z" />
    <glyph glyph-name="Dcaron" unicode="&#x10e;" horiz-adv-x="779" 
d="M417 755h-105l-88 127h87l52 -81h2l53 81h87zM355 0h-302v78h88v551h-88v77h301q91 0 150 -17q104 -33 163.5 -121.5t59.5 -214.5t-58.5 -213.5t-164.5 -120.5q-57 -19 -149 -19zM241 624v-542h108q73 0 120 18q72 25 113 91.5t41 161.5t-40.5 162t-112.5 93
q-44 16 -121 16h-108z" />
    <glyph glyph-name="dcaron" unicode="&#x10f;" horiz-adv-x="629" 
d="M590 706h85q7 -20 7 -49q0 -77 -76 -118l-42 34q38 36 38 78q0 24 -12 55zM42 253q0 120 63 192q64 73 167 73q59 0 98 -25.5t53 -50.5l5 -9h2q-3 17 -3 38v160h-84v75h181v-609q0 -22 22 -22h51v-75h-101q-63 0 -63 55v7l3 27h-2q-17 -29 -23 -36q-54 -65 -148 -65
q-101 0 -161 73t-60 192zM141 253q0 -81 39.5 -131t103.5 -50t105 47t41 133q0 75 -38 128t-105 53q-64 0 -105 -48.5t-41 -131.5z" />
    <glyph glyph-name="Dcroat" unicode="&#x110;" horiz-adv-x="787" 
d="M377 0h-324v78h88v234h-75v82h75v235h-88v77h324q164 0 261 -94q97 -93 97 -258q0 -166 -97 -260t-261 -94zM241 312v-230h129q121 0 191 71.5t70 200.5q0 128 -71 199t-190 71h-129v-230h155v-82h-155z" />
    <glyph glyph-name="dslash" unicode="&#x111;" horiz-adv-x="629" 
d="M42 253q0 120 63 192q64 73 167 73q59 0 98 -26t53 -52l5 -9h2q-3 17 -3 38v96h-150v63h150v78h97v-78h76v-63h-76v-468q0 -22 22 -22h51v-75h-101q-63 0 -63 55v7l3 27h-2q-17 -29 -23 -36q-54 -65 -148 -65q-101 0 -161 73t-60 192zM141 253q0 -81 39.5 -131t103.5 -50
t105 47t41 133q0 75 -38 128t-105 53q-64 0 -105 -48.5t-41 -131.5z" />
    <glyph glyph-name="Emacron" unicode="&#x112;" horiz-adv-x="632" 
d="M581 0h-528v78h88v551h-88v77h511v-164h-87v82h-236v-227h250v-82h-250v-233h253v85h87v-167zM454 784h-255v71h255v-71z" />
    <glyph glyph-name="emacron" unicode="&#x113;" 
d="M41 253q0 118 71 192q72 73 182 73q104 0 161 -67q58 -67 58 -170l-3 -37h-370q4 -80 54 -127q50 -45 121 -45q36 0 74.5 13t58.5 29l18 15l40 -71q-17 -14 -25 -20q-19 -13 -67 -31q-50 -19 -105 -19q-118 0 -193 75q-75 77 -75 190zM144 306h269q-2 62 -36 98.5
t-85 36.5q-57 0 -97.5 -36.5t-50.5 -98.5zM423 608h-255v71h255v-71z" />
    <glyph glyph-name="Ebreve" unicode="&#x114;" horiz-adv-x="632" 
d="M581 0h-528v78h88v551h-88v77h511v-164h-87v82h-236v-227h250v-82h-250v-233h253v85h87v-167zM326 751q-58 0 -95.5 31.5t-37.5 85.5v14h74v-13q0 -28 16.5 -43.5t42.5 -15.5q24 0 41 16t17 44v12h74v-14q0 -53 -38 -85t-94 -32z" />
    <glyph glyph-name="ebreve" unicode="&#x115;" 
d="M41 253q0 118 71 192q72 73 182 73q104 0 161 -67q58 -67 58 -170l-3 -37h-370q4 -80 54 -127q50 -45 121 -45q36 0 74.5 13t58.5 29l18 15l40 -71q-17 -14 -25 -20q-19 -13 -67 -31q-50 -19 -105 -19q-118 0 -193 75q-75 77 -75 190zM144 306h269q-2 62 -36 98.5
t-85 36.5q-57 0 -97.5 -36.5t-50.5 -98.5zM295 575q-58 0 -95.5 31.5t-37.5 85.5v14h74v-13q0 -28 16.5 -43.5t42.5 -15.5q24 0 41 16t17 44v12h74v-14q0 -53 -38 -85t-94 -32z" />
    <glyph glyph-name="Edotaccent" unicode="&#x116;" horiz-adv-x="632" 
d="M581 0h-528v78h88v551h-88v77h511v-164h-87v82h-236v-227h250v-82h-250v-233h253v85h87v-167zM371 784h-91v98h91v-98z" />
    <glyph glyph-name="edotaccent" unicode="&#x117;" 
d="M41 253q0 118 71 192q72 73 182 73q104 0 161 -67q58 -67 58 -170l-3 -37h-370q4 -80 54 -127q50 -45 121 -45q36 0 74.5 13t58.5 29l18 15l40 -71q-17 -14 -25 -20q-19 -13 -67 -31q-50 -19 -105 -19q-118 0 -193 75q-75 77 -75 190zM144 306h269q-2 62 -36 98.5
t-85 36.5q-57 0 -97.5 -36.5t-50.5 -98.5zM340 608h-91v98h91v-98z" />
    <glyph glyph-name="Eogonek" unicode="&#x118;" horiz-adv-x="632" 
d="M484 0h-431v78h88v551h-88v77h511v-164h-87v82h-236v-227h250v-82h-250v-233h253v85h87v-167h-6q-18 0 -50 -35q-32 -37 -32 -68q0 -22 19 -34t44 -15l-18 -68q-18 2 -36 7t-39 16t-34 31t-13 47q0 66 68 119z" />
    <glyph glyph-name="eogonek" unicode="&#x119;" 
d="M41 253q0 118 71 192q72 73 182 73q104 0 161 -67q58 -67 58 -170l-3 -37h-370q4 -80 54 -127q50 -45 121 -45q36 0 74.5 13t58.5 29l18 15l40 -71q-33 -26 -84 -52q-21 -11 -50 -41q-29 -32 -29 -68q0 -22 19 -34t44 -15l-18 -68q-18 2 -36 7t-39 16t-34 31t-13 47
q0 59 55 108q-122 -6 -202 71q-78 78 -78 193zM144 306h269q-2 62 -36 98.5t-85 36.5q-57 0 -97.5 -36.5t-50.5 -98.5z" />
    <glyph glyph-name="Ecaron" unicode="&#x11a;" horiz-adv-x="632" 
d="M581 0h-528v78h88v551h-88v77h511v-164h-87v82h-236v-227h250v-82h-250v-233h253v85h87v-167zM379 755h-105l-88 127h87l52 -81h2l53 81h87z" />
    <glyph glyph-name="ecaron" unicode="&#x11b;" 
d="M41 253q0 118 71 192q72 73 182 73q104 0 161 -67q58 -67 58 -170l-3 -37h-370q4 -80 54 -127q50 -45 121 -45q36 0 74.5 13t58.5 29l18 15l40 -71q-17 -14 -25 -20q-19 -13 -67 -31q-50 -19 -105 -19q-118 0 -193 75q-75 77 -75 190zM144 306h269q-2 62 -36 98.5
t-85 36.5q-57 0 -97.5 -36.5t-50.5 -98.5zM347 579h-105l-88 127h87l52 -81h2l53 81h87z" />
    <glyph glyph-name="Gcircumflex" unicode="&#x11c;" horiz-adv-x="766" 
d="M419 718q99 2 185.5 -38t85.5 -101v-87h-92v52q0 42 -54 64q-52 24 -122 24q-123 0 -196 -76q-73 -74 -73 -198t74 -204q75 -79 198 -79q40 0 78 7q42 8 75 28q36 21 36 53v93h-138v78h230v-198q0 -39 -29.5 -69t-75.5 -46.5t-93 -24.5t-90 -8q-162 0 -266 104
q-103 104 -103 263q0 158 103 260q103 103 267 103zM352 755h-87l88 127h105l88 -127h-87l-53 80h-2z" />
    <glyph glyph-name="gcircumflex" unicode="&#x11d;" horiz-adv-x="626" 
d="M89 -168l32 74q62 -34 139 -34q74 0 117 36t43 108v40l3 32h-2q-49 -82 -152 -82q-104 0 -165 73t-61 186q0 111 59 182q60 71 163 71q55 0 99.5 -21.5t64.5 -61.5h2q-2 10 -2 20q0 51 58 51h108v-75h-56q-22 0 -22 -20v-390q0 -60 -21.5 -106t-58.5 -72.5t-81 -39.5
t-94 -13q-89 0 -173 42zM288 90q62 0 98 42.5t36 131.5q0 170 -143 170q-65 0 -101 -44.5t-36 -122.5q0 -80 39.5 -128.5t106.5 -48.5zM246 579h-87l88 127h105l88 -127h-87l-53 80h-2z" />
    <glyph glyph-name="Gbreve" unicode="&#x11e;" horiz-adv-x="766" 
d="M419 718q99 2 185.5 -38t85.5 -101v-87h-92v52q0 42 -54 64q-52 24 -122 24q-123 0 -196 -76q-73 -74 -73 -198t74 -204q75 -79 198 -79q40 0 78 7q42 8 75 28q36 21 36 53v93h-138v78h230v-198q0 -39 -29.5 -69t-75.5 -46.5t-93 -24.5t-90 -8q-162 0 -266 104
q-103 104 -103 263q0 158 103 260q103 103 267 103zM406 751q-58 0 -95.5 31.5t-37.5 85.5v14h74v-13q0 -28 16.5 -43.5t42.5 -15.5q24 0 41 16t17 44v12h74v-14q0 -53 -38 -85t-94 -32z" />
    <glyph glyph-name="gbreve" unicode="&#x11f;" horiz-adv-x="626" 
d="M89 -168l32 74q62 -34 139 -34q74 0 117 36t43 108v40l3 32h-2q-49 -82 -152 -82q-104 0 -165 73t-61 186q0 111 59 182q60 71 163 71q55 0 99.5 -21.5t64.5 -61.5h2q-2 10 -2 20q0 51 58 51h108v-75h-56q-22 0 -22 -20v-390q0 -60 -21.5 -106t-58.5 -72.5t-81 -39.5
t-94 -13q-89 0 -173 42zM288 90q62 0 98 42.5t36 131.5q0 170 -143 170q-65 0 -101 -44.5t-36 -122.5q0 -80 39.5 -128.5t106.5 -48.5zM300 575q-58 0 -95.5 31.5t-37.5 85.5v14h74v-13q0 -28 16.5 -43.5t42.5 -15.5q24 0 41 16t17 44v12h74v-14q0 -53 -38 -85t-94 -32z" />
    <glyph glyph-name="Gdotaccent" unicode="&#x120;" horiz-adv-x="766" 
d="M419 718q99 2 185.5 -38t85.5 -101v-87h-92v52q0 42 -54 64q-52 24 -122 24q-123 0 -196 -76q-73 -74 -73 -198t74 -204q75 -79 198 -79q40 0 78 7q42 8 75 28q36 21 36 53v93h-138v78h230v-198q0 -39 -29.5 -69t-75.5 -46.5t-93 -24.5t-90 -8q-162 0 -266 104
q-103 104 -103 263q0 158 103 260q103 103 267 103zM451 784h-91v98h91v-98z" />
    <glyph glyph-name="gdotaccent" unicode="&#x121;" horiz-adv-x="626" 
d="M89 -168l32 74q62 -34 139 -34q74 0 117 36t43 108v40l3 32h-2q-49 -82 -152 -82q-104 0 -165 73t-61 186q0 111 59 182q60 71 163 71q55 0 99.5 -21.5t64.5 -61.5h2q-2 10 -2 20q0 51 58 51h108v-75h-56q-22 0 -22 -20v-390q0 -60 -21.5 -106t-58.5 -72.5t-81 -39.5
t-94 -13q-89 0 -173 42zM288 90q62 0 98 42.5t36 131.5q0 170 -143 170q-65 0 -101 -44.5t-36 -122.5q0 -80 39.5 -128.5t106.5 -48.5zM345 608h-91v98h91v-98z" />
    <glyph glyph-name="Gcommaaccent" unicode="&#x122;" horiz-adv-x="766" 
d="M419 718q99 2 185.5 -38t85.5 -101v-87h-92v52q0 42 -54 64q-52 24 -122 24q-123 0 -196 -76q-73 -74 -73 -198t74 -204q75 -79 198 -79q40 0 78 7q42 8 75 28q36 21 36 53v93h-138v78h230v-198q0 -39 -29.5 -69t-75.5 -46.5t-93 -24.5t-90 -8q-162 0 -266 104
q-103 104 -103 263q0 158 103 260q103 103 267 103zM361 -58h85q7 -20 7 -49q0 -77 -76 -118l-42 34q38 36 38 78q0 23 -12 55z" />
    <glyph glyph-name="gcommaaccent" unicode="&#x123;" horiz-adv-x="626" 
d="M332 575h-85q-7 20 -7 49q0 77 76 118l42 -34q-38 -36 -38 -78q0 -24 12 -55zM89 -168l32 74q62 -34 139 -34q74 0 117 36t43 108v40l3 32h-2q-49 -82 -152 -82q-104 0 -165 73t-61 186q0 111 59 182q60 71 163 71q55 0 99.5 -21.5t64.5 -61.5h2q-2 10 -2 20q0 51 58 51
h108v-75h-56q-22 0 -22 -20v-390q0 -60 -21.5 -106t-58.5 -72.5t-81 -39.5t-94 -13q-89 0 -173 42zM288 90q62 0 98 42.5t36 131.5q0 170 -143 170q-65 0 -101 -44.5t-36 -122.5q0 -80 39.5 -128.5t106.5 -48.5z" />
    <glyph glyph-name="Hcircumflex" unicode="&#x124;" horiz-adv-x="848" 
d="M330 0h-277v78h88v551h-88v77h277v-77h-89v-235h366v235h-89v77h277v-77h-88v-551h88v-78h-277v78h89v234h-366v-234h89v-78zM371 755h-87l88 127h105l88 -127h-87l-53 80h-2z" />
    <glyph glyph-name="hcircumflex" unicode="&#x125;" horiz-adv-x="674" 
d="M288 0h-256v75h80v556h-85v75h181v-262l-3 -42h2q19 43 70 80q50 36 119 36q174 0 174 -194v-249h79v-75h-176v302q0 64 -21 95.5t-75 31.5q-74 0 -122 -55q-47 -56 -47 -137v-162h80v-75zM106 755h-87l88 127h105l88 -127h-87l-53 80h-2z" />
    <glyph glyph-name="Hbar" unicode="&#x126;" horiz-adv-x="848" 
d="M141 482h-82v57h82v90h-88v77h277v-77h-89v-90h366v90h-89v77h277v-77h-88v-90h83v-57h-83v-404h88v-78h-277v78h89v230h-366v-230h89v-78h-277v78h88v404zM241 482v-105h366v105h-366z" />
    <glyph glyph-name="hbar" unicode="&#x127;" horiz-adv-x="674" 
d="M282 0h-250v75h80v490h-72v62h72v79h96v-79h154v-62h-154v-121l-3 -42h2q19 43 70 80q50 36 119 36q174 0 174 -194v-249h79v-75h-176v302q0 64 -21 95.5t-75 31.5q-74 0 -122 -56q-47 -56 -47 -134v-164h74v-75z" />
    <glyph glyph-name="Itilde" unicode="&#x128;" horiz-adv-x="382" 
d="M93 756h-72q0 127 102 127q24 0 44 -10.5t31 -23t25 -23t27 -10.5q40 0 40 64h72q0 -127 -102 -127q-24 0 -44 10.5t-31 23t-25 23t-27 10.5q-40 0 -40 -64zM330 0h-277v78h88v551h-88v77h277v-77h-89v-551h89v-78z" />
    <glyph glyph-name="itilde" unicode="&#x129;" horiz-adv-x="323" 
d="M71 580h-72q0 127 102 127q24 0 44 -10.5t31 -23t25 -23t27 -10.5q40 0 40 64h72q0 -127 -102 -127q-24 0 -44 10.5t-31 23t-25 23t-27 10.5q-40 0 -40 -64zM291 0h-244v75h74v356h-76v75h173v-431h73v-75z" />
    <glyph glyph-name="Imacron" unicode="&#x12a;" horiz-adv-x="382" 
d="M330 0h-277v78h88v551h-88v77h277v-77h-89v-551h89v-78zM319 784h-255v71h255v-71z" />
    <glyph glyph-name="imacron" unicode="&#x12b;" horiz-adv-x="323" 
d="M291 0h-244v75h74v356h-76v75h173v-431h73v-75zM297 608h-255v71h255v-71z" />
    <glyph glyph-name="Ibreve" unicode="&#x12c;" horiz-adv-x="382" 
d="M330 0h-277v78h88v551h-88v77h277v-77h-89v-551h89v-78zM192 751q-58 0 -95.5 31.5t-37.5 85.5v14h74v-13q0 -28 16.5 -43.5t42.5 -15.5q24 0 41 16t17 44v12h74v-14q0 -53 -38 -85t-94 -32z" />
    <glyph glyph-name="ibreve" unicode="&#x12d;" horiz-adv-x="323" 
d="M169 575q-58 0 -95.5 31.5t-37.5 85.5v14h74v-13q0 -28 16.5 -43.5t42.5 -15.5q24 0 41 16t17 44v12h74v-14q0 -53 -38 -85t-94 -32zM291 0h-244v75h74v356h-76v75h173v-431h73v-75z" />
    <glyph glyph-name="Iogonek" unicode="&#x12e;" horiz-adv-x="382" 
d="M232 0h-179v78h88v551h-88v77h277v-77h-89v-551h89v-78h-8q-18 -1 -50 -36q-31 -34 -31 -67q0 -22 19 -34t45 -15l-18 -68q-23 3 -51 11q-28 10 -49.5 34t-21.5 56q0 68 67 119z" />
    <glyph glyph-name="iogonek" unicode="&#x12f;" horiz-adv-x="336" 
d="M207 0h-159v75h79v356h-84v75h181v-431h80v-75h-7q-18 0 -50 -35q-31 -35 -31 -68q0 -22 19 -34t45 -15l-19 -68q-18 2 -36 7t-39 16t-34 31t-13 47q0 66 68 119zM227 607h-102v99h102v-99z" />
    <glyph glyph-name="Idot" unicode="&#x130;" horiz-adv-x="382" 
d="M330 0h-277v78h88v551h-88v77h277v-77h-89v-551h89v-78zM237 784h-91v98h91v-98z" />
    <glyph glyph-name="dotlessi" unicode="&#x131;" horiz-adv-x="323" 
d="M291 0h-244v75h74v356h-76v75h173v-431h73v-75z" />
    <glyph glyph-name="IJ" unicode="&#x132;" horiz-adv-x="734" 
d="M317 0h-264v78h88v551h-88v77h277v-77h-89v-551h76v-78zM372 -3v83q25 -1 46.5 4.5t43.5 20t35 45.5t13 75v404h-93v77h278v-77h-85v-396q0 -142 -77 -195q-68 -46 -161 -41z" />
    <glyph glyph-name="ij" unicode="&#x133;" horiz-adv-x="606" 
d="M524 607h-102v99h102v-99zM294 -204v79q127 -12 130 113v443h-85v75h182v-521q0 -95 -50 -140q-59 -53 -144 -51zM227 607h-102v99h102v-99zM304 0h-256v75h79v356h-84v75h181v-431h80v-75z" />
    <glyph glyph-name="Jcircumflex" unicode="&#x134;" 
d="M24 197v41h97v-31q0 -59 28 -94.5t81 -35.5q49 0 78 32.5t29 97.5v422h-102v77h281v-77h-79v-428q0 -106 -62 -160q-62 -53 -146 -53q-86 0 -145 52q-60 53 -60 157zM332 755h-87l88 127h105l88 -127h-87l-53 80h-2z" />
    <glyph glyph-name="jcircumflex" unicode="&#x135;" horiz-adv-x="296" 
d="M83 579h-87l88 127h105l88 -127h-87l-53 81h-2zM-16 -204v79q127 -12 130 113v443h-85v75h182v-521q0 -95 -50 -140q-59 -53 -144 -51z" />
    <glyph glyph-name="Kcommaaccent" unicode="&#x136;" horiz-adv-x="692" 
d="M328 0h-275v78h88v551h-88v77h265v-77h-77v-222h91l154 222h-65v77h239v-77h-68l-183 -255v-2q20 -9 40 -47l127 -221q15 -26 50 -26h33v-78h-71q-41 0 -60.5 11t-37.5 42l-136 244q-16 28 -55 28h-58v-247h87v-78zM317 -58h85q7 -20 7 -49q0 -77 -76 -118l-42 34
q38 36 38 78q0 23 -12 55z" />
    <glyph glyph-name="kcommaaccent" unicode="&#x137;" horiz-adv-x="587" 
d="M276 0h-244v75h80v556h-85v75h181v-394h74l101 119h-66v75h230v-75h-67l-125 -146v-2q1 0 5.5 -2.5t13.5 -13t18 -25.5l86 -147q12 -20 44 -20h32v-75h-76q-35 0 -51 9t-32 38l-100 171q-12 20 -47 20h-40v-163h68v-75zM273 -58h85q7 -20 7 -49q0 -77 -76 -118l-42 34
q38 36 38 78q0 23 -12 55z" />
    <glyph glyph-name="kgreenlandic" unicode="&#x138;" horiz-adv-x="602" 
d="M292 0h-244v75h79v356h-84v75h181v-191h76l98 116h-65v75h228v-75h-66l-124 -146v-2q18 -10 38 -43l85 -145q8 -12 16.5 -16t27.5 -4h32v-75h-76q-35 0 -51 9t-33 38l-99 171q-12 20 -47 20h-40v-163h68v-75z" />
    <glyph glyph-name="Lacute" unicode="&#x139;" horiz-adv-x="604" 
d="M576 0h-522v78h88v546h-88v82h277v-82h-89v-542h246v114h88v-196zM221 755h-91l104 127h111z" />
    <glyph glyph-name="lacute" unicode="&#x13a;" horiz-adv-x="293" 
d="M85 144v487h-84v75h181v-556q0 -37 12 -54.5t42 -17.5l27 1l-1 -80q-26 -2 -43 -2q-134 0 -134 147zM165 755h-91l104 127h111z" />
    <glyph glyph-name="Lcommaaccent" unicode="&#x13b;" horiz-adv-x="604" 
d="M298 -58h85q7 -20 7 -49q0 -77 -76 -118l-42 34q38 36 38 78q0 23 -12 55zM576 0h-522v78h88v546h-88v82h277v-82h-89v-542h246v114h88v-196z" />
    <glyph glyph-name="lcommaaccent" unicode="&#x13c;" horiz-adv-x="293" 
d="M85 144v487h-84v75h181v-556q0 -37 12 -54.5t42 -17.5l27 1l-1 -80q-26 -2 -43 -2q-134 0 -134 147zM126 -58h85q7 -20 7 -49q0 -77 -76 -118l-42 34q38 36 38 78q0 23 -12 55z" />
    <glyph glyph-name="Lcaron" unicode="&#x13d;" horiz-adv-x="604" 
d="M298 -58h85q7 -20 7 -49q0 -77 -76 -118l-42 34q38 36 38 78q0 23 -12 55zM576 0h-522v78h88v546h-88v82h277v-82h-89v-542h246v114h88v-196z" />
    <glyph glyph-name="lcaron" unicode="&#x13e;" horiz-adv-x="293" 
d="M254 705h85q7 -20 7 -49q0 -77 -76 -118l-42 34q38 36 38 78q0 24 -12 55zM85 144v487h-84v75h181v-556q0 -37 12 -54.5t42 -17.5l27 1l-1 -80q-26 -2 -43 -2q-134 0 -134 147z" />
    <glyph glyph-name="Ldot" unicode="&#x13f;" horiz-adv-x="604" 
d="M576 0h-522v78h88v546h-88v82h277v-82h-89v-542h246v114h88v-196zM460 326h-102v106h102v-106z" />
    <glyph glyph-name="ldot" unicode="&#x140;" horiz-adv-x="370" 
d="M85 144v487h-84v75h181v-556q0 -37 12 -54.5t42 -17.5l27 1l-1 -80q-26 -2 -43 -2q-134 0 -134 147zM368 326h-102v106h102v-106z" />
    <glyph glyph-name="Lslash" unicode="&#x141;" horiz-adv-x="603" 
d="M575 0h-522v78h88v198l-85 -44v88l85 45v259h-88v82h277v-82h-89v-206l203 106v-89l-203 -106v-247h250v114h84v-196z" />
    <glyph glyph-name="lslash" unicode="&#x142;" horiz-adv-x="293" 
d="M85 328l-81 -46v89l81 45v215h-84v75h181v-236l91 52v-89l-91 -52v-230q0 -38 12 -55t43 -17l26 1l-1 -81q-26 -2 -42 -2q-66 0 -100.5 34.5t-34.5 112.5v184z" />
    <glyph glyph-name="Nacute" unicode="&#x143;" horiz-adv-x="838" 
d="M332 0h-279v78h88v551h-88v77h187l347 -506l24 -51h3q-5 38 -5 57v423h-90v77h279v-77h-89v-629h-98l-347 506q-13 19 -21 42l-3 9h-3l4 -57v-422h91v-78zM455 755h-91l104 127h111z" />
    <glyph glyph-name="nacute" unicode="&#x144;" horiz-adv-x="689" 
d="M304 0h-256v75h79v334q0 22 -22 22h-62v75h114q64 0 64 -56v-26l-3 -29h2q13 31 53 71q56 52 144 52q86 0 127 -47.5t41 -146.5v-249h80v-75h-177v302q0 65 -20.5 96t-74.5 31q-74 0 -122 -58q-47 -58 -47 -136v-160h80v-75zM395 579h-91l104 127h111z" />
    <glyph glyph-name="Ncommaaccent" unicode="&#x145;" horiz-adv-x="838" 
d="M332 0h-279v78h88v551h-88v77h187l347 -506l24 -51h3q-5 38 -5 57v423h-90v77h279v-77h-89v-629h-98l-347 506q-13 19 -21 42l-3 9h-3l4 -57v-422h91v-78zM381 -58h85q7 -20 7 -49q0 -77 -76 -118l-42 34q38 36 38 78q0 23 -12 55z" />
    <glyph glyph-name="ncommaaccent" unicode="&#x146;" horiz-adv-x="689" 
d="M304 0h-256v75h79v334q0 22 -22 22h-62v75h114q64 0 64 -56v-26l-3 -29h2q13 31 53 71q56 52 144 52q86 0 127 -47.5t41 -146.5v-249h80v-75h-177v302q0 65 -20.5 96t-74.5 31q-74 0 -122 -58q-47 -58 -47 -136v-160h80v-75zM311 -58h85q7 -20 7 -49q0 -77 -76 -118
l-42 34q38 36 38 78q0 23 -12 55z" />
    <glyph glyph-name="Ncaron" unicode="&#x147;" horiz-adv-x="838" 
d="M332 0h-279v78h88v551h-88v77h187l347 -506l24 -51h3q-5 38 -5 57v423h-90v77h279v-77h-89v-629h-98l-347 506q-13 19 -21 42l-3 9h-3l4 -57v-422h91v-78zM477 755h-105l-88 127h87l52 -81h2l53 81h87z" />
    <glyph glyph-name="ncaron" unicode="&#x148;" horiz-adv-x="689" 
d="M304 0h-256v75h79v334q0 22 -22 22h-62v75h114q64 0 64 -56v-26l-3 -29h2q13 31 53 71q56 52 144 52q86 0 127 -47.5t41 -146.5v-249h80v-75h-177v302q0 65 -20.5 96t-74.5 31q-74 0 -122 -58q-47 -58 -47 -136v-160h80v-75zM417 579h-105l-88 127h87l52 -81h2l53 81h87z
" />
    <glyph glyph-name="napostrophe" unicode="&#x149;" horiz-adv-x="689" 
d="M304 0h-256v75h79v334q0 22 -22 22h-62v75h114q64 0 64 -56v-26l-3 -29h2q13 31 53 71q56 52 144 52q86 0 127 -47.5t41 -146.5v-249h80v-75h-177v302q0 65 -20.5 96t-74.5 31q-74 0 -122 -58q-47 -58 -47 -136v-160h80v-75zM52 721h85q7 -20 7 -49q0 -77 -76 -118
l-42 34q38 36 38 78q0 23 -12 55z" />
    <glyph glyph-name="Eng" unicode="&#x14a;" horiz-adv-x="838" 
d="M332 0h-279v78h88v551h-88v77h189l345 -506l24 -51h3q-5 38 -5 57v423h-90v77h279v-77h-89v-602q0 -232 -234 -232v86q59 0 97 30t39 87l-347 508q-13 19 -21 42l-3 9h-3l4 -57v-422h91v-78z" />
    <glyph glyph-name="eng" unicode="&#x14b;" horiz-adv-x="660" 
d="M304 0h-256v75h79v334q0 22 -22 22h-62v75h114q64 0 64 -56v-26l-3 -29h2q13 31 53 71q56 52 144 52q86 0 127 -47.5t41 -146.5v-344q0 -58 -20 -99t-54 -59q-57 -31 -119 -31l-34 2v81q6 -1 22 -1q18 0 33.5 4t34 14t29.5 34t11 59v318q0 65 -20.5 96t-74.5 31
q-74 0 -122 -59q-47 -59 -47 -137v-158h80v-75z" />
    <glyph glyph-name="Omacron" unicode="&#x14c;" horiz-adv-x="822" 
d="M48 358q0 152 104 256q106 104 259 104q152 0 258 -104q105 -103 105 -256q0 -156 -105 -263t-258 -107q-154 0 -259 107q-104 107 -104 263zM151 358q0 -119 75 -200q76 -81 185 -81q108 0 183 81q76 80 76 200q0 116 -76 193q-75 79 -183 79q-109 0 -185 -79
q-75 -78 -75 -193zM539 784h-255v71h255v-71z" />
    <glyph glyph-name="omacron" unicode="&#x14d;" horiz-adv-x="626" 
d="M119 64q-79 76 -79 190t79 189t194 75t194 -75t79 -189q0 -113 -80 -190q-79 -76 -193 -76q-115 0 -194 76zM139 254q0 -78 50 -131q51 -51 124 -51q72 0 123 52t51 130t-51 129t-123 51q-73 0 -124 -51q-50 -52 -50 -129zM441 608h-255v71h255v-71z" />
    <glyph glyph-name="Obreve" unicode="&#x14e;" horiz-adv-x="822" 
d="M48 358q0 152 104 256q106 104 259 104q152 0 258 -104q105 -103 105 -256q0 -156 -105 -263t-258 -107q-154 0 -259 107q-104 107 -104 263zM151 358q0 -119 75 -200q76 -81 185 -81q108 0 183 81q76 80 76 200q0 116 -76 193q-75 79 -183 79q-109 0 -185 -79
q-75 -78 -75 -193zM411 751q-58 0 -95.5 31.5t-37.5 85.5v14h74v-13q0 -28 16.5 -43.5t42.5 -15.5q24 0 41 16t17 44v12h74v-14q0 -53 -38 -85t-94 -32z" />
    <glyph glyph-name="obreve" unicode="&#x14f;" horiz-adv-x="626" 
d="M119 64q-79 76 -79 190t79 189t194 75t194 -75t79 -189q0 -113 -80 -190q-79 -76 -193 -76q-115 0 -194 76zM139 254q0 -78 50 -131q51 -51 124 -51q72 0 123 52t51 130t-51 129t-123 51q-73 0 -124 -51q-50 -52 -50 -129zM313 575q-58 0 -95.5 31.5t-37.5 85.5v14h74
v-13q0 -28 16.5 -43.5t42.5 -15.5q24 0 41 16t17 44v12h74v-14q0 -53 -38 -85t-94 -32z" />
    <glyph glyph-name="Ohungarumlaut" unicode="&#x150;" horiz-adv-x="822" 
d="M48 358q0 152 104 256q106 104 259 104q152 0 258 -104q105 -103 105 -256q0 -156 -105 -263t-258 -107q-154 0 -259 107q-104 107 -104 263zM151 358q0 -119 75 -200q76 -81 185 -81q108 0 183 81q76 80 76 200q0 116 -76 193q-75 79 -183 79q-109 0 -185 -79
q-75 -78 -75 -193zM513 755h-81l73 127h103zM365 755h-87l68 127h89z" />
    <glyph glyph-name="ohungarumlaut" unicode="&#x151;" horiz-adv-x="626" 
d="M119 64q-79 76 -79 190t79 189t194 75t194 -75t79 -189q0 -113 -80 -190q-79 -76 -193 -76q-115 0 -194 76zM139 254q0 -78 50 -131q51 -51 124 -51q72 0 123 52t51 130t-51 129t-123 51q-73 0 -124 -51q-50 -52 -50 -129zM415 579h-81l73 127h103zM267 579h-87l68 127
h89z" />
    <glyph glyph-name="OE" unicode="&#x152;" horiz-adv-x="974" 
d="M49 354q0 154 105 257q106 104 261 104q21 0 66 -5q36 -4 56 -4h369v-164h-83v82h-237v-228h247v-81h-247v-233h254v83h83v-165h-385q-21 0 -57 -4q-45 -5 -66 -5q-155 0 -261 104q-105 105 -105 259zM151 354q0 -119 74 -199t190 -80q38 0 62 6l9 2v541q-29 7 -71 7
q-116 0 -190 -80t-74 -197z" />
    <glyph glyph-name="oe" unicode="&#x153;" horiz-adv-x="1000" 
d="M309 518q148 0 220 -120h2q65 120 208 120q103 0 161 -67t58 -170l-3 -38h-369q6 -80 54.5 -126.5t119.5 -46.5q36 0 74 13.5t58 30.5l18 14l40 -68q-17 -14 -25 -20q-17 -13 -67 -32q-52 -20 -104 -20q-154 0 -221 123h-2q-72 -123 -221 -123q-115 0 -192 73
q-78 73 -78 191t78 191q78 75 191 75zM589 306h270q-2 62 -36 98.5t-85 36.5q-58 0 -98.5 -36.5t-50.5 -98.5zM139 252q0 -80 50 -130t123 -50t123 50q51 51 51 133q0 79 -51 129q-52 50 -123 50q-72 0 -123 -51q-50 -50 -50 -131z" />
    <glyph glyph-name="Racute" unicode="&#x154;" horiz-adv-x="702" 
d="M328 0h-275v78h88v551h-88v77h306q85 0 130 -15q58 -19 90.5 -66.5t32.5 -116.5q0 -76 -39 -128.5t-107 -69.5v-2q18 -10 30 -33l100 -174q14 -23 49 -23h21v-78h-60q-45 0 -62 10q-17 11 -36 43l-109 193q-14 23 -28.5 31t-45.5 8h-84v-207h87v-78zM241 624v-257h142
q58 0 93 35.5t35 97.5q0 84 -66 111q-32 13 -87 13h-117zM366 755h-91l104 127h111z" />
    <glyph glyph-name="racute" unicode="&#x155;" horiz-adv-x="423" 
d="M298 0h-248v75h76v334q0 22 -22 22h-63v75h114q65 0 65 -59v-32l-2 -35h2q18 59 61 95.5t99 36.5l25 -2v-96q-12 3 -28 3q-75 0 -115 -63q-39 -62 -39 -145v-134h75v-75zM275 579h-91l104 127h111z" />
    <glyph glyph-name="Rcommaaccent" unicode="&#x156;" horiz-adv-x="702" 
d="M328 0h-275v78h88v551h-88v77h306q85 0 130 -15q58 -19 90.5 -66.5t32.5 -116.5q0 -76 -39 -128.5t-107 -69.5v-2q18 -10 30 -33l100 -174q14 -23 49 -23h21v-78h-60q-45 0 -62 10q-17 11 -36 43l-109 193q-14 23 -28.5 31t-45.5 8h-84v-207h87v-78zM241 624v-257h142
q58 0 93 35.5t35 97.5q0 84 -66 111q-32 13 -87 13h-117zM332 -58h85q7 -20 7 -49q0 -77 -76 -118l-42 34q38 36 38 78q0 23 -12 55z" />
    <glyph glyph-name="rcommaaccent" unicode="&#x157;" horiz-adv-x="423" 
d="M298 0h-248v75h76v334q0 22 -22 22h-63v75h114q65 0 65 -59v-32l-2 -35h2q18 59 61 95.5t99 36.5l25 -2v-96q-12 3 -28 3q-75 0 -115 -63q-39 -62 -39 -145v-134h75v-75zM132 -58h85q7 -20 7 -49q0 -77 -76 -118l-42 34q38 36 38 78q0 23 -12 55z" />
    <glyph glyph-name="Rcaron" unicode="&#x158;" horiz-adv-x="702" 
d="M328 0h-275v78h88v551h-88v77h306q85 0 130 -15q58 -19 90.5 -66.5t32.5 -116.5q0 -76 -39 -128.5t-107 -69.5v-2q18 -10 30 -33l100 -174q14 -23 49 -23h21v-78h-60q-45 0 -62 10q-17 11 -36 43l-109 193q-14 23 -28.5 31t-45.5 8h-84v-207h87v-78zM241 624v-257h142
q58 0 93 35.5t35 97.5q0 84 -66 111q-32 13 -87 13h-117zM388 755h-105l-88 127h87l52 -81h2l53 81h87z" />
    <glyph glyph-name="rcaron" unicode="&#x159;" horiz-adv-x="423" 
d="M298 0h-248v75h76v334q0 22 -22 22h-63v75h114q65 0 65 -59v-32l-2 -35h2q18 59 61 95.5t99 36.5l25 -2v-96q-12 3 -28 3q-75 0 -115 -63q-39 -62 -39 -145v-134h75v-75zM297 579h-105l-88 127h87l52 -81h2l53 81h87z" />
    <glyph glyph-name="Sacute" unicode="&#x15a;" horiz-adv-x="578" 
d="M53 138v74h92v-52q0 -38 41 -61q41 -22 100 -22q64 0 102 29t38 79q0 64 -76 104q-16 7 -94 39q-43 16 -70 29q-26 13 -57 36q-61 46 -61 135q0 94 64 142t162 48q87 0 150 -31q64 -31 64 -86v-83h-93v49q0 30 -37 46q-39 17 -84 17q-56 0 -90 -25.5t-34 -71.5
q0 -37 28 -69q10 -10 36 -24l38 -19l48 -18q46 -17 63 -25q25 -10 54 -28q33 -21 48 -38q42 -46 42 -119q0 -97 -69 -151t-172 -54q-92 0 -162 39q-71 41 -71 111zM317 755h-91l104 127h111z" />
    <glyph glyph-name="sacute" unicode="&#x15b;" horiz-adv-x="481" 
d="M40 109v54h85v-33q0 -29 34 -46t82 -17q45 0 73.5 17.5t28.5 47.5q0 31 -23.5 47.5t-88.5 39.5l-14 5q-60 21 -106 52q-52 36 -52 102q0 69 56 104q55 36 131 36q62 0 119 -26q56 -26 56 -76v-61h-85v33q0 23 -26 37.5t-63 14.5q-39 0 -64.5 -16.5t-25.5 -44.5
q0 -33 36 -55q31 -18 81 -34q68 -22 111 -50q56 -36 56 -103q0 -69 -57 -110q-57 -39 -146 -39q-75 0 -137 32q-61 33 -61 89zM276 579h-91l104 127h111z" />
    <glyph glyph-name="Scircumflex" unicode="&#x15c;" horiz-adv-x="578" 
d="M53 138v74h92v-52q0 -38 41 -61q41 -22 100 -22q64 0 102 29t38 79q0 64 -76 104q-16 7 -94 39q-43 16 -70 29q-26 13 -57 36q-61 46 -61 135q0 94 64 142t162 48q87 0 150 -31q64 -31 64 -86v-83h-93v49q0 30 -37 46q-39 17 -84 17q-56 0 -90 -25.5t-34 -71.5
q0 -37 28 -69q10 -10 36 -24l38 -19l48 -18q46 -17 63 -25q25 -10 54 -28q33 -21 48 -38q42 -46 42 -119q0 -97 -69 -151t-172 -54q-92 0 -162 39q-71 41 -71 111zM233 755h-87l88 127h105l88 -127h-87l-53 80h-2z" />
    <glyph glyph-name="scircumflex" unicode="&#x15d;" horiz-adv-x="481" 
d="M40 109v54h85v-33q0 -29 34 -46t82 -17q45 0 73.5 17.5t28.5 47.5q0 31 -23.5 47.5t-88.5 39.5l-14 5q-60 21 -106 52q-52 36 -52 102q0 69 56 104q55 36 131 36q62 0 119 -26q56 -26 56 -76v-61h-85v33q0 23 -26 37.5t-63 14.5q-39 0 -64.5 -16.5t-25.5 -44.5
q0 -33 36 -55q31 -18 81 -34q68 -22 111 -50q56 -36 56 -103q0 -69 -57 -110q-57 -39 -146 -39q-75 0 -137 32q-61 33 -61 89zM191 579h-87l88 127h105l88 -127h-87l-53 80h-2z" />
    <glyph glyph-name="Scedilla" unicode="&#x15e;" horiz-adv-x="578" 
d="M251 -97h-18l23 86q-83 8 -143 45q-60 39 -60 104v74h92v-52q0 -38 41 -61q41 -22 100 -22q64 0 102 29t38 79q0 64 -76 104q-16 7 -94 39q-43 16 -70 29q-26 13 -57 36q-61 46 -61 135q0 94 64 142t162 48q87 0 150 -31q64 -31 64 -86v-83h-93v49q0 30 -37 46
q-39 17 -84 17q-56 0 -90 -25.5t-34 -71.5q0 -37 28 -69q10 -10 36 -24l38 -19l48 -18q46 -17 63 -25q25 -10 54 -28q33 -21 48 -38q42 -46 42 -119q0 -90 -61 -144q-60 -53 -154 -60l-11 -45q33 -2 56 -23.5t23 -51.5q0 -41 -31.5 -63.5t-79.5 -22.5q-33 0 -48 5l-7 2v53
q20 -6 45 -6q50 0 50 32q0 34 -58 34z" />
    <glyph glyph-name="scedilla" unicode="&#x15f;" horiz-adv-x="481" 
d="M205 -97h-17l23 86q-74 8 -121 38q-50 32 -50 82v54h85v-33q0 -29 34 -46t82 -17q46 0 74 17.5t28 47.5q0 31 -23.5 47.5t-88.5 39.5l-14 5q-60 21 -106 52q-52 36 -52 102q0 69 56 104q55 36 131 36q62 0 119 -26q56 -26 56 -76v-61h-85v33q0 23 -26 37.5t-63 14.5
q-39 0 -64.5 -16.5t-25.5 -44.5q0 -33 36 -55q31 -18 81 -34q68 -22 111 -50q56 -36 56 -103q0 -63 -48 -102.5t-127 -44.5l-11 -46q33 -2 56 -23.5t23 -51.5q0 -41 -31 -63.5t-80 -22.5q-32 0 -47 5l-7 2v53q19 -6 44 -6q50 0 50 32q0 34 -58 34z" />
    <glyph glyph-name="Scaron" unicode="&#x160;" horiz-adv-x="578" 
d="M53 138v74h92v-52q0 -38 41 -61q41 -22 100 -22q64 0 102 29t38 79q0 64 -76 104q-16 7 -94 39q-43 16 -70 29q-26 13 -57 36q-61 46 -61 135q0 94 64 142t162 48q87 0 150 -31q64 -31 64 -86v-83h-93v49q0 30 -37 46q-39 17 -84 17q-56 0 -90 -25.5t-34 -71.5
q0 -37 28 -69q10 -10 36 -24l38 -19l48 -18q46 -17 63 -25q25 -10 54 -28q33 -21 48 -38q42 -46 42 -119q0 -97 -69 -151t-172 -54q-92 0 -162 39q-71 41 -71 111zM339 755h-105l-88 127h87l52 -81h2l53 81h87z" />
    <glyph glyph-name="scaron" unicode="&#x161;" horiz-adv-x="481" 
d="M40 109v54h85v-33q0 -29 34 -46t82 -17q45 0 73.5 17.5t28.5 47.5q0 31 -23.5 47.5t-88.5 39.5l-14 5q-60 21 -106 52q-52 36 -52 102q0 69 56 104q55 36 131 36q62 0 119 -26q56 -26 56 -76v-61h-85v33q0 23 -26 37.5t-63 14.5q-39 0 -64.5 -16.5t-25.5 -44.5
q0 -33 36 -55q31 -18 81 -34q68 -22 111 -50q56 -36 56 -103q0 -69 -57 -110q-57 -39 -146 -39q-75 0 -137 32q-61 33 -61 89zM297 579h-105l-88 127h87l52 -81h2l53 81h87z" />
    <glyph glyph-name="Tcommaaccent" unicode="&#x162;" horiz-adv-x="664" 
d="M302 0h-109v78h89v546h-166v-110h-87v192h606v-192h-87v110h-166v-546h89v-78h-114l-13 -56q33 -2 56 -23.5t23 -51.5q0 -41 -31.5 -63.5t-79.5 -22.5q-33 0 -48 5l-7 2v53q19 -6 45 -6q50 0 50 32q0 34 -58 34h-18z" />
    <glyph glyph-name="tcommaaccent" unicode="&#x163;" horiz-adv-x="361" 
d="M178 -97h-17l30 115q-86 47 -86 167v246h-85v75h87v139h95v-139h121v-75h-121v-237q0 -36 11 -61t29 -36t33.5 -15t33.5 -4l23 1v-81q-18 -2 -34 -2q-28 0 -56 5l-14 -57q34 -2 56.5 -22.5t22.5 -52.5q0 -41 -31 -63.5t-80 -22.5q-32 0 -47 5l-7 2v53q20 -6 44 -6
q51 0 51 32q0 34 -59 34z" />
    <glyph glyph-name="Tcaron" unicode="&#x164;" horiz-adv-x="664" 
d="M384 755h-105l-88 127h87l52 -81h2l53 81h87zM471 0h-278v78h89v546h-166v-110h-87v192h606v-192h-87v110h-166v-546h89v-78z" />
    <glyph glyph-name="tcaron" unicode="&#x165;" horiz-adv-x="360" 
d="M103 185v246h-85v75h87v139h95v-139h121v-75h-121v-237q0 -72 40 -97q32 -19 68 -19l23 1v-81q-18 -2 -35 -2q-53 0 -95 18q-98 42 -98 171zM289 720h85q7 -20 7 -49q0 -77 -76 -118l-42 34q38 36 38 78q0 23 -12 55z" />
    <glyph glyph-name="Tbar" unicode="&#x166;" horiz-adv-x="664" 
d="M282 313h-180v70h180v241h-166v-110h-87v192h606v-192h-87v110h-166v-241h180v-70h-180v-235h89v-78h-278v78h89v235z" />
    <glyph glyph-name="tbar" unicode="&#x167;" horiz-adv-x="360" 
d="M103 264h-82v70h82v101h-85v71h87v139h95v-139h121v-71h-121v-101h115v-70h-115v-70q0 -72 40 -97q32 -19 68 -19l23 1v-81q-18 -2 -35 -2q-53 0 -95 18q-98 42 -98 171v79z" />
    <glyph glyph-name="Utilde" unicode="&#x168;" horiz-adv-x="797" 
d="M120 263v366h-89v77h278v-77h-89v-365q0 -72 27 -115q45 -72 152 -72t152 74q27 47 27 114v364h-89v77h277v-77h-88v-366q0 -102 -49 -172q-35 -50 -95.5 -76.5t-134.5 -26.5q-75 0 -135.5 27t-96.5 76q-47 65 -47 172zM301 756h-72q0 127 102 127q24 0 44 -10.5t31 -23
t25 -23t27 -10.5q40 0 40 64h72q0 -127 -102 -127q-24 0 -44 10.5t-31 23t-25 23t-27 10.5q-40 0 -40 -64z" />
    <glyph glyph-name="utilde" unicode="&#x169;" horiz-adv-x="665" 
d="M105 182v249h-85v75h182v-304q0 -65 20.5 -95.5t74.5 -30.5q73 0 118 59q46 58 46 138v158h-85v75h182v-410q0 -22 22 -22h53v-74h-105q-64 0 -64 56v22l2 30h-2q-14 -33 -53 -70q-52 -50 -140 -50q-166 0 -166 194zM221 580h-72q0 127 102 127q24 0 44 -10.5t31 -23
t25 -23t27 -10.5q40 0 40 64h72q0 -127 -102 -127q-24 0 -44 10.5t-31 23t-25 23t-27 10.5q-40 0 -40 -64z" />
    <glyph glyph-name="Umacron" unicode="&#x16a;" horiz-adv-x="797" 
d="M120 263v366h-89v77h278v-77h-89v-365q0 -72 27 -115q45 -72 152 -72t152 74q27 47 27 114v364h-89v77h277v-77h-88v-366q0 -102 -49 -172q-35 -50 -95.5 -76.5t-134.5 -26.5q-75 0 -135.5 27t-96.5 76q-47 65 -47 172zM527 784h-255v71h255v-71z" />
    <glyph glyph-name="umacron" unicode="&#x16b;" horiz-adv-x="665" 
d="M105 182v249h-85v75h182v-304q0 -65 20.5 -95.5t74.5 -30.5q73 0 118 59q46 58 46 138v158h-85v75h182v-410q0 -22 22 -22h53v-74h-105q-64 0 -64 56v22l2 30h-2q-14 -33 -53 -70q-52 -50 -140 -50q-166 0 -166 194zM447 608h-255v71h255v-71z" />
    <glyph glyph-name="Ubreve" unicode="&#x16c;" horiz-adv-x="797" 
d="M120 263v366h-89v77h278v-77h-89v-365q0 -72 27 -115q45 -72 152 -72t152 74q27 47 27 114v364h-89v77h277v-77h-88v-366q0 -102 -49 -172q-35 -50 -95.5 -76.5t-134.5 -26.5q-75 0 -135.5 27t-96.5 76q-47 65 -47 172zM399 751q-58 0 -95.5 31.5t-37.5 85.5v14h74v-13
q0 -28 16.5 -43.5t42.5 -15.5q24 0 41 16t17 44v12h74v-14q0 -53 -38 -85t-94 -32z" />
    <glyph glyph-name="ubreve" unicode="&#x16d;" horiz-adv-x="665" 
d="M105 182v249h-85v75h182v-304q0 -65 20.5 -95.5t74.5 -30.5q73 0 118 59q46 58 46 138v158h-85v75h182v-410q0 -22 22 -22h53v-74h-105q-64 0 -64 56v22l2 30h-2q-14 -33 -53 -70q-52 -50 -140 -50q-166 0 -166 194zM319 575q-58 0 -95.5 31.5t-37.5 85.5v14h74v-13
q0 -28 16.5 -43.5t42.5 -15.5q24 0 41 16t17 44v12h74v-14q0 -53 -38 -85t-94 -32z" />
    <glyph glyph-name="Uring" unicode="&#x16e;" horiz-adv-x="797" 
d="M120 263v366h-89v77h278v-77h-89v-365q0 -72 27 -115q45 -72 152 -72t152 74q27 47 27 114v364h-89v77h277v-77h-88v-366q0 -102 -49 -172q-35 -50 -95.5 -76.5t-134.5 -26.5q-75 0 -135.5 27t-96.5 76q-47 65 -47 172zM307 819q0 37 26.5 60t65.5 23t66.5 -23.5
t27.5 -59.5q0 -35 -27.5 -57.5t-66.5 -22.5t-65.5 22.5t-26.5 57.5zM399 783q17 0 27 10t10 26q0 18 -10 28.5t-27 10.5q-16 0 -26 -10.5t-10 -28.5q0 -16 10 -26t26 -10z" />
    <glyph glyph-name="uring" unicode="&#x16f;" horiz-adv-x="665" 
d="M105 182v249h-85v75h182v-304q0 -65 20.5 -95.5t74.5 -30.5q73 0 118 59q46 58 46 138v158h-85v75h182v-410q0 -22 22 -22h53v-74h-105q-64 0 -64 56v22l2 30h-2q-14 -33 -53 -70q-52 -50 -140 -50q-166 0 -166 194zM227 643q0 37 26.5 60t65.5 23t66.5 -23.5t27.5 -59.5
q0 -35 -27.5 -57.5t-66.5 -22.5t-65.5 22.5t-26.5 57.5zM319 607q17 0 27 10t10 26q0 18 -10 28.5t-27 10.5q-16 0 -26 -10.5t-10 -28.5q0 -16 10 -26t26 -10z" />
    <glyph glyph-name="Uhungarumlaut" unicode="&#x170;" horiz-adv-x="797" 
d="M120 263v366h-89v77h278v-77h-89v-365q0 -72 27 -115q45 -72 152 -72t152 74q27 47 27 114v364h-89v77h277v-77h-88v-366q0 -102 -49 -172q-35 -50 -95.5 -76.5t-134.5 -26.5q-75 0 -135.5 27t-96.5 76q-47 65 -47 172zM501 755h-81l73 127h103zM353 755h-87l68 127h89z
" />
    <glyph glyph-name="uhungarumlaut" unicode="&#x171;" horiz-adv-x="665" 
d="M105 182v249h-85v75h182v-304q0 -65 20.5 -95.5t74.5 -30.5q73 0 118 59q46 58 46 138v158h-85v75h182v-410q0 -22 22 -22h53v-74h-105q-64 0 -64 56v22l2 30h-2q-14 -33 -53 -70q-52 -50 -140 -50q-166 0 -166 194zM421 579h-81l73 127h103zM273 579h-87l68 127h89z" />
    <glyph glyph-name="Uogonek" unicode="&#x172;" horiz-adv-x="797" 
d="M119 250v379h-88v77h277v-77h-89v-378q0 -81 48.5 -127.5t130.5 -46.5t130.5 47t48.5 128v377h-89v77h278v-77h-89v-379q0 -82 -41.5 -144t-115.5 -99q-9 -4 -27 -17q-19 -15 -36 -42t-17 -51q0 -22 19 -34t45 -15l-19 -68q-18 2 -36 7t-39 16t-34 31t-13 47q0 57 55 108
q-128 -8 -214 63q-85 70 -85 198z" />
    <glyph glyph-name="uogonek" unicode="&#x173;" horiz-adv-x="665" 
d="M471 -119q0 68 67 119h-13q-61 0 -61 56v22l2 30h-2q-14 -33 -53 -70q-52 -50 -138 -50q-85 0 -126.5 47.5t-41.5 146.5v249h-85v75h182v-304q0 -65 20.5 -95.5t74.5 -30.5q74 0 119 59t45 138v158h-85v75h182v-410q0 -22 22 -22h53v-74h-5q-18 0 -50 -35
q-31 -35 -31 -68q0 -22 19 -34t45 -15l-18 -68q-23 3 -51 11q-28 10 -49.5 34t-21.5 56z" />
    <glyph glyph-name="Wcircumflex" unicode="&#x174;" horiz-adv-x="1009" 
d="M84 629h-68v77h251v-77h-84l110 -463l8 -53h3q5 32 10 53l148 540h85l147 -540l10 -53h4q1 19 7 53l110 463h-84v77h252v-77h-68l-158 -629h-114l-138 501l-9 56h-4q-1 -30 -9 -56l-138 -501h-114zM451 755h-87l88 127h105l88 -127h-87l-53 80h-2z" />
    <glyph glyph-name="wcircumflex" unicode="&#x175;" horiz-adv-x="856" 
d="M73 431h-63v75h226v-75h-68l86 -294l8 -47h3q1 24 8 47l111 368h88l111 -368l8 -47h3q1 24 8 47l87 294h-69v75h226v-75h-63l-130 -431h-108l-107 338l-9 48h-2q-3 -26 -9 -48l-107 -338h-108zM376 579h-87l88 127h105l88 -127h-87l-53 80h-2z" />
    <glyph glyph-name="Ycircumflex" unicode="&#x176;" horiz-adv-x="650" 
d="M464 0h-278v78h89v221l-198 330h-67v77h243v-77h-74l131 -222l14 -30h2q6 15 15 30l131 222h-73v77h241v-77h-67l-198 -330v-221h89v-78zM273 755h-87l88 127h105l88 -127h-87l-53 80h-2z" />
    <glyph glyph-name="ycircumflex" unicode="&#x177;" horiz-adv-x="590" 
d="M31 -178l33 73q28 -24 72 -24q63 0 93 70l21 50l-177 440h-64v75h231v-75h-67l113 -301l9 -44h3q4 20 12 44l112 301h-65v75h224v-75h-63l-200 -511q-25 -63 -71.5 -96.5t-106.5 -33.5q-59 0 -96 24zM247 579h-87l88 127h105l88 -127h-87l-53 80h-2z" />
    <glyph glyph-name="Ydieresis" unicode="&#x178;" horiz-adv-x="650" 
d="M464 0h-278v78h89v221l-198 330h-67v77h243v-77h-74l131 -222l14 -30h2q6 15 15 30l131 222h-73v77h241v-77h-67l-198 -330v-221h89v-78zM469 781h-86v101h86v-101zM269 781h-86v101h86v-101z" />
    <glyph glyph-name="Zacute" unicode="&#x179;" horiz-adv-x="632" 
d="M578 0h-524v66l364 525l29 34v2q-20 -3 -40 -3h-261v-110h-87v192h509v-65l-364 -526l-29 -34v-2q19 3 40 3h276v114h87v-196zM356 755h-91l104 127h111z" />
    <glyph glyph-name="zacute" unicode="&#x17a;" horiz-adv-x="527" 
d="M48 0v64l279 338l28 29v2q-28 -2 -41 -2h-176v-81h-85v156h419v-64l-277 -338l-28 -28v-2q13 1 40 1h187v81h85v-156h-431zM300 579h-91l104 127h111z" />
    <glyph glyph-name="Zdotaccent" unicode="&#x17b;" horiz-adv-x="632" 
d="M578 0h-524v66l364 525l29 34v2q-20 -3 -40 -3h-261v-110h-87v192h509v-65l-364 -526l-29 -34v-2q19 3 40 3h276v114h87v-196zM371 784h-91v98h91v-98z" />
    <glyph glyph-name="zdotaccent" unicode="&#x17c;" horiz-adv-x="527" 
d="M48 0v64l279 338l28 29v2q-28 -2 -41 -2h-176v-81h-85v156h419v-64l-277 -338l-28 -28v-2q13 1 40 1h187v81h85v-156h-431zM315 608h-91v98h91v-98z" />
    <glyph glyph-name="Zcaron" unicode="&#x17d;" horiz-adv-x="632" 
d="M578 0h-524v66l364 525l29 34v2q-20 -3 -40 -3h-261v-110h-87v192h509v-65l-364 -526l-29 -34v-2q19 3 40 3h276v114h87v-196zM378 755h-105l-88 127h87l52 -81h2l53 81h87z" />
    <glyph glyph-name="zcaron" unicode="&#x17e;" horiz-adv-x="527" 
d="M48 0v64l279 338l28 29v2q-28 -2 -41 -2h-176v-81h-85v156h419v-64l-277 -338l-28 -28v-2q13 1 40 1h187v81h85v-156h-431zM322 579h-105l-88 127h87l52 -81h2l53 81h87z" />
    <glyph glyph-name="longs" unicode="&#x17f;" horiz-adv-x="334" 
d="M306 0h-258v75h74v356h-79v75h79v25q0 46 13.5 81t33 53.5t46.5 30t48 14.5t44 3l47 -3v-81q-14 3 -37 3q-16 0 -30.5 -3.5t-31 -12.5t-26.5 -30.5t-10 -52.5v-458h87v-75z" />
    <glyph glyph-name="florin" unicode="&#x192;" horiz-adv-x="507" 
d="M-18 -105v84q39 -6 66 -6q104 3 114 111l23 266h-82v78h89l9 102q7 92 61 138q62 52 147 50l84 -7v-84q-46 7 -79 7q-17 0 -33 -4t-35 -14.5t-31.5 -34t-15.5 -58.5l-10 -95h117v-78h-124l-23 -274q-10 -117 -86 -156q-58 -31 -121 -31z" />
    <glyph glyph-name="Scommaaccent" unicode="&#x218;" horiz-adv-x="578" 
d="M53 138v74h92v-52q0 -38 41 -61q41 -22 100 -22q64 0 102 29t38 79q0 64 -76 104q-16 7 -94 39q-43 16 -70 29q-26 13 -57 36q-61 46 -61 135q0 94 64 142t162 48q87 0 150 -31q64 -31 64 -86v-83h-93v49q0 30 -37 46q-39 17 -84 17q-56 0 -90 -25.5t-34 -71.5
q0 -37 28 -69q10 -10 36 -24l38 -19l48 -18q46 -17 63 -25q25 -10 54 -28q33 -21 48 -38q42 -46 42 -119q0 -97 -69 -151t-172 -54q-92 0 -162 39q-71 41 -71 111zM245 -58h85q7 -20 7 -49q0 -77 -76 -118l-42 34q38 36 38 78q0 23 -12 55z" />
    <glyph glyph-name="scommaaccent" unicode="&#x219;" horiz-adv-x="481" 
d="M40 109v54h85v-33q0 -29 34 -46t82 -17q45 0 73.5 17.5t28.5 47.5q0 31 -23.5 47.5t-88.5 39.5l-14 5q-60 21 -106 52q-52 36 -52 102q0 69 56 104q55 36 131 36q62 0 119 -26q56 -26 56 -76v-61h-85v33q0 23 -26 37.5t-63 14.5q-39 0 -64.5 -16.5t-25.5 -44.5
q0 -33 36 -55q31 -18 81 -34q68 -22 111 -50q56 -36 56 -103q0 -69 -57 -110q-57 -39 -146 -39q-75 0 -137 32q-61 33 -61 89zM200 -58h85q7 -20 7 -49q0 -77 -76 -118l-42 34q38 36 38 78q0 23 -12 55z" />
    <glyph glyph-name="uni021A" unicode="&#x21a;" horiz-adv-x="664" 
d="M471 0h-278v78h89v546h-166v-110h-87v192h606v-192h-87v110h-166v-546h89v-78zM289 -58h85q7 -20 7 -49q0 -77 -76 -118l-42 34q38 36 38 78q0 23 -12 55z" />
    <glyph glyph-name="uni021B" unicode="&#x21b;" horiz-adv-x="360" 
d="M103 185v246h-85v75h87v139h95v-139h121v-75h-121v-237q0 -72 40 -97q32 -19 68 -19l23 1v-81q-18 -2 -35 -2q-53 0 -95 18q-98 42 -98 171zM182 -58h85q7 -20 7 -49q0 -77 -76 -118l-42 34q38 36 38 78q0 23 -12 55z" />
    <glyph glyph-name="circumflex" unicode="&#x2c6;" horiz-adv-x="499" 
d="M196 755h-87l88 127h105l88 -127h-87l-53 80h-2z" />
    <glyph glyph-name="caron" unicode="&#x2c7;" horiz-adv-x="499" 
d="M302 755h-105l-88 127h87l52 -81h2l53 81h87z" />
    <glyph glyph-name="breve" unicode="&#x2d8;" horiz-adv-x="499" 
d="M250 751q-58 0 -95.5 31.5t-37.5 85.5v14h74v-13q0 -28 16.5 -43.5t42.5 -15.5q24 0 41 16t17 44v12h74v-14q0 -53 -38 -85t-94 -32z" />
    <glyph glyph-name="dotaccent" unicode="&#x2d9;" horiz-adv-x="500" 
d="M295 784h-91v98h91v-98z" />
    <glyph glyph-name="ring" unicode="&#x2da;" horiz-adv-x="500" 
d="M158 819q0 37 26.5 60t65.5 23t66.5 -23.5t27.5 -59.5q0 -35 -27.5 -57.5t-66.5 -22.5t-65.5 22.5t-26.5 57.5zM250 783q17 0 27 10t10 26q0 18 -10 28.5t-27 10.5q-16 0 -26 -10.5t-10 -28.5q0 -16 10 -26t26 -10z" />
    <glyph glyph-name="ogonek" unicode="&#x2db;" horiz-adv-x="499" 
d="M166 -119q0 46 33 85q35 38 64 54h61v-20q-18 0 -50 -35q-32 -37 -32 -68q0 -22 19 -34t45 -15l-18 -68q-23 3 -51 11q-28 10 -49.5 34t-21.5 56z" />
    <glyph glyph-name="tilde" unicode="&#x2dc;" horiz-adv-x="499" 
d="M151 756h-72q0 127 102 127q24 0 44 -10.5t31 -23t25 -23t27 -10.5q40 0 40 64h72q0 -127 -102 -127q-24 0 -44 10.5t-31 23t-25 23t-27 10.5q-40 0 -40 -64z" />
    <glyph glyph-name="hungarumlaut" unicode="&#x2dd;" horiz-adv-x="499" 
d="M320 755h-81l73 127h103zM172 755h-87l68 127h89z" />
    <glyph glyph-name="uni1E9E" unicode="&#x1e9e;" horiz-adv-x="720" 
d="M226 0h-189v78h89v420q0 90 60 149q61 59 151 59h285v-67l-128 -197l-18 -24v-2q90 -18 143 -70t53 -131q0 -95 -70 -159t-195 -64q-48 0 -95 10v87q39 -10 84 -10q83 0 128.5 36.5t45.5 97.5q0 120 -195 133v60l119 189l20 26v2q-15 -3 -29 -3h-144q-50 0 -82.5 -34.5
t-32.5 -86.5v-499z" />
    <glyph glyph-name="thinspace" unicode="&#x2009;" horiz-adv-x="260" 
 />
    <glyph glyph-name="endash" unicode="&#x2013;" horiz-adv-x="714" 
d="M620 246h-526v78h526v-78z" />
    <glyph glyph-name="emdash" unicode="&#x2014;" horiz-adv-x="914" 
d="M820 246h-726v78h726v-78z" />
    <glyph glyph-name="quoteleft" unicode="&#x2018;" horiz-adv-x="229" 
d="M141 499h-94l71 218h72z" />
    <glyph glyph-name="quoteright" unicode="&#x2019;" horiz-adv-x="223" 
d="M122 499h-72l49 218h94z" />
    <glyph glyph-name="quotesinglbase" unicode="&#x201a;" horiz-adv-x="246" 
d="M106 -113h-70l49 218h92z" />
    <glyph glyph-name="quotedblleft" unicode="&#x201c;" horiz-adv-x="377" 
d="M142 499h-95l71 218h72zM289 499h-95l71 218h72z" />
    <glyph glyph-name="quotedblright" unicode="&#x201d;" horiz-adv-x="370" 
d="M269 499h-72l49 218h94zM122 499h-72l49 218h94z" />
    <glyph glyph-name="quotedblbase" unicode="&#x201e;" horiz-adv-x="390" 
d="M250 -113h-69l49 218h91zM106 -113h-70l49 218h92z" />
    <glyph glyph-name="dagger" unicode="&#x2020;" horiz-adv-x="422" 
d="M256 -50h-93v479h-121v77h121v200h93v-200h124v-77h-124v-479z" />
    <glyph glyph-name="daggerdbl" unicode="&#x2021;" horiz-adv-x="435" 
d="M169 171h-121v78h121v180h-121v77h121v200h94v-200h124v-77h-124v-180h124v-78h-124v-221h-94v221z" />
    <glyph glyph-name="bullet" unicode="&#x2022;" horiz-adv-x="413" 
d="M315 181q-45 -45 -109 -45t-109 45q-45 46 -45 110t45 109q45 46 109 46t109 -45q46 -45 46 -110t-46 -110z" />
    <glyph glyph-name="ellipsis" unicode="&#x2026;" horiz-adv-x="772" 
d="M696 0h-101v105h101v-105zM437 0h-102v105h102v-105zM177 0h-101v105h101v-105z" />
    <glyph glyph-name="perthousand" unicode="&#x2030;" horiz-adv-x="1104" 
d="M51 570q0 60 44 104t107 44t107 -44q45 -44 45 -104q0 -62 -45 -105q-43 -43 -107 -43t-107 43q-44 44 -44 105zM160 0h-93l539 706h94zM202 496q32 0 53 21t21 53q2 31 -21.5 53t-52.5 22t-52 -22q-21 -24 -21.5 -53t21 -52.5t52.5 -21.5zM768 136q0 60 44 104t107 44
t107 -44q45 -43 45 -104q0 -62 -45 -105q-43 -43 -107 -43t-107 43q-44 44 -44 105zM457 31q-44 44 -44 105q0 60 44 104q46 44 108 44q63 0 107 -44q45 -43 45 -104q0 -62 -45 -105q-43 -43 -107 -43t-108 43zM993 136q0 31 -21.5 53t-52.5 22t-52 -22t-21 -53t21 -52.5
t52 -21.5t52.5 21t21.5 53zM491 136q0 -32 21.5 -53t52.5 -21t52.5 21.5t21.5 52.5t-21.5 53t-52.5 22t-52.5 -22t-21.5 -53z" />
    <glyph glyph-name="guilsinglleft" unicode="&#x2039;" horiz-adv-x="359" 
d="M304 77h-97l-164 205l164 206h97l-164 -206z" />
    <glyph glyph-name="guilsinglright" unicode="&#x203a;" horiz-adv-x="359" 
d="M152 77h-97l164 205l-164 206h97l164 -206z" />
    <glyph glyph-name="fraction" unicode="&#x2044;" horiz-adv-x="149" 
d="M-55 0h-76l336 706h75z" />
    <glyph glyph-name="zerosuperior" unicode="&#x2070;" horiz-adv-x="399" 
d="M200 413q-158 0 -158 229q0 228 158 228q157 0 157 -228q0 -229 -157 -229zM200 482q81 0 81 160q0 158 -81 158q-82 0 -82 -158q0 -160 82 -160z" />
    <glyph glyph-name="foursuperior" unicode="&#x2074;" horiz-adv-x="392" 
d="M303 423h-74v109h-208v48l201 280h81v-269h62v-59h-62v-109zM98 593v-2h131v146l4 45h-3q-9 -22 -21 -39z" />
    <glyph glyph-name="fivesuperior" unicode="&#x2075;" horiz-adv-x="368" 
d="M171 413q-38 0 -74 14.5t-53 32.5l-16 15l42 50l12 -13q39 -32 84 -32q39 0 65 23.5t26 59.5t-26 59.5t-66 23.5t-64 -16l-9 -5l-42 15l24 220h236v-113h-62v53h-113l-7 -75l-5 -33h2q21 10 55 10q66 0 110 -41q43 -40 43 -99q0 -62 -46 -105q-46 -44 -116 -44z" />
    <glyph glyph-name="sixsuperior" unicode="&#x2076;" horiz-adv-x="383" 
d="M204 413q-73 0 -119 55t-46 148q0 98 51 176q53 78 146 78q45 0 82 -16l11 -6l-25 -64q-32 16 -65 16q-45 0 -75.5 -34.5t-40.5 -90.5h2q31 31 79 31q66 0 106 -40t40 -103q0 -66 -41 -108t-105 -42zM204 482q32 0 51.5 23t19.5 59q0 37 -22.5 60.5t-58.5 23.5
q-31 0 -54.5 -16.5t-23.5 -36.5q0 -43 25 -78q26 -35 63 -35z" />
    <glyph glyph-name="sevensuperior" unicode="&#x2077;" horiz-adv-x="354" 
d="M138 423h-79l180 355l16 22v2q-18 -2 -27 -2h-134v-53h-63v113h305v-51z" />
    <glyph glyph-name="eightsuperior" unicode="&#x2078;" horiz-adv-x="391" 
d="M109 663q-51 37 -51 90t40.5 85t100.5 32q56 0 99 -32q43 -31 43 -87q0 -52 -54 -112q64 -37 64 -99q0 -56 -45 -92q-46 -35 -109 -35q-64 0 -112 36q-47 36 -47 100t71 114zM195 681l38 -16q37 37 37 82q0 26 -21 42t-51 16q-29 0 -48 -15t-19 -40q-1 -27 31 -51z
M197 478q31 0 55 19t24 46t-26 45q-12 10 -25 15q-8 5 -34 16l-32 15q-47 -38 -47 -82q0 -33 25 -53.5t60 -20.5z" />
    <glyph glyph-name="ninesuperior" unicode="&#x2079;" horiz-adv-x="383" 
d="M148 413q-50 0 -82 17l-12 5l25 64q31 -16 67 -16q43 0 74 35t40 90h-2q-32 -31 -83 -31q-63 0 -102.5 41t-39.5 104q0 65 41 106q40 42 105 42q71 0 118 -56t47 -147q0 -61 -20 -118q-20 -55 -66 -96q-46 -40 -110 -40zM191 635q33 0 54.5 17t21.5 46q0 33 -26 68
t-64 35q-30 0 -49.5 -23t-19.5 -59q0 -37 22.5 -60.5t60.5 -23.5z" />
    <glyph glyph-name="zeroinferior" unicode="&#x2080;" horiz-adv-x="399" 
d="M200 -167q-158 0 -158 229q0 228 158 228q157 0 157 -228q0 -229 -157 -229zM200 -98q81 0 81 160q0 158 -81 158q-82 0 -82 -158q0 -160 82 -160z" />
    <glyph glyph-name="oneinferior" unicode="&#x2081;" horiz-adv-x="336" 
d="M317 -157h-280v62h103v247l3 31h-2q-4 -8 -16 -18l-48 -47l-46 49l117 113h67v-375h102v-62z" />
    <glyph glyph-name="twoinferior" unicode="&#x2082;" horiz-adv-x="374" 
d="M34 -117q0 84 75 137q13 10 46 31.5t48.5 33t30 31.5t14.5 40q0 28 -20 46.5t-51 18.5q-20 0 -42 -11.5t-33 -24.5l-10 -12l-49 45q0 3 14.5 18.5t49.5 34t76 19.5q63 0 102 -36t39 -92q0 -41 -21 -73t-51.5 -52.5t-61.5 -39t-53.5 -42t-24.5 -50.5h157v51h63v-113h-294
q-4 23 -4 40z" />
    <glyph glyph-name="threeinferior" unicode="&#x2083;" horiz-adv-x="374" 
d="M109 166h-63v113h280v-48l-112 -130q54 -9 87 -40.5t33 -83.5q0 -58 -44 -102q-43 -43 -112 -43q-41 0 -78.5 15.5t-53.5 34.5l-15 16l42 51q9 -12 11 -14q8 -9 34 -22q28 -14 57 -14q34 0 58.5 22t24.5 54t-25.5 51.5t-62.5 19.5h-32l-16 38l95 115l22 20v3
q-13 -3 -30 -3h-100v-53z" />
    <glyph glyph-name="fourinferior" unicode="&#x2084;" horiz-adv-x="392" 
d="M303 -157h-74v109h-208v48l201 280h81v-269h62v-59h-62v-109zM98 13v-2h131v146l4 45h-3q-9 -22 -21 -39z" />
    <glyph glyph-name="fiveinferior" unicode="&#x2085;" horiz-adv-x="368" 
d="M171 -167q-38 0 -74 14.5t-53 32.5l-16 15l42 50l12 -12q10 -10 35 -21.5t49 -11.5q39 0 65 23.5t26 59.5t-26 59.5t-66 23.5t-64 -16l-9 -5l-42 15l24 220h236v-113h-62v53h-113l-7 -75l-5 -33h2q21 10 55 10q66 0 110 -41q43 -40 43 -99q0 -62 -46 -105
q-46 -44 -116 -44z" />
    <glyph glyph-name="sixinferior" unicode="&#x2086;" horiz-adv-x="383" 
d="M204 -167q-72 0 -119 56q-46 55 -46 147q0 98 51 176q52 78 146 78q45 0 82 -16l11 -6l-25 -64q-32 16 -65 16q-45 0 -75.5 -34.5t-40.5 -90.5h2q31 31 79 31q66 0 106 -40t40 -103q0 -66 -41 -108t-105 -42zM204 -98q32 0 51.5 23t19.5 59q0 37 -22.5 60.5t-58.5 23.5
q-31 0 -54.5 -16.5t-23.5 -36.5q0 -43 25 -77q25 -36 63 -36z" />
    <glyph glyph-name="seveninferior" unicode="&#x2087;" horiz-adv-x="354" 
d="M138 -158h-79l180 355l16 22v2q-18 -2 -27 -2h-134v-53h-63v113h305v-51z" />
    <glyph glyph-name="eightinferior" unicode="&#x2088;" horiz-adv-x="391" 
d="M109 84q-51 38 -51 90q0 53 40.5 85t100.5 32q56 0 99 -32q43 -31 43 -87q0 -52 -54 -112q64 -37 64 -99q0 -57 -45 -91q-45 -36 -109 -36t-112 36q-47 36 -47 100t71 114zM195 102l38 -16q37 37 37 82q0 26 -21 42t-51 16q-29 0 -48 -15t-19 -40q-1 -27 31 -51z
M197 -101q31 0 55 19t24 46t-26 45q-12 10 -25 15q-8 5 -34 16l-32 15q-47 -38 -47 -82q0 -33 25 -53.5t60 -20.5z" />
    <glyph glyph-name="nineinferior" unicode="&#x2089;" horiz-adv-x="383" 
d="M148 -167q-50 0 -82 17l-12 5l25 64q31 -16 67 -16q43 0 74 35t40 90h-2q-32 -31 -83 -31q-63 0 -102.5 41t-39.5 104q0 65 41 106q40 42 105 42q71 0 118 -56t47 -147q0 -61 -20 -118q-20 -55 -66 -96q-46 -40 -110 -40zM191 55q33 0 54.5 17t21.5 46q0 33 -26 68
t-64 35q-30 0 -49.5 -23t-19.5 -59q0 -37 22.5 -60.5t60.5 -23.5z" />
    <glyph glyph-name="Euro" unicode="&#x20ac;" horiz-adv-x="599" 
d="M109 250h-65v61h55q-5 41 0 92h-55v62h66q32 112 123 182q92 71 214 71q50 0 88 -9l13 -3l-23 -86q-37 10 -80 10q-82 0 -143.5 -44.5t-86.5 -120.5h280l-13 -62h-281q-5 -39 0 -92h265l-13 -61h-235q24 -79 86 -126t144 -47q47 0 80 11l12 3l19 -86q-51 -17 -112 -17
q-127 0 -218 73t-120 189z" />
    <glyph glyph-name="trademark" unicode="&#x2122;" horiz-adv-x="954" 
d="M516 266h-76l35 440h70l104 -230l13 -42h2q5 21 14 42l104 230h70l34 -440h-76l-20 263l1 30h-2l-95 -212h-61l-95 212h-2l1 -30zM256 266h-75v373h-153v67h381v-67h-153v-373z" />
    <glyph glyph-name="minus" unicode="&#x2212;" horiz-adv-x="613" 
d="M565 246h-517v78h517v-78z" />
    <glyph glyph-name="infinity" unicode="&#x221e;" horiz-adv-x="491" 
d="M427 349q0 -74 -53 -129q-53 -53 -128 -53q-74 0 -129 53q-53 55 -53 129q0 75 53 128q55 53 129 53q75 0 128 -53t53 -128z" />
    <glyph glyph-name="approxequal" unicode="&#x2248;" horiz-adv-x="613" 
d="M98 321l-41 59q69 73 151 73q49 0 107 -35q59 -35 91 -35q59 0 110 55l41 -59q-71 -72 -151 -72q-49 0 -108 35q-58 35 -90 35q-56 0 -110 -56zM98 133l-41 58q69 73 151 73q49 0 107 -35q59 -35 91 -35q59 0 110 55l41 -59q-71 -72 -151 -72q-49 0 -108 35
q-58 35 -90 35q-58 0 -110 -55z" />
    <glyph glyph-name="notequal" unicode="&#x2260;" horiz-adv-x="613" 
d="M173 39l-52 34l56 78h-110v78h162l80 111h-242v78h294l82 115l51 -35l-58 -80h108v-78h-160l-79 -111h239v-78h-292z" />
    <glyph glyph-name="lessequal" unicode="&#x2264;" horiz-adv-x="613" 
d="M524 44l-466 208v66l466 208v-89l-358 -151v-2l358 -151v-89zM59 -173v78h465v-78h-465z" />
    <glyph glyph-name="greaterequal" unicode="&#x2265;" horiz-adv-x="613" 
d="M555 252l-466 -208v89l357 151v2l-357 151v89l466 -208v-66zM89 -173v78h465v-78h-465z" />
    <glyph glyph-name="NULL" horiz-adv-x="0" 
 />
    <glyph glyph-name="CR" horiz-adv-x="333" 
 />
    <glyph glyph-name="commaaccent" horiz-adv-x="335" 
d="M128 -58h85q7 -20 7 -49q0 -77 -76 -118l-42 34q38 36 38 78q0 23 -12 55z" />
    <glyph glyph-name="apple" horiz-adv-x="1130" 
d="M433 -146l-265 141v152l-126 72v278l126 71v151l265 142l134 -71l132 71l265 -142v-151l124 -71v-278l-124 -72v-152l-265 -141l-132 71zM208 169v-139l238 -126l121 66l118 -66l238 126v139l114 64v249l-114 66v136l-238 126l-118 -64l-121 64l-238 -126v-136l-114 -66
v-249zM457 -50l-215 114v121l-99 60v225l99 58v123l215 114l110 -59l107 59l214 -114v-123l100 -58v-225l-100 -60v-121l-214 -114l-107 58zM438 529v-438h79v204h206v69h-206v165h151q14 0 19 -5.5t5 -20.5v-33h73v74q0 28 -12 40.5t-42 12.5h-331v-68h58z" />
    <glyph glyph-name="zero.tnum" horiz-adv-x="574" 
d="M287 -12q-250 0 -250 366q0 364 250 364q138 0 196 -107q54 -98 54 -257q0 -80 -13 -144t-41 -115t-78 -79t-118 -28zM435 354q0 276 -148 276t-148 -276q0 -277 148 -277t148 277z" />
    <glyph glyph-name="one.tnum" horiz-adv-x="574" 
d="M504 0h-406v82h156v460l1 43h-2q-6 -12 -34 -40l-66 -65l-60 62l169 164h88v-624h154v-82z" />
    <glyph glyph-name="two.tnum" horiz-adv-x="574" 
d="M526 0h-478q-5 35 -5 54q0 51 19.5 95t50.5 75.5t68 60t74.5 53.5t68.5 50t50.5 56.5t19.5 66.5q0 54 -35 86.5t-92 32.5q-41 0 -78 -24q-34 -21 -52 -46l-16 -24l-70 48q15 26 33 47q20 23 43 40q61 47 148 47q98 0 160 -56q63 -56 63 -147q0 -46 -19 -86t-49.5 -69.5
t-68 -56.5t-74.5 -51.5t-67.5 -49t-49.5 -55.5t-19 -65h288v94h87v-176z" />
    <glyph glyph-name="three.tnum" horiz-adv-x="574" 
d="M158 534h-87v172h431v-69l-187 -220q77 -7 139 -59q61 -49 61 -143q0 -93 -68 -161q-67 -66 -174 -66q-130 0 -219 86l-10 10l52 71q14 -14 31 -28q70 -50 141 -50q59 0 102 38q43 37 43 96q0 60 -44 95.5t-112 35.5q-28 0 -42 -2l-23 52l172 207l22 23l5 3v2
q-23 -3 -36 -3h-197v-90z" />
    <glyph glyph-name="four.tnum" horiz-adv-x="574" 
d="M355 189h-342v62l327 455h112v-437h96v-80h-96v-189h-97v189zM331 553l-210 -282v-2h234v277l5 54h-3q-9 -21 -26 -47z" />
    <glyph glyph-name="five.tnum" horiz-adv-x="574" 
d="M56 70l-9 9l52 70l19 -20q15 -14 55 -32q43 -20 87 -20q66 0 113 42q46 42 46 102q0 66 -44 106t-116 40q-66 0 -109 -27l-15 -9l-58 21l35 354h365v-172h-87v90h-192l-18 -169l-5 -28h2q38 22 100 22q109 0 176 -64q68 -65 68 -160q0 -100 -73 -169q-74 -68 -183 -68
q-75 1 -128 27t-81 55z" />
    <glyph glyph-name="six.tnum" horiz-adv-x="574" 
d="M308 -12q-117 0 -190 91q-74 92 -74 239q0 150 76 269q39 61 103 96t142 35q77 0 119 -22l16 -7l-31 -83q-45 24 -102 24q-90 0 -146 -71q-53 -70 -67 -169h2q23 30 67 48.5t93 18.5q98 0 161 -67q63 -66 63 -164q0 -104 -66 -171t-166 -67zM148 266q0 -67 46 -128
t113 -61q60 0 96 41t36 108t-40.5 107.5t-110.5 40.5q-58 0 -99 -33q-41 -32 -41 -75z" />
    <glyph glyph-name="seven.tnum" horiz-adv-x="574" 
d="M220 0h-102l292 590q14 25 19 32l3 3v2q-18 -3 -41 -3h-249v-90h-87v172h484v-68z" />
    <glyph glyph-name="eight.tnum" horiz-adv-x="574" 
d="M41 199q0 113 114 192q-86 57 -86 142q0 76 57 130q58 55 163 55q101 0 162 -51q62 -51 62 -135q0 -43 -20 -89q-26 -58 -64 -96q101 -59 101 -153q0 -83 -68 -145q-67 -61 -174 -61q-106 0 -177 60q-70 60 -70 151zM167 532q0 -41 43 -80q15 -11 65 -36q7 -2 40 -17
q11 -4 24.5 -9.5t15.5 -6.5q61 71 61 138q0 51 -34.5 81t-92.5 30q-56 0 -89 -28t-33 -72zM141 209q0 -60 43 -97t103 -37q58 0 99 34q43 34 43 85q-4 33 -17 52.5t-45 37.5q-13 8 -40 20q-39 18 -50 22q-43 19 -52 23q-84 -63 -84 -140z" />
    <glyph glyph-name="nine.tnum" horiz-adv-x="574" 
d="M33 481q0 104 66 170q66 67 167 67q115 0 189 -92t74 -238q0 -150 -77 -269q-38 -61 -101.5 -96t-142.5 -35q-78 0 -120 22l-16 7l31 84q45 -24 103 -24q92 0 146 70q54 69 68 170h-2q-23 -29 -67.5 -46.5t-93.5 -17.5q-98 0 -161 65q-63 66 -63 163zM135 481
q0 -65 40 -105t108 -40q57 0 100 32q42 32 42 75q0 66 -47 127q-46 60 -112 60q-59 0 -95 -41.5t-36 -107.5z" />
    <glyph glyph-name="hyphen.case" horiz-adv-x="466" 
d="M379 305h-292v86h292v-86z" />
    <glyph glyph-name="parenleft.case" horiz-adv-x="315" 
d="M270 -65h-85q-116 194 -116 435q0 210 116 395h85q-113 -190 -113 -396q0 -228 113 -434z" />
    <glyph glyph-name="parenright.case" horiz-adv-x="315" 
d="M130 -65h-85q113 206 113 434q0 206 -113 396h85q116 -185 116 -395q0 -241 -116 -435z" />
    <glyph glyph-name="bracketleft.case" horiz-adv-x="313" 
d="M262 -65h-165v830h165v-73h-80v-683h80v-74z" />
    <glyph glyph-name="bracketright.case" horiz-adv-x="314" 
d="M51 -65v74h80v683h-80v73h166v-830h-166z" />
    <glyph glyph-name="braceleft.case" horiz-adv-x="337" 
d="M118 107v96q0 53 -25.5 79t-50.5 28l-9 2v86q3 0 9 1t20.5 8t26 18t20.5 33t9 51v84q0 87 42 129q51 47 120 45l23 -1v-74h-14q-25 0 -52 -17q-34 -20 -34 -88v-103q0 -51 -24 -81.5t-49 -42.5l-8 -3v-2l4 -1q4 -2 11.5 -6.5t16 -10.5t17.5 -16.5t16 -23t11.5 -30.5
t4.5 -39v-115q0 -67 34 -89q28 -16 52 -16h14v-74q-12 -2 -23 -2q-43 0 -78 16q-84 38 -84 159z" />
    <glyph glyph-name="braceright.case" horiz-adv-x="337" 
d="M34 -66v74h14q24 0 51 16q35 22 35 89v115q0 53 24 84t48 40l9 3v2l-4 1q-4 2 -11.5 6.5t-16 11t-17.5 17t-16 23t-11.5 30.5t-4.5 38v103q0 68 -35 88q-26 17 -51 17h-14v74q6 1 23 1q43 0 77 -16q85 -38 85 -158v-84q0 -53 26 -80t50 -29l9 -2v-86q-3 0 -9 -1t-20.5 -8
t-26 -17.5t-20.5 -32t-9 -50.5v-96q0 -89 -43 -130q-49 -47 -119 -45z" />
    <glyph glyph-name="at.case" horiz-adv-x="769" 
d="M406 722q136 0 197 -58q63 -57 63 -146v-283h72v-73h-273q-91 0 -149 55t-58 134q0 77 57 132q59 56 150 56h108q-2 46 -45.5 74.5t-116.5 28.5q-114 0 -194 -86q-79 -85 -79 -204q0 -122 79 -205q80 -83 205 -83v-79q-166 0 -273 106q-108 107 -108 261q0 156 106 262
q107 108 259 108zM472 235h101v237h-99q-50 0 -84 -35t-34 -84t33 -84q33 -34 83 -34z" />
    <glyph glyph-name="guillemotleft.case" horiz-adv-x="562" 
d="M506 137h-97l-164 205l164 206h97l-164 -206zM304 137h-97l-164 205l164 206h97l-164 -206z" />
    <glyph glyph-name="guillemotright.case" horiz-adv-x="561" 
d="M354 137h-97l164 205l-164 206h97l164 -206zM153 137h-97l164 205l-164 206h97l164 -206z" />
    <glyph glyph-name="guilsinglleft.case" horiz-adv-x="360" 
d="M304 137h-97l-164 205l164 206h97l-164 -206z" />
    <glyph glyph-name="guilsinglright.case" horiz-adv-x="360" 
d="M153 137h-97l164 205l-164 206h97l164 -206z" />
    <glyph glyph-name="endash.case" horiz-adv-x="706" 
d="M616 306h-526v78h526v-78z" />
    <glyph glyph-name="emdash.case" horiz-adv-x="906" 
d="M816 306h-726v78h726v-78z" />
    <glyph glyph-name="periodcentered.case" horiz-adv-x="273" 
d="M187 293h-101v106h101v-106z" />
    <glyph glyph-name="questiondown.case" horiz-adv-x="432" 
d="M305 608h-100v98h100v-98zM31 170q0 86 62 143q5 4 37 33.5t41.5 40.5t22.5 36t13 50v39h95v-45q0 -78 -60 -136q-6 -6 -28.5 -26t-32 -29.5t-23.5 -27.5t-20 -34.5t-6 -35.5q0 -42 32.5 -71t82.5 -29t99 32l14 11l54 -69q-8 -8 -21 -18q-12 -10 -60 -28q-45 -18 -93 -18
q-87 0 -149 50q-60 51 -60 132z" />
    <glyph glyph-name="exclamdown.case" horiz-adv-x="299" 
d="M199 608h-100v98h100v-98zM200 0h-101l7 512h87z" />
    <glyph glyph-name="bullet.case" horiz-adv-x="411" 
d="M51 353q0 65 45 110q46 45 110 45t109 -46q45 -45 45 -109t-45 -110q-45 -45 -109 -45t-110 45q-45 46 -45 110z" />
    <glyph glyph-name="zero.p_osf" horiz-adv-x="597" 
d="M58 272q0 116 62 201q61 85 178 85q118 0 179 -85q62 -85 62 -202q0 -77 -25 -137q-25 -65 -82 -105.5t-134 -40.5q-116 0 -178 83.5t-62 200.5zM441 273q0 83 -37 141q-36 60 -106 60t-106 -59t-36 -142t36 -142t106 -59t106 59q37 58 37 142z" />
    <glyph glyph-name="one.p_osf" horiz-adv-x="467" 
d="M445 0h-384v79h152v310l1 59h-2q-16 -16 -38 -29l-91 -54l-45 68l184 113h86v-467h137v-79z" />
    <glyph glyph-name="two.p_osf" horiz-adv-x="551" 
d="M497 0h-433v67q161 106 234.5 176.5t73.5 131.5q0 47 -32 73t-84 26q-34 0 -72.5 -18t-59.5 -38l-20 -19l-51 62q11 13 37 33q71 61 179 64q91 0 146 -49q56 -48 56 -121q0 -81 -64 -153t-202 -157v-2q19 3 59 3h233v-79z" />
    <glyph glyph-name="three.p_osf" horiz-adv-x="517" 
d="M46 -60l-22 22l51 66l19 -20q15 -13 54 -32q42 -20 85 -20q59 0 100 35t41 90q0 57 -43 89t-113 32l-41 -2l-22 51l166 195l27 26v2q-21 -3 -36 -3h-178v-84h-82v159h407v-63l-184 -209q35 -4 67 -15.5t62.5 -33t49 -57.5t18.5 -83q0 -92 -65 -152q-64 -61 -171 -61
q-60 0 -114 23t-76 45z" />
    <glyph glyph-name="four.p_osf" horiz-adv-x="582" 
d="M354 36h-330v59l310 451h115v-433h101v-77h-101v-152h-95v152zM330 399l-202 -286h226v278l4 54h-3q-8 -20 -25 -46z" />
    <glyph glyph-name="five.p_osf" horiz-adv-x="518" 
d="M31 -46l-8 9l51 65q6 -8 18 -18q16 -12 52 -29q39 -18 81 -18q63 0 109 36t46 99q0 62 -45 96q-46 35 -109 35t-105 -23l-15 -8l-55 20l36 328h350v-159h-84v84h-183l-16 -145l-6 -37h2q37 19 97 19q101 0 165 -57q66 -56 66 -152q0 -98 -70 -159q-71 -62 -176 -62
q-123 1 -201 76z" />
    <glyph glyph-name="six.p_osf" horiz-adv-x="583" 
d="M52 294q0 138 74 254q38 58 101 92t139 34q72 0 122 -20l16 -7l-32 -79q-43 22 -102 22q-90 0 -145 -67q-54 -67 -67 -161h2q21 30 65 47.5t93 17.5q99 0 160 -61q62 -62 62 -155q0 -98 -64 -161q-64 -62 -162 -62q-115 0 -189 83q-73 83 -73 223zM154 255q0 -68 46 -126
q46 -57 114 -57q59 0 94 38t35 100q0 61 -39.5 99t-105.5 38q-59 0 -102 -28q-42 -29 -42 -64z" />
    <glyph glyph-name="seven.p_osf" horiz-adv-x="518" 
d="M192 -116h-103l281 553l21 35v2q-18 -3 -41 -3h-229v-84h-84v159h459v-64z" />
    <glyph glyph-name="eight.p_osf" horiz-adv-x="583" 
d="M50 191q0 94 115 175q-85 52 -85 134q0 72 56 123t159 51q98 0 157 -49q61 -48 61 -129q0 -87 -84 -171q101 -54 101 -142q0 -80 -67 -138q-66 -57 -172 -57q-104 0 -173 57q-68 57 -68 146zM175 498q0 -24 15 -48q8 -13 42 -35q7 -5 30.5 -15.5t27.5 -12.5l33 -13
q28 -11 33 -13q63 71 63 130q0 46 -34.5 73t-90.5 27q-54 0 -86.5 -26.5t-32.5 -66.5zM147 197q0 -55 42 -90q44 -35 102 -35q59 0 99 31q41 32 41 82q-3 28 -17.5 47t-46.5 36q-16 9 -39 19l-47 20l-46 19q-88 -60 -88 -129z" />
    <glyph glyph-name="nine.p_osf" horiz-adv-x="577" 
d="M73 -101l32 79q44 -22 102 -22q90 0 145 67t67 162h-2q-21 -30 -65 -48t-93 -18q-100 0 -161 61t-61 155q0 99 63 160q64 63 163 63q115 0 188 -84q74 -83 74 -222t-75 -254q-37 -58 -100 -92t-139 -34q-71 0 -123 20zM279 199q59 0 102 28t43 65q0 68 -46 124
q-46 58 -114 58q-59 0 -94 -38t-35 -100q0 -61 39 -99t105 -38z" />
    <glyph glyph-name="zero.t_osf" horiz-adv-x="574" 
d="M46 272q0 116 62 201q61 85 178 85q118 0 179 -85q62 -85 62 -202q0 -77 -25 -137q-25 -65 -82 -105.5t-134 -40.5q-116 0 -178 83.5t-62 200.5zM429 273q0 83 -37 141q-36 60 -106 60t-106 -59t-36 -142t36 -142t106 -59t106 59q37 58 37 142z" />
    <glyph glyph-name="one.t_osf" horiz-adv-x="574" 
d="M498 0h-384v79h152v310l1 59h-2q-15 -16 -38 -29l-91 -54l-45 68l184 113h86v-467h137v-79z" />
    <glyph glyph-name="two.t_osf" horiz-adv-x="574" 
d="M508 0h-433v67q161 106 234.5 176.5t73.5 131.5q0 47 -32 73t-84 26q-38 0 -75 -19q-41 -21 -58 -37l-19 -19l-51 62q10 13 37 33q71 61 179 64q91 0 146 -49q56 -48 56 -121q0 -81 -64 -153t-202 -157v-2q20 3 59 3h233v-79z" />
    <glyph glyph-name="three.t_osf" horiz-adv-x="574" 
d="M76 -60l-23 23l51 66l19 -20q15 -13 54 -32q42 -20 85 -20q58 0 99 35t41 90q0 57 -42.5 89t-112.5 32l-41 -2l-22 51l165 194l27 26v2q-21 -3 -36 -3h-177v-84h-82v159h406v-63l-183 -208q35 -4 67 -15.5t62 -33t48.5 -57.5t18.5 -83q0 -92 -65 -152q-64 -61 -170 -61
q-60 0 -114 23t-75 44z" />
    <glyph glyph-name="four.t_osf" horiz-adv-x="574" 
d="M350 36h-330v59l310 451h115v-433h101v-77h-101v-152h-95v152zM326 399l-202 -286h226v278l4 54h-3q-8 -20 -25 -46z" />
    <glyph glyph-name="five.t_osf" horiz-adv-x="574" 
d="M59 -46l-8 9l51 65q6 -8 18 -18q16 -12 52 -29q39 -18 81 -18q63 0 109 36t46 99q0 62 -45 96q-46 35 -109 35t-105 -23l-15 -8l-55 20l36 328h350v-159h-84v84h-183l-16 -145l-6 -37h2q37 19 97 19q101 0 165 -57q66 -56 66 -152q0 -98 -70 -159q-71 -62 -176 -62
q-123 1 -201 76z" />
    <glyph glyph-name="six.t_osf" horiz-adv-x="574" 
d="M47 294q0 138 74 254q38 58 101 92t139 34q71 0 123 -20l15 -7l-32 -79q-43 22 -102 22q-90 0 -145 -67q-54 -67 -67 -161h2q21 30 65 47.5t93 17.5q99 0 160 -61q62 -62 62 -155q0 -98 -64 -161q-64 -62 -162 -62q-115 0 -189 83q-73 83 -73 223zM149 255q0 -68 46 -126
q47 -57 114 -57q59 0 94 38t35 100q0 61 -39.5 99t-105.5 38q-59 0 -102 -28q-42 -29 -42 -64z" />
    <glyph glyph-name="seven.t_osf" horiz-adv-x="574" 
d="M220 -116h-103l281 553l21 35v2q-18 -3 -41 -3h-229v-84h-84v159h459v-64z" />
    <glyph glyph-name="eight.t_osf" horiz-adv-x="574" 
d="M46 191q0 94 115 175q-85 52 -85 134q0 72 56 123t159 51q98 0 157 -49q61 -48 61 -129q0 -87 -84 -171q101 -54 101 -142q0 -80 -67 -138q-66 -57 -172 -57q-104 0 -173 57q-68 57 -68 146zM171 498q0 -24 15 -48q8 -13 42 -35q7 -5 30.5 -15.5t27.5 -12.5l33 -13
q28 -11 33 -13q63 71 63 130q0 46 -34.5 73t-90.5 27q-54 0 -86.5 -26.5t-32.5 -66.5zM143 197q0 -55 42 -90q44 -35 102 -35q59 0 99 31q41 32 41 82q-3 28 -17.5 47t-46.5 36q-16 9 -39 19l-47 20l-46 19q-88 -60 -88 -129z" />
    <glyph glyph-name="nine.t_osf" horiz-adv-x="574" 
d="M78 -101l32 79q44 -22 102 -22q90 0 145 67t67 162h-2q-21 -30 -65 -48t-93 -18q-100 0 -161 61t-61 155q0 99 63 160q65 63 163 63q114 0 188 -84q74 -83 74 -222t-75 -254q-37 -58 -100 -92t-139 -34q-72 0 -122 20zM284 199q59 0 102 28t43 65q0 68 -46 124
q-46 58 -114 58q-59 0 -94 -38t-35 -100q0 -61 39 -99t105 -38z" />
    <glyph glyph-name="dollar.osf" horiz-adv-x="492" 
d="M52 66l-21 17l47 70l22 -20q19 -13 60 -31q44 -19 91 -19q48 0 78.5 22t30.5 57q0 54 -110 85q-31 8 -54.5 16t-52.5 23t-47.5 32.5t-31.5 45t-13 60.5q0 128 166 153v98h70v-97q42 -3 81 -16t56 -26l15 -11l-37 -74l-18 12q-14 9 -52 20q-39 12 -83 12q-104 0 -104 -71
q0 -57 109 -92q37 -10 56 -16.5t51.5 -21t49 -30.5t30 -42t13.5 -58q0 -65 -47 -110t-124 -53v-103h-70v102q-48 6 -95 27q-45 21 -66 39z" />
    <glyph glyph-name="cent.osf" horiz-adv-x="526" 
d="M31 299q0 95 58 160q58 67 152 82v85h73v-82q45 -4 87.5 -22t62.5 -38l18 -17l-45 -72l-17 17q-12 12 -48 28q-36 18 -75 18q-74 0 -122 -45q-47 -45 -47 -113t47 -115q47 -46 122 -46q36 0 71.5 15t53.5 33l15 16l45 -72l-20 -20q-14 -12 -57 -33q-42 -20 -91 -25v-80
h-73v83q-93 15 -152 81q-58 67 -58 162z" />
    <glyph glyph-name="sterling.osf" horiz-adv-x="584" 
d="M545 0h-502v83h79v158h-62v68h62v88q0 83 64 138t160 55q44 0 89 -14q43 -13 64 -28l20 -13l-47 -72q-55 40 -125 40q-56 0 -91.5 -31t-35.5 -78v-85h217v-68h-217v-158h325v-83z" />
    <glyph glyph-name="yen.osf" horiz-adv-x="592" 
d="M212 283h-131v64h94l-140 232h112l104 -184l43 -90h2q26 57 43 90l104 184h112l-139 -232h96v-64h-134l-34 -57v-22h168v-64h-168v-140h-98v140h-165v64h165v22z" />
    <glyph glyph-name="florin.osf" horiz-adv-x="573" 
d="M7 -121v84q37 -6 65 -6q17 0 33 4t35 14.5t31.5 34t15.5 58.5l21 236h-83v78h89l10 105q5 48 22 83.5t38.5 55t50 31t50.5 15t46 3.5q37 0 71 -6l13 -2v-83q-46 7 -80 7q-17 0 -33 -4t-35 -14.5t-31.5 -34t-15.5 -58.5l-10 -98h118v-78h-124l-21 -244q-7 -92 -61 -138
q-60 -52 -145 -50q-35 0 -61 6z" />
    <glyph glyph-name="Euro.osf" horiz-adv-x="570" 
d="M122 192h-78v57h65q-3 19 -1 77h-64v58h75q29 94 108 150t198 56q48 0 84 -9l12 -3l-22 -80q-34 10 -76 10q-72 0 -123.5 -33.5t-76.5 -90.5h252l-13 -58h-255q-5 -43 1 -77h241l-12 -57h-209q24 -56 75 -88.5t123 -32.5q43 0 76 11l11 3l18 -81q-45 -16 -106 -16
q-114 0 -193 55.5t-110 148.5z" />
    <glyph glyph-name="zero.numerator" horiz-adv-x="399" 
d="M200 259q-158 0 -158 229q0 228 158 228q157 0 157 -228q0 -229 -157 -229zM200 328q81 0 81 160q0 158 -81 158q-82 0 -82 -158q0 -160 82 -160z" />
    <glyph glyph-name="one.numerator" horiz-adv-x="337" 
d="M318 269h-280v62h103v247l3 31h-2q-4 -8 -16 -18l-48 -47l-46 49l117 113h67v-375h102v-62z" />
    <glyph glyph-name="two.numerator" horiz-adv-x="373" 
d="M33 309q0 84 75 137q13 10 46 31.5t48.5 33t30 31.5t14.5 40q0 28 -20 46.5t-51 18.5q-20 0 -42 -11.5t-33 -24.5l-10 -12l-49 45q0 3 14.5 18.5t49.5 34t76 19.5q63 0 102 -36t39 -92q0 -41 -21 -73t-51.5 -52.5t-61.5 -39t-53.5 -42t-24.5 -50.5h157v51h63v-113h-294
q-4 23 -4 40z" />
    <glyph glyph-name="three.numerator" horiz-adv-x="375" 
d="M110 593h-63v113h280v-48l-112 -130q54 -9 87 -40.5t33 -83.5q0 -58 -44 -102q-43 -43 -112 -43q-41 0 -78.5 15.5t-54.5 33.5l-14 17l42 51q9 -12 11 -14q9 -9 34 -22q28 -14 57 -14q34 0 58.5 22t24.5 54t-25.5 51.5t-62.5 19.5h-32l-16 38l95 115l22 20v3
q-14 -3 -30 -3h-100v-53z" />
    <glyph glyph-name="four.numerator" horiz-adv-x="392" 
d="M303 269h-74v109h-208v48l201 280h81v-269h62v-59h-62v-109zM98 439v-2h131v146l4 45h-3q-9 -22 -21 -39z" />
    <glyph glyph-name="five.numerator" horiz-adv-x="369" 
d="M171 259q-38 0 -74 14.5t-53 32.5l-16 15l42 50l12 -13q39 -32 84 -32q39 0 65 23.5t26 59.5t-26 59.5t-66 23.5t-64 -16l-9 -5l-42 15l24 220h236v-113h-62v53h-113l-7 -75l-5 -33h2q21 10 55 10q66 0 110 -41q43 -40 43 -99q0 -62 -46 -105q-46 -44 -116 -44z" />
    <glyph glyph-name="six.numerator" horiz-adv-x="383" 
d="M204 259q-73 0 -119 55t-46 148q0 98 51 176q52 78 146 78q45 0 82 -16l11 -6l-25 -64q-32 16 -65 16q-45 0 -75.5 -34.5t-40.5 -90.5h2q31 31 79 31q66 0 106 -40t40 -103q0 -66 -41 -108t-105 -42zM204 328q32 0 51.5 23t19.5 59q0 37 -22.5 60.5t-58.5 23.5
q-31 0 -54.5 -16.5t-23.5 -36.5q0 -43 25 -78q26 -35 63 -35z" />
    <glyph glyph-name="seven.numerator" horiz-adv-x="355" 
d="M139 269h-79l180 355l16 22v2q-18 -2 -27 -2h-134v-53h-63v113h305v-51z" />
    <glyph glyph-name="eight.numerator" horiz-adv-x="391" 
d="M109 509q-51 37 -51 90t40.5 85t100.5 32q56 0 99 -32q43 -31 43 -87q0 -52 -54 -112q64 -37 64 -99q0 -56 -45 -92q-46 -35 -109 -35q-64 0 -112 36q-47 36 -47 100t71 114zM195 527l38 -16q37 37 37 82q0 26 -21 42t-51 16q-29 0 -48 -15t-19 -40q-1 -27 31 -51z
M197 324q31 0 55 19t24 46t-26 45q-12 10 -25 15q-8 5 -34 16l-32 15q-47 -38 -47 -82q0 -33 25 -53.5t60 -20.5z" />
    <glyph glyph-name="nine.numerator" horiz-adv-x="383" 
d="M148 259q-50 0 -82 17l-12 5l25 64q31 -16 67 -16q43 0 74 35t40 90h-2q-32 -31 -83 -31q-63 0 -102.5 41t-39.5 104q0 65 41 106q40 42 105 42q71 0 118 -56t47 -147q0 -61 -20 -118q-20 -55 -66 -96q-46 -40 -110 -40zM191 481q33 0 54.5 17t21.5 46q0 33 -26 68
t-64 35q-30 0 -49.5 -23t-19.5 -59q0 -37 22.5 -60.5t60.5 -23.5z" />
    <glyph glyph-name="zero.denominator" horiz-adv-x="399" 
d="M200 -10q-158 0 -158 229q0 228 158 228q157 0 157 -228q0 -229 -157 -229zM200 59q81 0 81 160q0 158 -81 158q-82 0 -82 -158q0 -160 82 -160z" />
    <glyph glyph-name="one.denominator" horiz-adv-x="336" 
d="M317 0h-280v62h103v247l3 31h-2q-4 -8 -16 -18l-48 -47l-46 49l117 113h67v-375h102v-62z" />
    <glyph glyph-name="two.denominator" horiz-adv-x="374" 
d="M34 40q0 84 75 137q13 10 46 31.5t48.5 33t30 31.5t14.5 40q0 28 -20 46.5t-51 18.5q-20 0 -42 -11.5t-33 -24.5l-10 -12l-49 45q0 3 14.5 18.5t49.5 34t76 19.5q63 0 102 -36t39 -92q0 -41 -21 -73t-51.5 -52.5t-61.5 -39t-53.5 -42t-24.5 -50.5h157v51h63v-113h-294
q-4 23 -4 40z" />
    <glyph glyph-name="three.denominator" horiz-adv-x="375" 
d="M110 324h-63v113h280v-48l-112 -130q54 -9 87 -40.5t33 -83.5q0 -58 -44 -102q-43 -43 -112 -43q-41 0 -78.5 15.5t-54.5 34.5l-14 16l42 51q9 -12 11 -14q9 -8 34 -22q28 -14 57 -14q34 0 58.5 22t24.5 54t-25.5 51.5t-62.5 19.5h-32l-16 38l95 115l22 20v3
q-14 -3 -30 -3h-100v-53z" />
    <glyph glyph-name="four.denominator" horiz-adv-x="392" 
d="M303 0h-74v109h-208v48l201 280h81v-269h62v-59h-62v-109zM98 170v-2h131v146l4 45h-3q-9 -23 -21 -39z" />
    <glyph glyph-name="five.denominator" horiz-adv-x="368" 
d="M171 -10q-38 0 -74 14.5t-53 31.5l-16 16l42 50l12 -13q39 -32 84 -32q39 0 65 23.5t26 59.5t-26 59.5t-66 23.5q-37 0 -64 -16l-9 -5l-42 15l24 220h236v-113h-62v53h-113l-7 -75l-5 -33h2q21 10 55 10q66 0 110 -41q43 -40 43 -99q0 -62 -46 -105q-46 -44 -116 -44z
" />
    <glyph glyph-name="six.denominator" horiz-adv-x="383" 
d="M204 -10q-73 0 -119 55t-46 148q0 98 51 176q52 78 146 78q48 0 82 -17l11 -5l-25 -64q-32 16 -65 16q-45 0 -75.5 -34.5t-40.5 -90.5h2q31 31 79 31q66 0 106 -40t40 -103q0 -66 -41 -108t-105 -42zM204 59q32 0 51.5 23t19.5 59q0 37 -22.5 60.5t-58.5 23.5
q-31 0 -54.5 -16.5t-23.5 -36.5q0 -43 25 -78q26 -35 63 -35z" />
    <glyph glyph-name="seven.denominator" horiz-adv-x="353" 
d="M138 0h-79l180 355l16 22v2q-18 -2 -27 -2h-134v-53h-63v113h305v-51z" />
    <glyph glyph-name="eight.denominator" horiz-adv-x="391" 
d="M109 240q-51 38 -51 90q0 53 40.5 85t100.5 32q56 0 99 -32q43 -31 43 -87q0 -52 -54 -112q64 -37 64 -99q0 -56 -45 -92q-46 -35 -109 -35q-64 0 -112 36q-47 36 -47 100t71 114zM195 258l38 -16q37 37 37 82q0 26 -21 42t-51 16q-29 0 -48 -15t-19 -40q-1 -27 31 -51z
M197 55q31 0 55 19t24 46t-26 45q-12 10 -25 15q-8 5 -34 16l-32 15q-47 -38 -47 -82q0 -33 25 -53.5t60 -20.5z" />
    <glyph glyph-name="nine.denominator" horiz-adv-x="383" 
d="M148 -10q-48 0 -82 16l-12 6l25 64q31 -16 67 -16q43 0 74 35t40 90h-2q-32 -31 -83 -31q-63 0 -102.5 41t-39.5 104q0 65 41 106q40 42 105 42q71 0 118 -56t47 -147q0 -61 -20 -118q-20 -56 -66 -96t-110 -40zM191 212q33 0 54.5 17t21.5 46q0 33 -26 68t-64 35
q-30 0 -49.5 -23t-19.5 -59q0 -37 22.5 -60.5t60.5 -23.5z" />
    </font>
</defs>
</svg>
